<?xml version="1.0" standalone="no"?>
<!DOCTYPE svg PUBLIC "-//W3C//DTD SVG 1.1//EN" "http://www.w3.org/Graphics/SVG/1.1/DTD/svg11.dtd" >
<svg>
<metadata>
Created by FontForge 20090914 at Wed Jan 24 11:52:11 2018
 By www-data
Copyright (c) 2011 by F&#195;&#161;bio Duarte Martins. All rights reserved.
</metadata>
<defs>
<font id="Catorze27Style1-SemiBold" horiz-adv-x="400" >
  <font-face 
    font-family="Catorze27 Style 1"
    font-weight="600"
    font-stretch="normal"
    units-per-em="1000"
    panose-1="0 0 0 0 0 0 0 0 0 0"
    ascent="800"
    descent="-200"
    x-height="700"
    cap-height="800"
    bbox="-55.001 -250 1007 1035"
    underline-thickness="50"
    underline-position="-50"
    unicode-range="U+0008-U+222B"
  />
<missing-glyph horiz-adv-x="500" 
d="M450 0h-400v750h400v-750zM100 50h300v650h-300v-650z" />
    <glyph glyph-name=".notdef" horiz-adv-x="500" 
d="M450 0h-400v750h400v-750zM100 50h300v650h-300v-650z" />
    <glyph glyph-name=".null" horiz-adv-x="0" 
 />
    <glyph glyph-name=".null" horiz-adv-x="0" 
 />
    <glyph glyph-name=".null" horiz-adv-x="0" 
 />
    <glyph glyph-name="CR" unicode="&#x9;" horiz-adv-x="250" 
 />
    <glyph glyph-name="CR" unicode="&#xd;" horiz-adv-x="250" 
 />
    <glyph glyph-name="space" unicode=" " horiz-adv-x="250" 
 />
    <glyph glyph-name="exclam" unicode="!" horiz-adv-x="200" 
d="M54 141c0 12.667 4.5 23.5 13.5 32.5s19.833 13.5 32.5 13.5s23.5 -4.5 32.5 -13.5s13.5 -19.833 13.5 -32.5s-4.5 -23.5 -13.5 -32.5s-19.833 -13.5 -32.5 -13.5c-13.333 0 -24.333 4.5 -33 13.5s-13 19.833 -13 32.5zM60 475v225h80v-225l-13 -225h-55
c-8 116.667 -12 191.667 -12 225z" />
    <glyph glyph-name="quotedbl" unicode="&#x22;" horiz-adv-x="375" 
d="M60 602v98.001h80v-98c0 -10.667 -1 -25.834 -3 -45.501s-4.33301 -36.5 -7 -50.5l-3 -21h-55c-8 53.333 -12 92.333 -12 117zM235 602.001v98.001h80v-98c0 -10.667 -1.16699 -25.834 -3.5 -45.501s-4.5 -36.5 -6.5 -50.5l-3 -21h-55c-8 53.333 -12 92.333 -12 117z" />
    <glyph glyph-name="numbersign" unicode="#" horiz-adv-x="514" 
d="M37 482v75h98l34 154l82 -23l-29 -131h123l34 154l82 -23l-29 -131h55v-75h-71l-35 -165h81v-75h-97l-33 -154l-85 23l29 131h-121l-33 -154l-85 23l29 131h-54v75h70l36 165h-81zM206 482l-35 -165h121l36 165h-122z" />
    <glyph glyph-name="dollar" unicode="$" horiz-adv-x="390" 
d="M157 25v74.001c-30 8 -54.5 24.5 -73.5 49.5s-28.5 53.5 -28.5 85.5v46h80v-51c0 -16.667 5.83301 -30.834 17.5 -42.501s25.834 -17.5 42.501 -17.5s30.834 5.83301 42.501 17.5s17.5 25.834 17.5 42.501v5c0 12 -3 22 -9 30l-156 211
c-23.333 25.333 -35 55.666 -35 90.999c0 31.333 9.5 59.5 28.5 84.5s43.5 41.833 73.5 50.5v74h75v-74c30 -8.66699 54.667 -25.5 74 -50.5s29 -53.167 29 -84.5v-46h-80v51c0 16.667 -5.83301 30.834 -17.5 42.501s-25.834 17.5 -42.501 17.5
s-30.834 -5.83301 -42.501 -17.5s-17.5 -25.834 -17.5 -42.501v-5c0 -12 3.33301 -23 10 -33l156 -211c22.667 -26 34 -55.333 34 -88c0 -32 -9.5 -60.5 -28.5 -85.5s-43.5 -41.5 -73.5 -49.5v-74h-76z" />
    <glyph glyph-name="percent" unicode="%" horiz-adv-x="760" 
d="M60 484v82c0 38.667 13.667 71.667 41 99s60.333 41 99 41s71.667 -13.667 99 -41s41 -60.333 41 -99v-82c0 -38.667 -13.667 -71.667 -41 -99s-60.333 -41 -99 -41s-71.667 13.667 -99 41s-41 60.333 -41 99zM140 479c0 -16.667 5.83301 -30.834 17.5 -42.501
s25.834 -17.5 42.501 -17.5s30.834 5.83301 42.501 17.5s17.5 25.834 17.5 42.501v92c0 16.667 -5.83301 30.834 -17.5 42.501s-25.834 17.5 -42.501 17.5s-30.834 -5.83301 -42.501 -17.5s-17.5 -25.834 -17.5 -42.501v-92zM420 184v82c0 38.667 13.667 71.667 41 99
s60.333 41 99 41s71.667 -13.667 99 -41s41 -60.333 41 -99v-82c0 -38.667 -13.667 -71.667 -41 -99s-60.333 -41 -99 -41s-71.667 13.667 -99 41s-41 60.333 -41 99zM500 179c0 -16.667 5.83301 -30.834 17.5 -42.501s25.834 -17.5 42.501 -17.5
s30.834 5.83301 42.501 17.5s17.5 25.834 17.5 42.501v92c0 16.667 -5.83301 30.834 -17.5 42.501s-25.834 17.5 -42.501 17.5s-30.834 -5.83301 -42.501 -17.5s-17.5 -25.834 -17.5 -42.501v-92zM257 44l-71 36l313 626l71 -36z" />
    <glyph glyph-name="ampersand" unicode="&#x26;" 
d="M140 571l0.00195312 -129.001c0 -16 5.33301 -29.667 16 -41s23.667 -17.666 39 -18.999h180v-75h-35v-73c0 -38.667 -13.667 -71.667 -41 -99s-60.333 -41 -99 -41s-71.667 13.667 -99 41s-41 60.333 -41 99v8c0 41.333 15 75.333 45 102c-30 28 -45 62.333 -45 103v119
c0 38.667 13.667 71.667 41 99s60.333 41 99 41s71.667 -13.667 99 -41s41 -60.333 41 -99v-54h-80v59c0 16.667 -5.83301 30.834 -17.5 42.501s-25.834 17.5 -42.501 17.5s-30.834 -5.83301 -42.501 -17.5s-17.5 -25.834 -17.5 -42.501zM195.002 306.999
c-15.333 -1.33301 -28.335 -7.83301 -39.002 -19.5s-16 -25.167 -16 -40.5v-18c0 -16.667 5.83301 -30.834 17.5 -42.501s25.834 -17.5 42.501 -17.5s30.834 5.83301 42.501 17.5s17.5 25.834 17.5 42.501v78h-65z" />
    <glyph glyph-name="quotesingle" unicode="'" horiz-adv-x="200" 
d="M60 602v98.001h80v-98c0 -10.667 -1 -25.834 -3 -45.501s-4.33301 -36.5 -7 -50.5l-3 -21h-55c-8 53.333 -12 92.333 -12 117z" />
    <glyph glyph-name="parenleft" unicode="(" horiz-adv-x="240" 
d="M112 864l72.999 -28c-4 -10.667 -8.66699 -26.667 -14 -48s-12.666 -69.666 -21.999 -144.999s-14 -156.333 -14 -243s4.16699 -166.334 12.5 -239.001s16.5 -123.667 24.5 -153l13 -44l-73 -28c-4 12 -9.16699 29.5 -15.5 52.5s-14.833 74.667 -25.5 155
s-16 165.833 -16 256.5s4.83301 174.667 14.5 252s19.167 132 28.5 164z" />
    <glyph glyph-name="parenright" unicode=")" horiz-adv-x="240" 
d="M55 836l72 28c4 -12 9.33301 -29.5 16 -52.5s15.334 -74.667 26.001 -155s16 -165.833 16 -256.5s-4.83301 -174.667 -14.5 -252s-19.167 -132 -28.5 -164l-15 -48l-72 28c4 10.667 8.66699 26.667 14 48s12.666 69.666 21.999 144.999s14 156.333 14 243
s-4.16699 166.334 -12.5 239.001s-16.5 123.667 -24.5 153z" />
    <glyph glyph-name="asterisk" unicode="*" horiz-adv-x="370" 
d="M150 457l-56 33l19 32l26 33l-42 -6h-37v65h37l42 -6l-26 33l-19 33l56 32l19 -32l16 -39l15 39l19 32l56 -32l-18 -33l-26 -33l41 6h38v-65h-38l-41 6l26 -33l18 -33l-56 -32l-19 33l-15 38l-16 -38z" />
    <glyph glyph-name="plus" unicode="+" horiz-adv-x="510" 
d="M30 340v75h185v185h80v-185h185v-75h-185v-190h-80v190h-185z" />
    <glyph glyph-name="comma" unicode="," horiz-adv-x="200" 
d="M60 180h80v-60c0 -14.667 -2 -31 -6 -49s-8 -32.333 -12 -43l-7 -16h-55v168z" />
    <glyph glyph-name="hyphen" unicode="-" horiz-adv-x="310" 
d="M30 340v75h250v-75h-250z" />
    <glyph glyph-name="period" unicode="." horiz-adv-x="215" 
d="M54 141c0 12.667 4.5 23.5 13.5 32.5s19.833 13.5 32.5 13.5s23.5 -4.5 32.5 -13.5s13.5 -19.833 13.5 -32.5s-4.5 -23.5 -13.5 -32.5s-19.833 -13.5 -32.5 -13.5c-13.333 0 -24.333 4.5 -33 13.5s-13 19.833 -13 32.5z" />
    <glyph glyph-name="slash" unicode="/" horiz-adv-x="581" 
d="M126 -18l-71 36l400 800l71 -36z" />
    <glyph glyph-name="zero" unicode="0" horiz-adv-x="500" 
d="M60 184v432c0 52.667 18.5 97.5 55.5 134.5s81.833 55.5 134.5 55.5s97.5 -18.5 134.5 -55.5s55.5 -81.833 55.5 -134.5v-432c0 -52.667 -18.5 -97.5 -55.5 -134.5s-81.833 -55.5 -134.5 -55.5c-53.333 0 -98.333 18.333 -135 55s-55 81.667 -55 135zM140 179
c0 -30.667 10.667 -56.667 32 -78s47.333 -32 78 -32c30 0 55.833 10.667 77.5 32s32.5 47.333 32.5 78v442c0 30 -10.833 55.833 -32.5 77.5s-47.5 32.5 -77.5 32.5c-30.667 0 -56.667 -10.833 -78 -32.5s-32 -47.5 -32 -77.5v-442z" />
    <glyph glyph-name="one" unicode="1" horiz-adv-x="315" 
d="M165 0v725h-125v75h205v-800h-80z" />
    <glyph glyph-name="two" unicode="2" horiz-adv-x="500" 
d="M60 0v75.001l285 481c10 18 15 36.333 15 55v10c0 30 -10.667 55.833 -32 77.5s-47.333 32.5 -78 32.5s-56.667 -10.833 -78 -32.5s-32 -47.5 -32 -77.5v-41h-80v36c0 52.667 18.5 97.5 55.5 134.5s81.833 55.5 134.5 55.5s97.5 -18.5 134.5 -55.5
s55.5 -81.833 55.5 -134.5c0 -38.667 -10.667 -73.334 -32 -104.001l-259 -437h291v-75h-380z" />
    <glyph glyph-name="three" unicode="3" horiz-adv-x="500" 
d="M66 725v75h358v-75l-177 -165h3c52.667 0 97.5 -18.5 134.5 -55.5s55.5 -81.833 55.5 -134.5v-186c0 -52.667 -18.5 -97.5 -55.5 -134.5s-81.833 -55.5 -134.5 -55.5s-97.5 18.5 -134.5 55.5s-55.5 81.833 -55.5 134.5v36h80v-41c0 -30.667 10.667 -56.667 32 -78
s47.333 -32 78 -32s56.667 10.667 78 32s32 47.333 32 78v196c0 30 -10.667 55.833 -32 77.5s-47.333 32.5 -78 32.5h-113v75l178 165h-249z" />
    <glyph glyph-name="four" unicode="4" horiz-adv-x="485" 
d="M60 235v75l285 490h80v-800h-80v235h-285zM153 310h192v330z" />
    <glyph glyph-name="five" unicode="5" horiz-adv-x="500" 
d="M360 179v196c0 30 -10.667 55.833 -32 77.5s-47.333 32.5 -78 32.5h-184v315h358v-75h-278v-165h104c52.667 0 97.5 -18.5 134.5 -55.5s55.5 -81.833 55.5 -134.5v-186c0 -52.667 -18.5 -97.5 -55.5 -134.5s-81.833 -55.5 -134.5 -55.5s-97.5 18.5 -134.5 55.5
s-55.5 81.833 -55.5 134.5v36h80v-41c0 -30.667 10.667 -56.667 32 -78s47.333 -32 78 -32s56.667 10.667 78 32s32 47.333 32 78z" />
    <glyph glyph-name="six" unicode="6" horiz-adv-x="500" 
d="M250 556c52.667 0 97.499 -18.5 134.499 -55.5s55.5 -81.833 55.5 -134.5v-182c0 -52.667 -18.5 -97.5 -55.5 -134.5s-81.833 -55.5 -134.5 -55.5c-53.333 0 -98.333 18.333 -135 55s-55 81.667 -55 135v432c0 52.667 18.5 97.5 55.5 134.5s81.833 55.5 134.5 55.5
s97.5 -18.5 134.5 -55.5s55.5 -81.833 55.5 -134.5v-26h-80v31c0 30 -10.833 55.833 -32.5 77.5s-47.5 32.5 -77.5 32.5c-30.667 0 -56.667 -10.833 -78 -32.5s-32 -47.5 -32 -77.5v-100c32.667 23.333 69.334 35 110.001 35zM139.999 179c0 -30.667 10.667 -56.667 32 -78
s47.333 -32 78 -32c30 0 55.833 10.667 77.5 32s32.5 47.333 32.5 78v192c0 30 -10.833 55.833 -32.5 77.5s-47.5 32.5 -77.5 32.5c-30.667 0 -56.667 -10.833 -78 -32.5s-32 -47.5 -32 -77.5v-192z" />
    <glyph glyph-name="seven" unicode="7" horiz-adv-x="450" 
d="M20 725v75h360v-75l-178 -725h-82l177 725h-277z" />
    <glyph glyph-name="eight" unicode="8" horiz-adv-x="484" 
d="M242 -6c-52.667 0 -97.499 18.501 -134.499 55.501s-55.5 81.833 -55.5 134.5c0 54 20.333 99.667 61 137l75 82l-68 75c-42 36.667 -63 82.667 -63 138c0 52.667 18 97.5 54 134.5s79.667 55.5 131 55.5s94.833 -18.5 130.5 -55.5s53.5 -81.833 53.5 -134.5
c0 -56 -20.667 -102 -62 -138l-69 -75l75 -82c40.667 -36.667 61 -82.334 61 -137.001c0 -52.667 -18.333 -97.5 -55 -134.5s-81.334 -55.5 -134.001 -55.5zM242.001 69.001c30.667 0 56.5 10.667 77.5 32s31.5 47.333 31.5 78v5c0 28 -9.66699 52.333 -29 73l-81 88
l-80 -88c-19.333 -20.667 -29 -45 -29 -73v-5c0 -30.667 10.667 -56.667 32 -78s47.333 -32 78 -32zM137.001 616.001c-0.666992 -26 9.66602 -51 30.999 -75l74 -81l74 81c20.667 23.333 30.667 48.333 30 75v5c0 30 -10.167 55.833 -30.5 77.5s-44.833 32.5 -73.5 32.5
c-29.333 0 -54.166 -10.833 -74.499 -32.5s-30.5 -47.5 -30.5 -77.5v-5z" />
    <glyph glyph-name="nine" unicode="9" horiz-adv-x="500" 
d="M60 434l0.000976562 182c0 52.667 18.5 97.5 55.5 134.5s81.833 55.5 134.5 55.5s97.5 -18.5 134.5 -55.5s55.5 -81.833 55.5 -134.5v-432c0 -52.667 -18.5 -97.5 -55.5 -134.5s-81.833 -55.5 -134.5 -55.5s-97.5 18.5 -134.5 55.5s-55.5 81.833 -55.5 134.5v26h80v-31
c0 -30.667 10.667 -56.667 32 -78s47.333 -32 78 -32s56.667 10.667 78 32s32 47.333 32 78v100c-32.667 -23.333 -69.334 -35 -110.001 -35c-52.667 0 -97.5 18.5 -134.5 55.5s-55.5 81.833 -55.5 134.5zM360.001 621c0 30.667 -10.665 56.668 -31.998 78.001
s-47.333 32 -78 32s-56.667 -10.667 -78 -32s-32 -47.333 -32 -78v-192c0 -30.667 10.667 -56.667 32 -78s47.333 -32 78 -32c29.333 0 54.666 10.167 75.999 30.5s32.666 45.166 33.999 74.499v197z" />
    <glyph glyph-name="colon" unicode=":" horiz-adv-x="215" 
d="M54 141c0 12.667 4.5 23.5 13.5 32.5s19.833 13.5 32.5 13.5s23.5 -4.5 32.5 -13.5s13.5 -19.833 13.5 -32.5s-4.5 -23.5 -13.5 -32.5s-19.833 -13.5 -32.5 -13.5c-13.333 0 -24.333 4.5 -33 13.5s-13 19.833 -13 32.5zM54 561c0 12.667 4.5 23.5 13.5 32.5
s19.833 13.5 32.5 13.5s23.5 -4.5 32.5 -13.5s13.5 -19.833 13.5 -32.5s-4.5 -23.5 -13.5 -32.5s-19.833 -13.5 -32.5 -13.5c-13.333 0 -24.333 4.5 -33 13.5s-13 19.833 -13 32.5z" />
    <glyph glyph-name="semicolon" unicode=";" horiz-adv-x="215" 
d="M60 180h80v-60c0 -14.667 -2 -31 -6 -49s-8 -32.333 -12 -43l-7 -16h-55v168zM54 561c0 12.667 4.5 23.5 13.5 32.5s19.833 13.5 32.5 13.5s23.5 -4.5 32.5 -13.5s13.5 -19.833 13.5 -32.5s-4.5 -23.5 -13.5 -32.5s-19.833 -13.5 -32.5 -13.5
c-13.333 0 -24.333 4.5 -33 13.5s-13 19.833 -13 32.5z" />
    <glyph glyph-name="less" unicode="&#x3c;" horiz-adv-x="356" 
d="M244 706l67 -44l-175 -262l175 -263l-67 -44l-204 307z" />
    <glyph glyph-name="equal" unicode="=" horiz-adv-x="460" 
d="M30 240v75h400v-75h-400zM30 435v75h400v-75h-400z" />
    <glyph glyph-name="greater" unicode="&#x3e;" horiz-adv-x="356" 
d="M40 662l67 44l204 -306l-204 -307l-67 44l175 263z" />
    <glyph glyph-name="question" unicode="?" 
d="M140 520l-79.998 0.000976562v47c0 38.667 13.667 71.667 41 99s60.333 41 99 41s71.667 -13.667 99 -41s41 -60.333 41 -99v-30c0 -19.333 -4.5 -40.333 -13.5 -63s-19.833 -41 -32.5 -55l-38 -63c-10.667 -16.667 -16 -35.334 -16 -56.001v-5l-10 -45h-60
c-6.66699 23.333 -10 38.333 -10 45v5c0 28.667 8.33301 57 25 85l50 80c16.667 25.333 25 49.333 25 72v35c0 16.667 -5.83301 30.834 -17.5 42.501s-25.834 17.5 -42.501 17.5s-30.834 -5.83301 -42.501 -17.5s-17.5 -25.834 -17.5 -42.501v-52zM154.002 141.001
c0 12.667 4.5 23.5 13.5 32.5s19.833 13.5 32.5 13.5s23.5 -4.5 32.5 -13.5s13.5 -19.833 13.5 -32.5s-4.5 -23.5 -13.5 -32.5s-19.833 -13.5 -32.5 -13.5c-13.333 0 -24.333 4.5 -33 13.5s-13 19.833 -13 32.5z" />
    <glyph glyph-name="at" unicode="@" horiz-adv-x="800" 
d="M260 334l-0.000976562 131.999c0 38.667 13.667 71.667 41 99s60.333 41 99 41s71.667 -13.667 99 -41s41 -60.333 41 -99v-137c1.33301 -15.333 7.66602 -28.333 18.999 -39s25 -16 41 -16c16.667 0 30.834 5.83301 42.501 17.5s17.5 25.834 17.5 42.501v137
c0 71.333 -25.5 132.5 -76.5 183.5s-112.167 76.5 -183.5 76.5c-72 0 -133.333 -25.5 -184 -76.5s-76 -112.167 -76 -183.5v-136c0 -72 25.333 -133.333 76 -184s112 -76 184 -76h175v-75h-175c-94.667 0 -175 33 -241 99s-99 146.333 -99 241v126c0 94 33 174.167 99 240.5
s146.333 99.5 241 99.5c94 0 174.167 -33.167 240.5 -99.5s99.5 -146.5 99.5 -240.5v-132c0 -38.667 -13.667 -71.667 -41 -99s-60.333 -41 -99 -41c-40 0 -73.333 14 -100 42c-29.333 -28 -62.666 -42 -99.999 -42c-38.667 0 -71.667 13.667 -99 41s-41 60.333 -41 99z
M339.999 328.999c0 -16.667 5.83398 -30.833 17.501 -42.5s25.834 -17.5 42.501 -17.5s30.667 5.66699 42 17s17.333 25.333 18 42v143c0 16.667 -5.83301 30.834 -17.5 42.501s-25.834 17.5 -42.501 17.5s-30.834 -5.83301 -42.501 -17.5s-17.5 -25.834 -17.5 -42.501v-142
z" />
    <glyph glyph-name="A" unicode="A" horiz-adv-x="502" 
d="M290 800l173 -800h-81l-29 135h-205l-28 -135h-81l171 800h80zM250 624l-87 -414h174z" />
    <glyph glyph-name="B" unicode="B" horiz-adv-x="500" 
d="M60 0v800h190c52.667 0 97.5 -18.5 134.5 -55.5s55.5 -81.833 55.5 -134.5v-115c0 -64 -25.667 -115 -77 -153c51.333 -37.333 77 -88 77 -152c0 -52.667 -18.5 -97.5 -55.5 -134.5s-81.833 -55.5 -134.5 -55.5h-190zM140 725v-345h114
c29.333 1.33301 54.333 12.5 75 33.5s31 46.5 31 76.5v125c0 30 -10.833 55.833 -32.5 77.5s-47.5 32.5 -77.5 32.5h-110zM140 305v-230h110c30 0 55.833 10.667 77.5 32s32.5 47.333 32.5 78v10c0 30 -10.833 55.833 -32.5 77.5s-47.5 32.5 -77.5 32.5h-110z" />
    <glyph glyph-name="C" unicode="C" horiz-adv-x="500" 
d="M140 179c0 -30.667 10.667 -56.667 32 -78s47.333 -32 78 -32c30 0 55.833 10.667 77.5 32s32.5 47.333 32.5 78v41h80v-36c0 -52.667 -18.5 -97.5 -55.5 -134.5s-81.833 -55.5 -134.5 -55.5c-53.333 0 -98.333 18.333 -135 55s-55 81.667 -55 135v432
c0 52.667 18.5 97.5 55.5 134.5s81.833 55.5 134.5 55.5s97.5 -18.5 134.5 -55.5s55.5 -81.833 55.5 -134.5v-36h-80v41c0 30 -10.833 55.833 -32.5 77.5s-47.5 32.5 -77.5 32.5c-30.667 0 -56.667 -10.833 -78 -32.5s-32 -47.5 -32 -77.5v-442z" />
    <glyph glyph-name="D" unicode="D" horiz-adv-x="500" 
d="M60 0v800h190c52.667 0 97.5 -18.5 134.5 -55.5s55.5 -81.833 55.5 -134.5v-420c0 -52.667 -18.5 -97.5 -55.5 -134.5s-81.833 -55.5 -134.5 -55.5h-190zM140 725v-650h110c30 0 55.833 10.667 77.5 32s32.5 47.333 32.5 78v430c0 30 -10.833 55.833 -32.5 77.5
s-47.5 32.5 -77.5 32.5h-110z" />
    <glyph glyph-name="E" unicode="E" horiz-adv-x="420" 
d="M60 0v800h310v-75h-230v-413h180v-75h-180v-162h230v-75h-310z" />
    <glyph glyph-name="F" unicode="F" horiz-adv-x="415" 
d="M60 0v800h330v-75h-250v-388h200v-75h-200v-262h-80z" />
    <glyph glyph-name="G" unicode="G" horiz-adv-x="500" 
d="M140 179c0 -30.667 10.667 -56.667 32 -78s47.333 -32 78 -32c30 0 55.833 10.667 77.5 32s32.5 47.333 32.5 78v58h-110v75h190v-128c0 -52.667 -18.5 -97.5 -55.5 -134.5s-81.833 -55.5 -134.5 -55.5c-53.333 0 -98.333 18.333 -135 55s-55 81.667 -55 135v432
c0 52.667 18.5 97.5 55.5 134.5s81.833 55.5 134.5 55.5s97.5 -18.5 134.5 -55.5s55.5 -81.833 55.5 -134.5v-36h-80v41c0 30 -10.833 55.833 -32.5 77.5s-47.5 32.5 -77.5 32.5c-30.667 0 -56.667 -10.833 -78 -32.5s-32 -47.5 -32 -77.5v-442z" />
    <glyph glyph-name="H" unicode="H" horiz-adv-x="500" 
d="M360 0v237h-220v-237h-80v800h80v-488h220v488h80v-800h-80z" />
    <glyph glyph-name="I" unicode="I" horiz-adv-x="215" 
d="M67 0v800h80v-800h-80z" />
    <glyph glyph-name="J" unicode="J" horiz-adv-x="200" 
d="M-55 -250l-0.000976562 74.999h55c16.667 0 30.834 5.83301 42.501 17.5s17.5 25.834 17.5 42.501v915h80v-910c0 -38.667 -13.667 -71.667 -41 -99s-60.333 -41 -99 -41h-55z" />
    <glyph glyph-name="K" unicode="K" horiz-adv-x="500" 
d="M60 0v800h80v-395l211 395h90l-176 -329l181 -471h-86l-145 378l-75 -141v-237h-80z" />
    <glyph glyph-name="L" unicode="L" horiz-adv-x="415" 
d="M60 0v800h80v-725h230v-75h-310z" />
    <glyph glyph-name="M" unicode="M" horiz-adv-x="550" 
d="M490 800v-800h-80v643l-95 -161h-80l-95 160v-642h-80v800h80l135 -227l135 227h80z" />
    <glyph glyph-name="N" unicode="N" horiz-adv-x="525" 
d="M385 0l-245 590v-590h-80v800h80l245 -590v590h80v-800h-80z" />
    <glyph glyph-name="O" unicode="O" horiz-adv-x="500" 
d="M60 184v432c0 52.667 18.5 97.5 55.5 134.5s81.833 55.5 134.5 55.5s97.5 -18.5 134.5 -55.5s55.5 -81.833 55.5 -134.5v-432c0 -52.667 -18.5 -97.5 -55.5 -134.5s-81.833 -55.5 -134.5 -55.5c-53.333 0 -98.333 18.333 -135 55s-55 81.667 -55 135zM140 179
c0 -30.667 10.667 -56.667 32 -78s47.333 -32 78 -32c30 0 55.833 10.667 77.5 32s32.5 47.333 32.5 78v442c0 30 -10.833 55.833 -32.5 77.5s-47.5 32.5 -77.5 32.5c-30.667 0 -56.667 -10.833 -78 -32.5s-32 -47.5 -32 -77.5v-442z" />
    <glyph glyph-name="P" unicode="P" horiz-adv-x="500" 
d="M60 0v800h190c52.667 0 97.5 -18.5 134.5 -55.5s55.5 -81.833 55.5 -134.5v-183c0 -52.667 -18.5 -97.5 -55.5 -134.5s-81.833 -55.5 -134.5 -55.5h-110v-237h-80zM140 725v-413h110c30 0 55.833 10.667 77.5 32s32.5 47.333 32.5 78v193c0 30 -10.833 55.833 -32.5 77.5
s-47.5 32.5 -77.5 32.5h-110z" />
    <glyph glyph-name="Q" unicode="Q" horiz-adv-x="500" 
d="M210 -150l-0.000976562 149.001c-44 8.66699 -80 30.167 -108 64.5s-42 74.5 -42 120.5v432c0 52.667 18.5 97.5 55.5 134.5s81.833 55.5 134.5 55.5s97.5 -18.5 134.5 -55.5s55.5 -81.833 55.5 -134.5v-432c0 -45.333 -14.167 -85.333 -42.5 -120
s-64.166 -56.334 -107.499 -65.001v-149h-80zM139.999 179.001c0 -30.667 10.667 -56.667 32 -78s47.333 -32 78 -32c30 0 55.833 10.667 77.5 32s32.5 47.333 32.5 78v442c0 30 -10.833 55.833 -32.5 77.5s-47.5 32.5 -77.5 32.5c-30.667 0 -56.667 -10.833 -78 -32.5
s-32 -47.5 -32 -77.5v-442z" />
    <glyph glyph-name="R" unicode="R" horiz-adv-x="500" 
d="M140 0l-80 0.00195312v800h190c52.667 0 97.5 -18.5 134.5 -55.5s55.5 -81.833 55.5 -134.5v-183c0 -64 -25.667 -115 -77 -153c51.333 -37.333 77 -88 77 -152v-122h-80v127c0 29.333 -10.333 54.666 -31 75.999s-45.667 32.666 -75 33.999h-114v-237zM140 725.002v-413
h114c29.333 1.33301 54.333 12.5 75 33.5s31 46.5 31 76.5v193c0 30 -10.833 55.833 -32.5 77.5s-47.5 32.5 -77.5 32.5h-110z" />
    <glyph glyph-name="S" unicode="S" horiz-adv-x="490" 
d="M55 220h80v-41c0 -30.667 10.667 -56.667 32 -78s47.333 -32 78 -32s56.667 10.667 78 32s32 47.333 32 78v5c0 28 -9.66699 52.333 -29 73l-203 221c-41.333 36 -62 82 -62 138c0 52.667 17.833 97.5 53.5 134.5s79.167 55.5 130.5 55.5c50.667 0 94 -18.5 130 -55.5
s54 -81.833 54 -134.5v-36h-80v41c0 30 -10.167 55.833 -30.5 77.5s-44.833 32.5 -73.5 32.5c-29.333 0 -54 -10.833 -74 -32.5s-30 -47.5 -30 -77.5v-5c-0.666992 -26.667 9.33301 -51.667 30 -75l203 -220c40.667 -37.333 61 -83 61 -137
c0 -52.667 -18.5 -97.5 -55.5 -134.5s-81.833 -55.5 -134.5 -55.5s-97.5 18.5 -134.5 55.5s-55.5 81.833 -55.5 134.5v36z" />
    <glyph glyph-name="T" unicode="T" horiz-adv-x="410" 
d="M30 725v75h350v-75h-136v-725h-80v725h-134z" />
    <glyph glyph-name="U" unicode="U" horiz-adv-x="500" 
d="M140 179c0 -30.667 10.667 -56.667 32 -78s47.333 -32 78 -32c30 0 55.833 10.667 77.5 32s32.5 47.333 32.5 78v621h80v-616c0 -52.667 -18.5 -97.5 -55.5 -134.5s-81.833 -55.5 -134.5 -55.5c-53.333 0 -98.333 18.333 -135 55s-55 81.667 -55 135v616h80v-621z" />
    <glyph glyph-name="V" unicode="V" horiz-adv-x="482" 
d="M201 0l-162 800h81l121 -590l121 590h81l-162 -800h-80z" />
    <glyph glyph-name="W" unicode="W" horiz-adv-x="550" 
d="M60 0v800h80v-643l95 160h80l95 -161v644h80v-800h-80l-135 227l-135 -227h-80z" />
    <glyph glyph-name="X" unicode="X" horiz-adv-x="477" 
d="M428 800l-145 -398l151 -402h-85l-113 299l-108 -299h-86l151 412l-145 388h86l106 -284l103 284h85z" />
    <glyph glyph-name="Y" unicode="Y" horiz-adv-x="470" 
d="M195 0v237l-156 563h83l113 -421l113 421h83l-156 -563v-237h-80z" />
    <glyph glyph-name="Z" unicode="Z" horiz-adv-x="490" 
d="M66 725v75h358v-75l-277 -650h283v-75h-370v75l277 650h-271z" />
    <glyph glyph-name="bracketleft" unicode="[" horiz-adv-x="325" 
d="M140 775v-750h125v-75h-205v900h205v-75h-125z" />
    <glyph glyph-name="backslash" unicode="\" horiz-adv-x="581" 
d="M526 18l-71 -36l-400 800l71 36z" />
    <glyph glyph-name="bracketright" unicode="]" horiz-adv-x="325" 
d="M185 25v750h-125v75h205v-900h-205v75h125z" />
    <glyph glyph-name="underscore" unicode="_" horiz-adv-x="500" 
d="M30 -70v70h440v-70h-440z" />
    <glyph glyph-name="grave" unicode="`" horiz-adv-x="250" 
d="M221 825l-19 -57l-172 52l22 67z" />
    <glyph glyph-name="a" unicode="a" horiz-adv-x="391" 
d="M235 700l117 -600h-75l-22 115h-119l-22 -115h-75l116 600h80zM195 527l-45 -237h90z" />
    <glyph glyph-name="b" unicode="b" 
d="M60 100v600h140c38.667 0 71.667 -13.667 99 -41s41 -60.333 41 -99v-115c0 -40 -15 -74.333 -45 -103c30 -28 45 -62 45 -102c0 -38.667 -13.667 -71.667 -41 -99s-60.333 -41 -99 -41h-140zM140 625l0.000976562 -245h65c15.333 1.33301 28.333 7.66602 39 18.999
s16 25 16 41v125c0 16.667 -5.83301 30.834 -17.5 42.501s-25.834 17.5 -42.501 17.5h-60zM140.001 305v-130.002h60c16.667 0 30.834 5.83301 42.501 17.5s17.5 25.834 17.5 42.501v10c0 16.667 -5.83301 30.834 -17.5 42.501s-25.834 17.5 -42.501 17.5h-60z" />
    <glyph glyph-name="c" unicode="c" 
d="M140 229c0 -16.667 5.83301 -30.834 17.5 -42.501s25.834 -17.5 42.501 -17.5s30.834 5.83301 42.501 17.5s17.5 25.834 17.5 42.501v58h80v-53c0 -38.667 -13.667 -71.667 -41 -99s-60.333 -41 -99 -41s-71.667 13.667 -99 41s-41 60.333 -41 99v332
c0 38.667 13.667 71.667 41 99s60.333 41 99 41s71.667 -13.667 99 -41s41 -60.333 41 -99v-54h-80v59c0 16.667 -5.83301 30.834 -17.5 42.501s-25.834 17.5 -42.501 17.5s-30.834 -5.83301 -42.501 -17.5s-17.5 -25.834 -17.5 -42.501v-342z" />
    <glyph glyph-name="d" unicode="d" 
d="M60 100v600h140c38.667 0 71.667 -13.667 99 -41s41 -60.333 41 -99v-320c0 -38.667 -13.667 -71.667 -41 -99s-60.333 -41 -99 -41h-140zM140 625v-450.002h60c16.667 0 30.834 5.83301 42.501 17.5s17.5 25.834 17.5 42.501v330c0 16.667 -5.83301 30.834 -17.5 42.501
s-25.834 17.5 -42.501 17.5h-60z" />
    <glyph glyph-name="e" unicode="e" horiz-adv-x="350" 
d="M60 100v600h240v-75h-160v-268h135v-75h-135v-107h160v-75h-240z" />
    <glyph glyph-name="f" unicode="f" horiz-adv-x="325" 
d="M60 100v600h240v-75h-160v-268h135v-75h-135v-182h-80z" />
    <glyph glyph-name="g" unicode="g" 
d="M140 229c0 -16.667 5.83301 -30.834 17.5 -42.501s25.834 -17.5 42.501 -17.5s30.834 5.83301 42.501 17.5s17.5 25.834 17.5 42.501v56h-60v75h140v-126c0 -38.667 -13.667 -71.667 -41 -99s-60.333 -41 -99 -41s-71.667 13.667 -99 41s-41 60.333 -41 99v332
c0 38.667 13.667 71.667 41 99s60.333 41 99 41s71.667 -13.667 99 -41s41 -60.333 41 -99v-54h-80v59c0 16.667 -5.83301 30.834 -17.5 42.501s-25.834 17.5 -42.501 17.5s-30.834 -5.83301 -42.501 -17.5s-17.5 -25.834 -17.5 -42.501v-342z" />
    <glyph glyph-name="h" unicode="h" 
d="M260 100v182h-120v-182h-80v600h80v-343h120v343h80v-600h-80z" />
    <glyph glyph-name="i" unicode="i" horiz-adv-x="215" 
d="M67 100v600h80v-600h-80z" />
    <glyph glyph-name="j" unicode="j" horiz-adv-x="200" 
d="M-30 -56l-0.000976562 74.999h30c16.667 0 30.834 5.83301 42.501 17.5s17.5 25.834 17.5 42.501v621h80v-616c0 -38.667 -13.667 -71.667 -41 -99s-60.333 -41 -99 -41h-30z" />
    <glyph glyph-name="k" unicode="k" 
d="M60 100v600h80v-243l118 243h88l-120 -247l120 -353h-84l-86 251l-36 -75v-176h-80z" />
    <glyph glyph-name="l" unicode="l" horiz-adv-x="315" 
d="M60 100v600h80v-525h135v-75h-215z" />
    <glyph glyph-name="m" unicode="m" horiz-adv-x="450" 
d="M310 100v429l-50 -94h-70l-50 93v-428h-80v600h80l85 -168l85 168h80v-600h-80z" />
    <glyph glyph-name="n" unicode="n" horiz-adv-x="425" 
d="M285 100l-145 388v-388h-80v600h80l145 -391v391h80v-600h-80z" />
    <glyph glyph-name="o" unicode="o" 
d="M60 234v332c0 38.667 13.667 71.667 41 99s60.333 41 99 41s71.667 -13.667 99 -41s41 -60.333 41 -99v-332c0 -38.667 -13.667 -71.667 -41 -99s-60.333 -41 -99 -41s-71.667 13.667 -99 41s-41 60.333 -41 99zM140 229c0 -16.667 5.83301 -30.834 17.5 -42.501
s25.834 -17.5 42.501 -17.5s30.834 5.83301 42.501 17.5s17.5 25.834 17.5 42.501v342c0 16.667 -5.83301 30.834 -17.5 42.501s-25.834 17.5 -42.501 17.5s-30.834 -5.83301 -42.501 -17.5s-17.5 -25.834 -17.5 -42.501v-342z" />
    <glyph glyph-name="p" unicode="p" 
d="M60 100v600h140c38.667 0 71.667 -13.667 99 -41s41 -60.333 41 -99v-138c0 -38.667 -13.667 -71.667 -41 -99s-60.333 -41 -99 -41h-60v-182h-80zM140 625v-268.002h60c16.667 0 30.834 5.83301 42.501 17.5s17.5 25.834 17.5 42.501v148
c0 16.667 -5.83301 30.834 -17.5 42.501s-25.834 17.5 -42.501 17.5h-60z" />
    <glyph glyph-name="q" unicode="q" 
d="M160 0v100c-29.333 8.66699 -53.333 25.334 -72 50.001s-28 52.667 -28 84v332c0 38.667 13.667 71.667 41 99s60.333 41 99 41s71.667 -13.667 99 -41s41 -60.333 41 -99v-332c0 -31.333 -9.5 -59.333 -28.5 -84s-42.833 -41.334 -71.5 -50.001v-100h-80zM140 229
c0 -16.667 5.83301 -30.834 17.5 -42.501s25.834 -17.5 42.501 -17.5s30.834 5.83301 42.501 17.5s17.5 25.834 17.5 42.501v342c0 16.667 -5.83301 30.834 -17.5 42.501s-25.834 17.5 -42.501 17.5s-30.834 -5.83301 -42.501 -17.5s-17.5 -25.834 -17.5 -42.501v-342z" />
    <glyph glyph-name="r" unicode="r" 
d="M60 100l0.000976562 599.999h140c38.667 0 71.667 -13.667 99 -41s41 -60.333 41 -99v-138c0 -40 -15 -74.333 -45 -103c30 -28 45 -62 45 -102v-117h-80v122c0 16.667 -5.83301 30.834 -17.5 42.501s-25.834 17.5 -42.501 17.5h-60v-182h-80zM140.001 624.999v-268.002
h60c16.667 0 30.834 5.83301 42.501 17.5s17.5 25.834 17.5 42.501v148c0 16.667 -5.83301 30.834 -17.5 42.501s-25.834 17.5 -42.501 17.5h-60z" />
    <glyph glyph-name="s" unicode="s" horiz-adv-x="390" 
d="M55 280l80 0.000976562v-51c0 -16.667 5.83301 -30.834 17.5 -42.501s25.834 -17.5 42.501 -17.5s30.834 5.83301 42.501 17.5s17.5 25.834 17.5 42.501v5c0 12 -3 22 -9 30l-156 211c-23.333 25.333 -35 55.666 -35 90.999c0 38.667 13.667 71.667 41 99
s60.333 41 99 41s71.667 -13.667 99 -41s41 -60.333 41 -99v-46h-80v51c0 16.667 -5.83301 30.834 -17.5 42.501s-25.834 17.5 -42.501 17.5s-30.834 -5.83301 -42.501 -17.5s-17.5 -25.834 -17.5 -42.501v-5c0 -12 3.33301 -23 10 -33l156 -211
c22.667 -26 34 -55.333 34 -88c0 -38.667 -13.667 -71.667 -41 -99s-60.333 -41 -99 -41s-71.667 13.667 -99 41s-41 60.333 -41 99v46z" />
    <glyph glyph-name="t" unicode="t" horiz-adv-x="310" 
d="M30 625v75h250v-75h-85v-525h-80v525h-85z" />
    <glyph glyph-name="u" unicode="u" 
d="M140 229c0 -16.667 5.83105 -30.834 17.498 -42.501s25.834 -17.5 42.501 -17.5s30.834 5.83301 42.501 17.5s17.5 25.834 17.5 42.501v471h80v-466c0 -38.667 -13.667 -71.667 -41 -99s-60.333 -41 -99 -41s-71.667 13.667 -99 41s-41 60.333 -41 99v466h80v-471z" />
    <glyph glyph-name="v" unicode="v" horiz-adv-x="391" 
d="M155 100l-116 600h75l81 -427l82 427h75l-117 -600h-80z" />
    <glyph glyph-name="w" unicode="w" horiz-adv-x="450" 
d="M140 700v-429l50 94h70l50 -95v430h80v-600h-80l-85 167l-85 -167h-80v600h80z" />
    <glyph glyph-name="x" unicode="x" horiz-adv-x="391" 
d="M338 700l-99 -306l99 -294h-84l-60 184l-57 -184h-85l99 304l-99 296h84l61 -185l57 185h84z" />
    <glyph glyph-name="y" unicode="y" horiz-adv-x="367" 
d="M143 100v182l-111 418h75l76 -291l76 291h75l-111 -418v-182h-80z" />
    <glyph glyph-name="z" unicode="z" 
d="M66 625v75h268v-75l-192 -450h198v-75h-280v75l191 450h-185z" />
    <glyph glyph-name="braceleft" unicode="{" horiz-adv-x="384" 
d="M324 850v-75h-123v-300c0 -28.667 -9.66699 -52.667 -29 -72l-4 -4l4 -3c8 -8 14.833 -18.833 20.5 -32.5s8.5 -26.5 8.5 -38.5v-300h123v-75h-138c-18 0 -33.333 6.16699 -46 18.5s-19 27.833 -19 46.5v310c0 5.33301 -2 10 -6 14l-60 61l60 60c4 5.33301 6 10.333 6 15
v310c0 18 6.16699 33.333 18.5 46s27.833 19 46.5 19h138z" />
    <glyph glyph-name="bar" unicode="|" horiz-adv-x="215" 
d="M67 -50v900h80v-900h-80z" />
    <glyph glyph-name="braceright" unicode="}" horiz-adv-x="384" 
d="M60 -50v75h123l-1 300c0 11.333 2.83301 24 8.5 38s12.5 25 20.5 33l3 3l-3 4c-19.333 20.667 -29 44.667 -29 72v300h-122v75h137c18.667 0 34.167 -6.33301 46.5 -19s18.5 -28 18.5 -46v-310c0 -5.33301 2.33301 -10.333 7 -15l60 -60l-60 -61
c-4.66699 -3.33301 -7 -8 -7 -14l1 -310c0 -18.667 -6.33301 -34.167 -19 -46.5s-28 -18.5 -46 -18.5h-138z" />
    <glyph glyph-name="nbspace" unicode="&#xa0;" horiz-adv-x="250" 
 />
    <glyph glyph-name="exclamdown" unicode="&#xa1;" horiz-adv-x="200" 
d="M54 659c0 12.667 4.5 23.5 13.5 32.5s19.833 13.5 32.5 13.5s23.5 -4.5 32.5 -13.5s13.5 -19.833 13.5 -32.5s-4.5 -23.5 -13.5 -32.5s-19.833 -13.5 -32.5 -13.5c-13.333 0 -24.333 4.5 -33 13.5s-13 19.833 -13 32.5zM60 100v225l12 225h55
c8.66699 -116.667 13 -191.667 13 -225v-225h-80z" />
    <glyph glyph-name="cent" unicode="&#xa2;" 
d="M162 25v74c-30 8 -54.5 24.5 -73.5 49.5s-28.5 53.5 -28.5 85.5v332c0 31.333 9.5 59.5 28.5 84.5s43.5 41.833 73.5 50.5v74h75v-74c30 -8.66699 54.667 -25.5 74 -50.5s29 -53.167 29 -84.5v-54h-80v59c0 16.667 -5.83301 30.834 -17.5 42.501
s-25.834 17.5 -42.501 17.5s-30.834 -5.83301 -42.501 -17.5s-17.5 -25.834 -17.5 -42.501v-342c0 -16.667 5.83301 -30.834 17.5 -42.501s25.834 -17.5 42.501 -17.5s30.834 5.83301 42.501 17.5s17.5 25.834 17.5 42.501v58h80v-53c0 -32 -9.5 -60.5 -28.5 -85.5
s-43.5 -41.5 -73.5 -49.5v-74h-76z" />
    <glyph glyph-name="sterling" unicode="&#xa3;" horiz-adv-x="401" 
d="M20 100l0.00195312 75h60v391c0 38.667 13.667 71.667 41 99s60.333 41 99 41s71.667 -13.667 99 -41s41 -60.333 41 -99v-54h-80v59c0 16.667 -5.83301 30.834 -17.5 42.501s-25.834 17.5 -42.501 17.5s-30.834 -5.83301 -42.501 -17.5s-17.5 -25.834 -17.5 -42.501
v-164h135v-75h-135v-157h206v-75h-346z" />
    <glyph glyph-name="currency" unicode="&#xa4;" horiz-adv-x="500" 
d="M440 108h-80c0 23.333 -8 44 -24 62s-35.333 27.333 -58 28h-57c-22 -0.666992 -41 -10 -57 -28s-24 -38.667 -24 -62h-80c0 52 20 94.333 60 127c-40 33.333 -60 76 -60 128v74c0 52 20 94.333 60 127c-40 33.333 -60 76 -60 128h80c0 -24 8.33301 -45 25 -63
s36.667 -27 60 -27h53c22.667 0.666992 42 10 58 28s24 38.667 24 62h80c0 -51.333 -20.333 -94 -61 -128c40.667 -32.667 61 -75 61 -127v-74c0 -51.333 -20.333 -94 -61 -128c40.667 -32.667 61 -75 61 -127zM140 442v-84c0 -23.333 8.33301 -43.333 25 -60
s36.667 -25 60 -25h50c23.333 0 43.333 8.33301 60 25s25 36.667 25 60v84c0 23.333 -8.33301 43.333 -25 60s-36.667 25 -60 25h-50c-23.333 0 -43.333 -8.33301 -60 -25s-25 -36.667 -25 -60z" />
    <glyph glyph-name="yen" unicode="&#xa5;" horiz-adv-x="387" 
d="M36 310v75h89l-83 315h75l76 -291l76 291h75l-84 -315h90v-75h-110l-7 -28v-50h117v-75h-117v-57h-80v57h-117v75h117v50l-8 28h-109z" />
    <glyph glyph-name="brokenbar" unicode="&#xa6;" horiz-adv-x="215" 
d="M67 -50v412h80v-412h-80zM147 850v-413h-80v413h80z" />
    <glyph glyph-name="section" unicode="&#xa7;" horiz-adv-x="415" 
d="M55 180l80 0.00292969v-51c0 -16.667 5.83301 -30.834 17.5 -42.501s25.834 -17.5 42.501 -17.5s30.834 5.83301 42.501 17.5s17.5 25.834 17.5 42.501v5c0 12 -3 22 -9 30l-156 211c-23.333 25.333 -35 55.666 -35 90.999c0 47.333 18.667 84.666 56 111.999
c-20.667 24.667 -31 54 -31 88c0 38.667 13.667 71.667 41 99s60.333 41 99 41s71.667 -13.667 99 -41s41 -60.333 41 -99v-46h-80v51c0 16.667 -5.83301 30.834 -17.5 42.501s-25.834 17.5 -42.501 17.5s-30.834 -5.83301 -42.501 -17.5s-17.5 -25.834 -17.5 -42.501v-5
c0 -12 3.33301 -23 10 -33l156 -211c22.667 -26 34 -55.333 34 -88c0 -46.667 -19.333 -84.334 -58 -113.001c22 -26.667 33 -55.667 33 -87c0 -38.667 -13.667 -71.667 -41 -99s-60.333 -41 -99 -41s-71.667 13.667 -99 41s-41 60.333 -41 99v46zM135 466.003
c0 -12 3.33301 -23 10 -33l112 -152c15.333 12 23 28 23 48v5c0 12 -3 22 -9 30l-114 153c-14.667 -12.667 -22 -28 -22 -46v-5z" />
    <glyph glyph-name="dieresis" unicode="&#xa8;" 
d="M84 825c0 11.333 4 21 12 29s17.667 12 29 12s21 -4 29 -12s12 -17.667 12 -29s-4 -21 -12 -29s-17.667 -12 -29 -12s-21 4 -29 12s-12 17.667 -12 29zM234 825c0 11.333 4 21 12 29s17.667 12 29 12s21 -4 29 -12s12 -17.667 12 -29s-4 -21 -12 -29s-17.667 -12 -29 -12
s-21 4 -29 12s-12 17.667 -12 29z" />
    <glyph glyph-name="copyright" unicode="&#xa9;" horiz-adv-x="800" 
d="M60 334v132c0 94 33 174.167 99 240.5s146.333 99.5 241 99.5c94 0 174.167 -33.167 240.5 -99.5s99.5 -146.5 99.5 -240.5v-132c0 -94.667 -33.167 -175 -99.5 -241s-146.5 -99 -240.5 -99c-94.667 0 -175 33 -241 99s-99 146.333 -99 241zM140 329
c0 -72 25.333 -133.333 76 -184s112 -76 184 -76c71.333 0 132.5 25.333 183.5 76s76.5 112 76.5 184v142c0 71.333 -25.5 132.5 -76.5 183.5s-112.167 76.5 -183.5 76.5c-72 0 -133.333 -25.5 -184 -76.5s-76 -112.167 -76 -183.5v-142zM340 329
c0 -16.667 5.83301 -30.834 17.5 -42.501s25.834 -17.5 42.501 -17.5s30.834 5.83301 42.501 17.5s17.5 25.834 17.5 42.501v21h80v-16c0 -38.667 -13.667 -71.667 -41 -99s-60.333 -41 -99 -41s-71.667 13.667 -99 41s-41 60.333 -41 99v132c0 38.667 13.667 71.667 41 99
s60.333 41 99 41s71.667 -13.667 99 -41s41 -60.333 41 -99v-16h-80v21c0 16.667 -5.83301 30.834 -17.5 42.501s-25.834 17.5 -42.501 17.5s-30.834 -5.83301 -42.501 -17.5s-17.5 -25.834 -17.5 -42.501v-142z" />
    <glyph glyph-name="ordfeminine" unicode="&#xaa;" 
d="M260 435v4c-19.333 -8.66699 -39.333 -13 -60 -13c-38.667 0 -71.667 13.667 -99 41s-41 60.333 -41 99s13.667 71.667 41 99s60.333 41 99 41c21.333 0 41.333 -4.66699 60 -14v8h80v-265h-80zM140 561c0 -16.667 5.83398 -30.833 17.501 -42.5
s25.834 -17.5 42.501 -17.5c15.333 0 28.833 5.33301 40.5 16s18.167 23.667 19.5 39v15c0 16.667 -5.83301 30.834 -17.5 42.501s-25.834 17.5 -42.501 17.5s-30.834 -5.83301 -42.501 -17.5s-17.5 -25.834 -17.5 -42.501v-10z" />
    <glyph glyph-name="guillemotleft" unicode="&#xab;" horiz-adv-x="576" 
d="M244 706l67 -44l-175 -262l175 -263l-67 -44l-204 307zM464 706l67 -44l-175 -262l175 -263l-67 -44l-204 307z" />
    <glyph glyph-name="logicalnot" unicode="&#xac;" horiz-adv-x="490" 
d="M30 340v75h400v-215h-80v140h-320z" />
    <glyph glyph-name="registered" unicode="&#xae;" horiz-adv-x="800" 
d="M60 334v132c0 94 33 174.167 99 240.5s146.333 99.5 241 99.5c94 0 174.167 -33.167 240.5 -99.5s99.5 -146.5 99.5 -240.5v-132c0 -94.667 -33.167 -175 -99.5 -241s-146.5 -99 -240.5 -99c-94.667 0 -175 33 -241 99s-99 146.333 -99 241zM140 329
c0 -72 25.333 -133.333 76 -184s112 -76 184 -76c71.333 0 132.5 25.333 183.5 76s76.5 112 76.5 184v142c0 71.333 -25.5 132.5 -76.5 183.5s-112.167 76.5 -183.5 76.5c-72 0 -133.333 -25.5 -184 -76.5s-76 -112.167 -76 -183.5v-142zM260 200l0.000976562 399.999h140
c38.667 0 71.667 -13.667 99 -41s41 -60.333 41 -99v-38c0 -40 -15 -74.333 -45 -103c30 -28 45 -62 45 -102v-17h-80v22c0 16.667 -5.83301 30.834 -17.5 42.501s-25.834 17.5 -42.501 17.5h-60v-82h-80zM340.001 524.999l0.000976562 -168h65
c15.333 1.33301 28.333 7.66602 39 18.999s16 25 16 41v48c0 16.667 -5.83301 30.834 -17.5 42.501s-25.834 17.5 -42.501 17.5h-60z" />
    <glyph glyph-name="macron" unicode="&#xaf;" horiz-adv-x="200" 
d="M-18 790v65h235v-65h-235z" />
    <glyph glyph-name="degree" unicode="&#xb0;" 
d="M60 566c0 38.667 13.667 71.667 41 99s60.333 41 99 41s71.667 -13.667 99 -41s41 -60.333 41 -99s-13.667 -71.667 -41 -99s-60.333 -41 -99 -41s-71.667 13.667 -99 41s-41 60.333 -41 99zM140 561c0 -16.667 5.83301 -30.834 17.5 -42.501s25.834 -17.5 42.501 -17.5
s30.834 5.83301 42.501 17.5s17.5 25.834 17.5 42.501v10c0 16.667 -5.83301 30.834 -17.5 42.501s-25.834 17.5 -42.501 17.5s-30.834 -5.83301 -42.501 -17.5s-17.5 -25.834 -17.5 -42.501v-10z" />
    <glyph glyph-name="plusminus" unicode="&#xb1;" horiz-adv-x="510" 
d="M42 440v75h173v172h80v-172h172v-75h-172v-178h-80v178h-173zM42 90v75h425v-75h-425z" />
    <glyph glyph-name="acute" unicode="&#xb4;" horiz-adv-x="250" 
d="M49 768l-19 57l169 62l22 -67z" />
    <glyph glyph-name="mu" unicode="&#xb5;" horiz-adv-x="450" 
d="M310 100v429l-50 -94h-70l-50 93v-428h-80v600h80l85 -168l85 168h80v-600h-80z" />
    <glyph glyph-name="paragraph" unicode="&#xb6;" horiz-adv-x="430" 
d="M400 700l-0.000976562 -75.001h-60v-400c0 -38.667 -13.667 -71.667 -41 -99s-60.333 -41 -99 -41h-30v75h30c16.667 0 30.834 5.83301 42.501 17.5s17.5 25.834 17.5 42.501v62h-60c-38.667 0 -71.667 13.667 -99 41s-41 60.333 -41 99v138
c0 38.667 13.667 71.667 41 99s60.333 41 99 41h200z" />
    <glyph glyph-name="periodcentered" unicode="&#xb7;" horiz-adv-x="215" 
d="M54 300c0 12.667 4.5 23.5 13.5 32.5s19.833 13.5 32.5 13.5s23.5 -4.5 32.5 -13.5s13.5 -19.833 13.5 -32.5s-4.5 -23.5 -13.5 -32.5s-19.833 -13.5 -32.5 -13.5c-13.333 0 -24.333 4.33301 -33 13s-13 19.667 -13 33z" />
    <glyph glyph-name="cedilla" unicode="&#xb8;" horiz-adv-x="525" 
d="M215 0l54.999 -0.000976562l-15 -29h29c18.667 0 33.167 -6.66699 43.5 -20s15.5 -30.333 15.5 -51c0 -22.667 -9.83301 -43 -29.5 -61s-47.5 -27 -83.5 -27c-18.667 0 -36 4 -52 12s-27.333 16 -34 24l-10 12l17 29c23.333 -24.667 49.666 -37 78.999 -37
c14.667 0 25.834 4.83301 33.501 14.5s11.5 20.834 11.5 33.501c0 9.33301 -3.16699 17.5 -9.5 24.5s-15.166 10.5 -26.499 10.5h-61z" />
    <glyph glyph-name="ordmasculine" unicode="&#xba;" 
d="M60 566c0 38.667 13.667 71.667 41 99s60.333 41 99 41s71.667 -13.667 99 -41s41 -60.333 41 -99s-13.667 -71.667 -41 -99s-60.333 -41 -99 -41s-71.667 13.667 -99 41s-41 60.333 -41 99zM140 561c0 -16.667 5.83301 -30.834 17.5 -42.501s25.834 -17.5 42.501 -17.5
s30.834 5.83301 42.501 17.5s17.5 25.834 17.5 42.501v10c0 16.667 -5.83301 30.834 -17.5 42.501s-25.834 17.5 -42.501 17.5s-30.834 -5.83301 -42.501 -17.5s-17.5 -25.834 -17.5 -42.501v-10z" />
    <glyph glyph-name="guillemotright" unicode="&#xbb;" horiz-adv-x="576" 
d="M260 662l67 44l204 -306l-204 -307l-67 44l175 263zM40 662l67 44l204 -306l-204 -307l-67 44l175 263z" />
    <glyph glyph-name="questiondown" unicode="&#xbf;" 
d="M260 282h79.998v-47c0 -38.667 -13.667 -71.667 -41 -99s-60.333 -41 -99 -41s-71.667 13.667 -99 41s-41 60.333 -41 99v30c0 18.667 4.33301 39.5 13 62.5s19.334 41.5 32.001 55.5l38 63c11.333 20 17 38.667 17 56v5l10 45h60c6.66699 -23.333 10 -38.333 10 -45v-5
c0 -19.333 -4.33301 -40.5 -13 -63.5s-19.334 -41.167 -32.001 -54.5l-39 -62c-10.667 -18 -16 -37 -16 -57v-35c0 -16.667 5.83301 -30.834 17.5 -42.501s25.834 -17.5 42.501 -17.5s30.834 5.83301 42.501 17.5s17.5 25.834 17.5 42.501v52zM245.998 661
c0 -12.667 -4.5 -23.5 -13.5 -32.5s-19.833 -13.5 -32.5 -13.5s-23.5 4.5 -32.5 13.5s-13.5 19.833 -13.5 32.5s4.33301 23.5 13 32.5s19.667 13.5 33 13.5c12.667 0 23.5 -4.5 32.5 -13.5s13.5 -19.833 13.5 -32.5z" />
    <glyph glyph-name="Agrave" unicode="&#xc0;" horiz-adv-x="502" 
d="M290 800l173 -800h-81l-29 135h-205l-28 -135h-81l171 800h80zM250 624l-87 -414h174zM302 925l-19 -57l-172 52l52 67z" />
    <glyph glyph-name="Aacute" unicode="&#xc1;" horiz-adv-x="502" 
d="M290 800l173 -800h-81l-29 135h-205l-28 -135h-81l171 800h80zM250 624l-87 -414h174zM218 868l-19 57l169 62l22 -67z" />
    <glyph glyph-name="Acircumflex" unicode="&#xc2;" horiz-adv-x="502" 
d="M290 800l173 -800h-81l-29 135h-205l-28 -135h-81l171 800h80zM250 624l-87 -414h174zM363 924l-47 -52l-66 64l-67 -64l-47 52l96 87h36z" />
    <glyph glyph-name="Atilde" unicode="&#xc3;" horiz-adv-x="502" 
d="M290 800l173 -800h-81l-29 135h-205l-28 -135h-81l171 800h80zM250 624l-87 -414h174zM146 889l-9 -5l-27 56l8 5c26.667 14.667 56 22 88 22c11.333 0 26.833 -4 46.5 -12s34.834 -12 45.501 -12c9.33301 0 18.666 1 27.999 3s16.333 4 21 6s7 3.33301 7 4l8 4l27 -56
l-8 -4c-26 -14.667 -54.333 -22 -85 -22c-12 0 -28.333 4 -49 12s-36 12 -46 12c-9.33301 0 -18.5 -1 -27.5 -3s-15.833 -4 -20.5 -6s-7 -3.33301 -7 -4z" />
    <glyph glyph-name="Adieresis" unicode="&#xc4;" horiz-adv-x="502" 
d="M290 800l173 -800h-81l-29 135h-205l-28 -135h-81l171 800h80zM250 624l-87 -414h174zM125 925c0 11.333 4 21 12 29s17.667 12 29 12c10.667 0 20.167 -4 28.5 -12s12.5 -17.667 12.5 -29s-4 -21 -12 -29s-17.667 -12 -29 -12s-21 4 -29 12s-12 17.667 -12 29zM295 925
c0 11.333 4 21 12 29s17.667 12 29 12c10.667 0 20.167 -4 28.5 -12s12.5 -17.667 12.5 -29s-4 -21 -12 -29s-17.667 -12 -29 -12s-21 4 -29 12s-12 17.667 -12 29z" />
    <glyph glyph-name="Aring" unicode="&#xc5;" horiz-adv-x="502" 
d="M290 800l173 -800h-81l-29 135h-205l-28 -135h-81l171 800h80zM141 925c0 30 10.667 55.833 32 77.5s47.333 32.5 78 32.5c30 0 55.833 -10.833 77.5 -32.5s32.5 -47.5 32.5 -77.5c0 -30.667 -10.833 -56.667 -32.5 -78s-47.5 -32 -77.5 -32
c-30.667 0 -56.667 10.667 -78 32s-32 47.333 -32 78zM250 624l-87 -414h174zM206 925c0 -12.667 4.33398 -23.334 13.001 -32.001s19.334 -13 32.001 -13c12 0 22.5 4.33301 31.5 13s13.5 19.334 13.5 32.001c0 12 -4.33301 22.5 -13 31.5s-19.334 13.5 -32.001 13.5
s-23.334 -4.5 -32.001 -13.5s-13 -19.5 -13 -31.5z" />
    <glyph glyph-name="AE" unicode="&#xc6;" horiz-adv-x="685" 
d="M325 0v135h-178l-37 -135h-81l221 800h385v-75h-230v-413h180v-75h-180v-162h230v-75h-310zM309 725l-142 -515h158v515h-16z" />
    <glyph glyph-name="Ccedilla" unicode="&#xc7;" horiz-adv-x="500" 
d="M140 179c0 -30.667 10.667 -56.6689 32 -78.002s47.333 -32 78 -32c30 0 55.833 10.667 77.5 32s32.5 47.333 32.5 78v41h80v-36c0 -50 -16.667 -93 -50 -129s-74.333 -56 -123 -60l-12 -24h29c18.667 0 33.167 -6.66699 43.5 -20s15.5 -30.333 15.5 -51
c0 -22.667 -9.83301 -43 -29.5 -61s-47.5 -27 -83.5 -27c-18.667 0 -36 4 -52 12s-27.333 16 -34 24l-10 12l17 29c23.333 -24.667 49.666 -37 78.999 -37c14.667 0 25.834 4.83301 33.501 14.5s11.5 20.834 11.5 33.501c0 9.33301 -3.16699 17.5 -9.5 24.5
s-15.166 10.5 -26.499 10.5h-61l35 63c-44.667 8 -81.334 29.333 -110.001 64s-43 75.334 -43 122.001v432c0 52.667 18.5 97.5 55.5 134.5s81.833 55.5 134.5 55.5s97.5 -18.5 134.5 -55.5s55.5 -81.833 55.5 -134.5v-36h-80v41c0 30 -10.833 55.833 -32.5 77.5
s-47.5 32.5 -77.5 32.5c-30.667 0 -56.667 -10.833 -78 -32.5s-32 -47.5 -32 -77.5v-442z" />
    <glyph glyph-name="Egrave" unicode="&#xc8;" horiz-adv-x="420" 
d="M60 0v800h310v-75h-230v-413h180v-75h-180v-162h230v-75h-310zM310 925l-19 -57l-172 52l22 67z" />
    <glyph glyph-name="Eacute" unicode="&#xc9;" horiz-adv-x="420" 
d="M60 0v800h310v-75h-230v-413h180v-75h-180v-162h230v-75h-310zM133 868l-19 57l169 62l22 -67z" />
    <glyph glyph-name="Ecircumflex" unicode="&#xca;" horiz-adv-x="420" 
d="M60 0v800h310v-75h-230v-413h180v-75h-180v-162h230v-75h-310zM330 924l-47 -52l-66 64l-67 -64l-47 52l96 87h36z" />
    <glyph glyph-name="Edieresis" unicode="&#xcb;" horiz-adv-x="420" 
d="M60 0v800h310v-75h-230v-413h180v-75h-180v-162h230v-75h-310zM89 925c0 11.333 4 21 12 29s17.667 12 29 12c10.667 0 20.167 -4 28.5 -12s12.5 -17.667 12.5 -29s-4 -21 -12 -29s-17.667 -12 -29 -12s-21 4 -29 12s-12 17.667 -12 29zM259 925c0 11.333 4 21 12 29
s17.667 12 29 12c10.667 0 20.167 -4 28.5 -12s12.5 -17.667 12.5 -29s-4 -21 -12 -29s-17.667 -12 -29 -12s-21 4 -29 12s-12 17.667 -12 29z" />
    <glyph glyph-name="Igrave" unicode="&#xcc;" horiz-adv-x="215" 
d="M67 0v800h80v-800h-80zM155 925l-19 -57l-172 52l22 67z" />
    <glyph glyph-name="Iacute" unicode="&#xcd;" horiz-adv-x="215" 
d="M78 868l-19 57l169 62l22 -67zM67 0v800h80v-800h-80z" />
    <glyph glyph-name="Icircumflex" unicode="&#xce;" horiz-adv-x="215" 
d="M67 0v800h80v-800h-80zM220 924l-47 -52l-66 64l-67 -64l-47 52l96 87h36z" />
    <glyph glyph-name="Idieresis" unicode="&#xcf;" horiz-adv-x="215" 
d="M67 0v800h80v-800h-80zM-19 925c0 11.333 4 21 12 29s17.667 12 29 12c10.667 0 20.167 -4 28.5 -12s12.5 -17.667 12.5 -29s-4 -21 -12 -29s-17.667 -12 -29 -12s-21 4 -29 12s-12 17.667 -12 29zM151 925c0 11.333 4 21 12 29s17.667 12 29 12
c10.667 0 20.167 -4 28.5 -12s12.5 -17.667 12.5 -29s-4 -21 -12 -29s-17.667 -12 -29 -12s-21 4 -29 12s-12 17.667 -12 29z" />
    <glyph glyph-name="Eth" unicode="&#xd0;" horiz-adv-x="500" 
d="M-13 237v75h73v488h190c52.667 0 97.5 -18.5 134.5 -55.5s55.5 -81.833 55.5 -134.5v-420c0 -52.667 -18.5 -97.5 -55.5 -134.5s-81.833 -55.5 -134.5 -55.5h-190v237h-73zM140 725v-413h72v-75h-72v-162h110c30 0 55.833 10.667 77.5 32s32.5 47.333 32.5 78v430
c0 30 -10.833 55.833 -32.5 77.5s-47.5 32.5 -77.5 32.5h-110z" />
    <glyph glyph-name="Ntilde" unicode="&#xd1;" horiz-adv-x="525" 
d="M385 0l-245 590v-590h-80v800h80l245 -590v590h80v-800h-80zM158 889l-9 -5l-27 56l8 5c26.667 14.667 56 22 88 22c11.333 0 26.833 -4 46.5 -12s34.834 -12 45.501 -12c9.33301 0 18.666 1 27.999 3s16.333 4 21 6s7 3.33301 7 4l8 4l27 -56l-8 -4
c-26 -14.667 -54.333 -22 -85 -22c-12 0 -28.333 4 -49 12s-36 12 -46 12c-9.33301 0 -18.5 -1 -27.5 -3s-15.833 -4 -20.5 -6s-7 -3.33301 -7 -4z" />
    <glyph glyph-name="Ograve" unicode="&#xd2;" horiz-adv-x="500" 
d="M60 184v432c0 52.667 18.5 97.5 55.5 134.5s81.833 55.5 134.5 55.5s97.5 -18.5 134.5 -55.5s55.5 -81.833 55.5 -134.5v-432c0 -52.667 -18.5 -97.5 -55.5 -134.5s-81.833 -55.5 -134.5 -55.5c-53.333 0 -98.333 18.333 -135 55s-55 81.667 -55 135zM140 179
c0 -30.667 10.667 -56.667 32 -78s47.333 -32 78 -32c30 0 55.833 10.667 77.5 32s32.5 47.333 32.5 78v442c0 30 -10.833 55.833 -32.5 77.5s-47.5 32.5 -77.5 32.5c-30.667 0 -56.667 -10.833 -78 -32.5s-32 -47.5 -32 -77.5v-442zM321 925l-19 -57l-172 52l22 67z" />
    <glyph glyph-name="Oacute" unicode="&#xd3;" horiz-adv-x="500" 
d="M198 868l-19 57l169 62l22 -67zM60 184v432c0 52.667 18.5 97.5 55.5 134.5s81.833 55.5 134.5 55.5s97.5 -18.5 134.5 -55.5s55.5 -81.833 55.5 -134.5v-432c0 -52.667 -18.5 -97.5 -55.5 -134.5s-81.833 -55.5 -134.5 -55.5c-53.333 0 -98.333 18.333 -135 55
s-55 81.667 -55 135zM140 179c0 -30.667 10.667 -56.667 32 -78s47.333 -32 78 -32c30 0 55.833 10.667 77.5 32s32.5 47.333 32.5 78v442c0 30 -10.833 55.833 -32.5 77.5s-47.5 32.5 -77.5 32.5c-30.667 0 -56.667 -10.833 -78 -32.5s-32 -47.5 -32 -77.5v-442z" />
    <glyph glyph-name="Ocircumflex" unicode="&#xd4;" horiz-adv-x="500" 
d="M60 184v432c0 52.667 18.5 97.5 55.5 134.5s81.833 55.5 134.5 55.5s97.5 -18.5 134.5 -55.5s55.5 -81.833 55.5 -134.5v-432c0 -52.667 -18.5 -97.5 -55.5 -134.5s-81.833 -55.5 -134.5 -55.5c-53.333 0 -98.333 18.333 -135 55s-55 81.667 -55 135zM140 179
c0 -30.667 10.667 -56.667 32 -78s47.333 -32 78 -32c30 0 55.833 10.667 77.5 32s32.5 47.333 32.5 78v442c0 30 -10.833 55.833 -32.5 77.5s-47.5 32.5 -77.5 32.5c-30.667 0 -56.667 -10.833 -78 -32.5s-32 -47.5 -32 -77.5v-442zM363 924l-47 -52l-66 64l-67 -64l-47 52
l96 87h36z" />
    <glyph glyph-name="Otilde" unicode="&#xd5;" horiz-adv-x="500" 
d="M60 184v432c0 52.667 18.5 97.5 55.5 134.5s81.833 55.5 134.5 55.5s97.5 -18.5 134.5 -55.5s55.5 -81.833 55.5 -134.5v-432c0 -52.667 -18.5 -97.5 -55.5 -134.5s-81.833 -55.5 -134.5 -55.5c-53.333 0 -98.333 18.333 -135 55s-55 81.667 -55 135zM140 179
c-0.666992 -30.667 9.83203 -56.667 31.499 -78s47.834 -32 78.501 -32c30 0 55.833 10.667 77.5 32s32.5 47.333 32.5 78v442c0 30 -10.833 55.833 -32.5 77.5s-47.5 32.5 -77.5 32.5c-30.667 0 -56.667 -10.833 -78 -32.5s-32 -47.5 -32 -77.5v-442zM145.999 889l-9 -5
l-27 56l8 5c26.667 14.667 56 22 88 22c11.333 0 26.833 -4 46.5 -12s34.834 -12 45.501 -12c9.33301 0 18.666 1 27.999 3s16.333 4 21 6s7 3.33301 7 4l8 4l27 -56l-8 -4c-26 -14.667 -54.333 -22 -85 -22c-12 0 -28.333 4 -49 12s-36 12 -46 12
c-9.33301 0 -18.5 -1 -27.5 -3s-15.833 -4 -20.5 -6s-7 -3.33301 -7 -4z" />
    <glyph glyph-name="Odieresis" unicode="&#xd6;" horiz-adv-x="500" 
d="M60 184v432c0 52.667 18.5 97.5 55.5 134.5s81.833 55.5 134.5 55.5s97.5 -18.5 134.5 -55.5s55.5 -81.833 55.5 -134.5v-432c0 -52.667 -18.5 -97.5 -55.5 -134.5s-81.833 -55.5 -134.5 -55.5c-53.333 0 -98.333 18.333 -135 55s-55 81.667 -55 135zM140 179
c0 -30.667 10.667 -56.667 32 -78s47.333 -32 78 -32c30 0 55.833 10.667 77.5 32s32.5 47.333 32.5 78v442c0 30 -10.833 55.833 -32.5 77.5s-47.5 32.5 -77.5 32.5c-30.667 0 -56.667 -10.833 -78 -32.5s-32 -47.5 -32 -77.5v-442zM124 925c0 11.333 4 21 12 29
s17.667 12 29 12s21 -4 29 -12s12 -17.667 12 -29s-4 -21 -12 -29s-17.667 -12 -29 -12s-21 4 -29 12s-12 17.667 -12 29zM294 925c0 11.333 4 21 12 29s17.667 12 29 12s21 -4 29 -12s12 -17.667 12 -29s-4 -21 -12 -29s-17.667 -12 -29 -12s-21 4 -29 12
s-12 17.667 -12 29z" />
    <glyph glyph-name="multiply" unicode="&#xd7;" horiz-adv-x="540" 
d="M100 123l-60 53l176 198l-176 199l60 53l170 -192l170 192l60 -53l-177 -199l177 -198l-60 -53l-170 191z" />
    <glyph glyph-name="Oslash" unicode="&#xd8;" horiz-adv-x="500" 
d="M60 184v432.001c0 52.667 18.5 97.5 55.5 134.5s81.833 55.5 134.5 55.5c40.667 0 78 -12.333 112 -37l18 45l65 -28l-31 -75c17.333 -28.667 26 -60.334 26 -95.001v-432c0 -52.667 -18.5 -97.5 -55.5 -134.5s-81.833 -55.5 -134.5 -55.5c-42 0 -79.333 12 -112 36
l-18 -44l-65 28l30 74c-16.667 29.333 -25 61.333 -25 96zM250 69.001c30 0 55.833 10.667 77.5 32s32.5 47.333 32.5 78v397l-192 -471c22 -24 49.333 -36 82 -36zM140 621.001v-397l191 470c-21.333 24.667 -48.333 37 -81 37c-30.667 0 -56.667 -10.833 -78 -32.5
s-32 -47.5 -32 -77.5z" />
    <glyph glyph-name="Ugrave" unicode="&#xd9;" horiz-adv-x="500" 
d="M140 179c0 -30.667 10.667 -56.667 32 -78s47.333 -32 78 -32c30 0 55.833 10.667 77.5 32s32.5 47.333 32.5 78v621h80v-616c0 -52.667 -18.5 -97.5 -55.5 -134.5s-81.833 -55.5 -134.5 -55.5c-53.333 0 -98.333 18.333 -135 55s-55 81.667 -55 135v616h80v-621z
M320 925l-19 -57l-172 52l22 67z" />
    <glyph glyph-name="Uacute" unicode="&#xda;" horiz-adv-x="500" 
d="M198 868l-19 57l169 62l22 -67zM140 179c0 -30.667 10.667 -56.667 32 -78s47.333 -32 78 -32c30 0 55.833 10.667 77.5 32s32.5 47.333 32.5 78v621h80v-616c0 -52.667 -18.5 -97.5 -55.5 -134.5s-81.833 -55.5 -134.5 -55.5c-53.333 0 -98.333 18.333 -135 55
s-55 81.667 -55 135v616h80v-621z" />
    <glyph glyph-name="Ucircumflex" unicode="&#xdb;" horiz-adv-x="500" 
d="M140 179c0 -30.667 10.667 -56.667 32 -78s47.333 -32 78 -32c30 0 55.833 10.667 77.5 32s32.5 47.333 32.5 78v621h80v-616c0 -52.667 -18.5 -97.5 -55.5 -134.5s-81.833 -55.5 -134.5 -55.5c-53.333 0 -98.333 18.333 -135 55s-55 81.667 -55 135v616h80v-621z
M363 924l-47 -52l-66 64l-67 -64l-47 52l96 87h36z" />
    <glyph glyph-name="Udieresis" unicode="&#xdc;" horiz-adv-x="500" 
d="M140 179c0 -30.667 10.667 -56.667 32 -78s47.333 -32 78 -32c30 0 55.833 10.667 77.5 32s32.5 47.333 32.5 78v621h80v-616c0 -52.667 -18.5 -97.5 -55.5 -134.5s-81.833 -55.5 -134.5 -55.5c-53.333 0 -98.333 18.333 -135 55s-55 81.667 -55 135v616h80v-621z
M124 925c0 11.333 4 21 12 29s17.667 12 29 12s21 -4 29 -12s12 -17.667 12 -29s-4 -21 -12 -29s-17.667 -12 -29 -12s-21 4 -29 12s-12 17.667 -12 29zM294 925c0 11.333 4 21 12 29s17.667 12 29 12s21 -4 29 -12s12 -17.667 12 -29s-4 -21 -12 -29s-17.667 -12 -29 -12
s-21 4 -29 12s-12 17.667 -12 29z" />
    <glyph glyph-name="Yacute" unicode="&#xdd;" horiz-adv-x="470" 
d="M195 0v237l-156 563h83l113 -421l113 421h83l-156 -563v-237h-80zM197 868l-19 57l169 62l22 -67z" />
    <glyph glyph-name="Thorn" unicode="&#xde;" horiz-adv-x="500" 
d="M60 0v800h80v-125h110c52.667 0 97.5 -18.5 134.5 -55.5s55.5 -81.833 55.5 -134.5v-170c0 -52.667 -18.5 -97.5 -55.5 -134.5s-81.833 -55.5 -134.5 -55.5h-110v-125h-80zM140 600v-400h110c30 0 55.833 10.667 77.5 32s32.5 47.333 32.5 78v180
c0 30.667 -10.833 56.667 -32.5 78s-47.5 32 -77.5 32h-110z" />
    <glyph glyph-name="agrave" unicode="&#xe0;" horiz-adv-x="391" 
d="M235 700l117 -600h-75l-22 115h-119l-22 -115h-75l116 600h80zM256 825l-19 -57l-172 52l22 67zM195 527l-45 -237h87z" />
    <glyph glyph-name="aacute" unicode="&#xe1;" horiz-adv-x="391" 
d="M235 700l117 -600h-75l-22 115h-119l-22 -115h-75l116 600h80zM153 768l-19 57l169 62l49 -67zM195 527l-45 -237h90z" />
    <glyph glyph-name="acircumflex" unicode="&#xe2;" horiz-adv-x="391" 
d="M235 700l117 -600h-75l-22 115h-119l-22 -115h-75l116 600h80zM308 824l-47 -52l-66 64l-67 -64l-47 52l96 87h36zM195 527l-45 -237h111z" />
    <glyph glyph-name="atilde" unicode="&#xe3;" horiz-adv-x="391" 
d="M235 700l117 -600h-75l-22 115h-119l-22 -115h-75l116 600h80zM91 789l-9 -5l-27 56l8 5c26.667 14.667 56 22 88 22c11.333 0 26.833 -4 46.5 -12s34.834 -12 45.501 -12c9.33301 0 18.666 1 27.999 3s16.333 4 21 6s7 3.33301 7 4l8 4l27 -56l-8 -4
c-26 -14.667 -54.333 -22 -85 -22c-12.667 0 -29 4 -49 12s-35.333 12 -46 12c-9.33301 0 -18.5 -1 -27.5 -3s-15.833 -4 -20.5 -6s-7 -3.33301 -7 -4zM195 527l-45 -237h90z" />
    <glyph glyph-name="adieresis" unicode="&#xe4;" horiz-adv-x="391" 
d="M235 700l117 -600h-75l-22 115h-119l-22 -115h-75l116 600h80zM195 527l-45 -237h90zM79 825c0 11.333 4 21 12 29s17.667 12 29 12c10.667 0 20.167 -4 28.5 -12s12.5 -17.667 12.5 -29s-4 -21 -12 -29s-17.667 -12 -29 -12s-21 4 -29 12s-12 17.667 -12 29zM229 825
c0 11.333 4 21 12 29s17.667 12 29 12c10.667 0 20.167 -4 28.5 -12s12.5 -17.667 12.5 -29s-4 -21 -12 -29s-17.667 -12 -29 -12s-21 4 -29 12s-12 17.667 -12 29z" />
    <glyph glyph-name="aring" unicode="&#xe5;" horiz-adv-x="391" 
d="M235 700l117 -600h-75l-22 115h-119l-22 -115h-75l116 600h80zM85 825c0 30 10.667 55.833 32 77.5s47.333 32.5 78 32.5c30 0 55.833 -10.833 77.5 -32.5s32.5 -47.5 32.5 -77.5c0 -30.667 -10.833 -56.667 -32.5 -78s-47.5 -32 -77.5 -32
c-30.667 0 -56.667 10.667 -78 32s-32 47.333 -32 78zM195 527l-45 -237h90zM150 825c0 -12.667 4.33398 -23.334 13.001 -32.001s19.334 -13 32.001 -13c12 0 22.5 4.33301 31.5 13s13.5 19.334 13.5 32.001c0 12 -4.33301 22.5 -13 31.5s-19.334 13.5 -32.001 13.5
s-23.334 -4.5 -32.001 -13.5s-13 -19.5 -13 -31.5z" />
    <glyph glyph-name="ae" unicode="&#xe6;" horiz-adv-x="548" 
d="M258 100v115h-117l-28 -115h-74l141 600h318v-75h-160v-268h135v-75h-135v-107h160v-75h-240zM241 625l-82 -335h99v335h-17z" />
    <glyph glyph-name="ccedilla" unicode="&#xe7;" 
d="M140 229c0 -16.667 5.83008 -30.8369 17.4971 -42.5039s25.834 -17.5 42.501 -17.5s30.834 5.83301 42.501 17.5s17.5 25.834 17.5 42.501v58h80v-53c0 -34 -11.167 -64.167 -33.5 -90.5s-50.166 -42.166 -83.499 -47.499l-13 -25h29c18.667 0 33.167 -6.66699 43.5 -20
s15.5 -30.333 15.5 -51c0 -22.667 -9.83301 -43 -29.5 -61s-47.5 -27 -83.5 -27c-18.667 0 -36 4 -52 12s-27.333 16 -34 24l-10 12l17 29c23.333 -24.667 49.666 -37 78.999 -37c14.667 0 25.834 4.83301 33.501 14.5s11.5 20.834 11.5 33.501
c0 9.33301 -3.16699 17.5 -9.5 24.5s-15.166 10.5 -26.499 10.5h-61l35 62c-31.333 7.33301 -57.166 23.833 -77.499 49.5s-30.5 54.834 -30.5 87.501v332c0 38.667 13.667 71.667 41 99s60.333 41 99 41s71.667 -13.667 99 -41s41 -60.333 41 -99v-54h-80v59
c0 16.667 -5.83301 30.834 -17.5 42.501s-25.834 17.5 -42.501 17.5s-30.834 -5.83301 -42.501 -17.5s-17.5 -25.834 -17.5 -42.501v-342z" />
    <glyph glyph-name="egrave" unicode="&#xe8;" horiz-adv-x="350" 
d="M60 100v600h240v-75h-160v-268h135v-75h-135v-107h160v-75h-240zM275 825l-19 -57l-172 52l22 67z" />
    <glyph glyph-name="eacute" unicode="&#xe9;" horiz-adv-x="350" 
d="M60 100v600h240v-75h-160v-268h135v-75h-135v-107h160v-75h-240zM118 768l-19 57l169 62l22 -67z" />
    <glyph glyph-name="ecircumflex" unicode="&#xea;" horiz-adv-x="350" 
d="M60 100v600h240v-75h-160v-268h135v-75h-135v-107h160v-75h-240zM293 824l-47 -52l-66 64l-67 -64l-47 52l96 87h36z" />
    <glyph glyph-name="edieresis" unicode="&#xeb;" horiz-adv-x="350" 
d="M60 100v600h240v-75h-160v-268h135v-75h-135v-107h160v-75h-240zM64 825c0 11.333 4 21 12 29s17.667 12 29 12s21 -4 29 -12s12 -17.667 12 -29s-4 -21 -12 -29s-17.667 -12 -29 -12s-21 4 -29 12s-12 17.667 -12 29zM214 825c0 11.333 4 21 12 29s17.667 12 29 12
s21 -4 29 -12s12 -17.667 12 -29s-4 -21 -12 -29s-17.667 -12 -29 -12s-21 4 -29 12s-12 17.667 -12 29z" />
    <glyph glyph-name="igrave" unicode="&#xec;" horiz-adv-x="215" 
d="M67 100v600h80v-600h-80zM155 825l-19 -57l-172 52l22 67z" />
    <glyph glyph-name="iacute" unicode="&#xed;" horiz-adv-x="215" 
d="M67 100v600h80v-600h-80zM78 768l-19 57l169 62l22 -67z" />
    <glyph glyph-name="icircumflex" unicode="&#xee;" horiz-adv-x="215" 
d="M67 100v600h80v-600h-80zM220 824l-47 -52l-66 64l-67 -64l-47 52l96 87h36z" />
    <glyph glyph-name="idieresis" unicode="&#xef;" horiz-adv-x="215" 
d="M67 100v600h80v-600h-80zM-11 825c0 11.333 4 21 12 29s17.667 12 29 12c10.667 0 20.167 -4 28.5 -12s12.5 -17.667 12.5 -29s-4 -21 -12 -29s-17.667 -12 -29 -12s-21 4 -29 12s-12 17.667 -12 29zM139 825c0 11.333 4 21 12 29s17.667 12 29 12
c10.667 0 20.167 -4 28.5 -12s12.5 -17.667 12.5 -29s-4 -21 -12 -29s-17.667 -12 -29 -12s-21 4 -29 12s-12 17.667 -12 29z" />
    <glyph glyph-name="eth" unicode="&#xf0;" 
d="M12 282v75h48v343h140c38.667 0 71.667 -13.667 99 -41s41 -60.333 41 -99v-320c0 -38.667 -13.667 -71.667 -41 -99s-60.333 -41 -99 -41h-140v182h-48zM140 625v-268.002h47v-75h-47v-107h60c16.667 0 30.834 5.83301 42.501 17.5s17.5 25.834 17.5 42.501v330
c0 16.667 -5.83301 30.834 -17.5 42.501s-25.834 17.5 -42.501 17.5h-60z" />
    <glyph glyph-name="ntilde" unicode="&#xf1;" horiz-adv-x="425" 
d="M285 100l-145 388v-388h-80v600h80l145 -391v391h80v-600h-80zM108 789l-9 -5l-27 56l8 5c26.667 14.667 56 22 88 22c11.333 0 26.833 -4 46.5 -12s34.834 -12 45.501 -12c9.33301 0 18.666 1 27.999 3s16.333 4 21 6s7 3.33301 7 4l8 4l27 -56l-8 -4
c-26 -14.667 -54.333 -22 -85 -22c-12 0 -28.333 4 -49 12s-36 12 -46 12c-9.33301 0 -18.5 -1 -27.5 -3s-15.833 -4 -20.5 -6s-7 -3.33301 -7 -4z" />
    <glyph glyph-name="ograve" unicode="&#xf2;" 
d="M60 234v332c0 38.667 13.667 71.667 41 99s60.333 41 99 41s71.667 -13.667 99 -41s41 -60.333 41 -99v-332c0 -38.667 -13.667 -71.667 -41 -99s-60.333 -41 -99 -41s-71.667 13.667 -99 41s-41 60.333 -41 99zM140 229c0 -16.667 5.83301 -30.834 17.5 -42.501
s25.834 -17.5 42.501 -17.5s30.834 5.83301 42.501 17.5s17.5 25.834 17.5 42.501v342c0 16.667 -5.83301 30.834 -17.5 42.501s-25.834 17.5 -42.501 17.5s-30.834 -5.83301 -42.501 -17.5s-17.5 -25.834 -17.5 -42.501v-342zM270 825l-19 -57l-172 52l22 67z" />
    <glyph glyph-name="oacute" unicode="&#xf3;" 
d="M60 234v332c0 38.667 13.667 71.667 41 99s60.333 41 99 41s71.667 -13.667 99 -41s41 -60.333 41 -99v-332c0 -38.667 -13.667 -71.667 -41 -99s-60.333 -41 -99 -41s-71.667 13.667 -99 41s-41 60.333 -41 99zM140 229
c-0.666992 -16.667 5.00098 -30.834 17.001 -42.501s26.333 -17.5 43 -17.5s30.834 5.83301 42.501 17.5s17.5 25.834 17.5 42.501v342c0 16.667 -5.83301 30.834 -17.5 42.501s-25.834 17.5 -42.501 17.5s-30.834 -5.83301 -42.501 -17.5s-17.5 -25.834 -17.5 -42.501v-342
zM148.001 768l-19 57l169 62l22 -67z" />
    <glyph glyph-name="ocircumflex" unicode="&#xf4;" 
d="M60 234v332c0 38.667 13.667 71.667 41 99s60.333 41 99 41s71.667 -13.667 99 -41s41 -60.333 41 -99v-332c0 -38.667 -13.667 -71.667 -41 -99s-60.333 -41 -99 -41s-71.667 13.667 -99 41s-41 60.333 -41 99zM140 229c0 -16.667 5.83301 -30.834 17.5 -42.501
s25.834 -17.5 42.501 -17.5s30.834 5.83301 42.501 17.5s17.5 25.834 17.5 42.501v342c0 16.667 -5.83301 30.834 -17.5 42.501s-25.834 17.5 -42.501 17.5s-30.834 -5.83301 -42.501 -17.5s-17.5 -25.834 -17.5 -42.501v-342zM313 824l-47 -52l-66 64l-67 -64l-47 52l96 87
h36z" />
    <glyph glyph-name="otilde" unicode="&#xf5;" 
d="M60 234v332c0 38.667 13.667 71.667 41 99s60.333 41 99 41s71.667 -13.667 99 -41s41 -60.333 41 -99v-332c0 -38.667 -13.667 -71.667 -41 -99s-60.333 -41 -99 -41s-71.667 13.667 -99 41s-41 60.333 -41 99zM140 229c0 -16.667 5.83301 -30.834 17.5 -42.501
s25.834 -17.5 42.501 -17.5s30.834 5.83301 42.501 17.5s17.5 25.834 17.5 42.501v342c0 16.667 -5.83301 30.834 -17.5 42.501s-25.834 17.5 -42.501 17.5s-30.834 -5.83301 -42.501 -17.5s-17.5 -25.834 -17.5 -42.501v-342zM96 789l-9 -5l-27 56l8 5
c26.667 14.667 56 22 88 22c11.333 0 26.833 -4 46.5 -12s34.834 -12 45.501 -12c9.33301 0 18.666 1 27.999 3s16.333 4 21 6s7 3.33301 7 4l8 4l27 -56l-8 -4c-26 -14.667 -54.333 -22 -85 -22c-12 0 -28.167 4 -48.5 12s-35.833 12 -46.5 12
c-9.33301 0 -18.5 -1 -27.5 -3s-15.833 -4 -20.5 -6s-7 -3.33301 -7 -4z" />
    <glyph glyph-name="odieresis" unicode="&#xf6;" 
d="M60 234v332c0 38.667 13.667 71.667 41 99s60.333 41 99 41s71.667 -13.667 99 -41s41 -60.333 41 -99v-332c0 -38.667 -13.667 -71.667 -41 -99s-60.333 -41 -99 -41s-71.667 13.667 -99 41s-41 60.333 -41 99zM140 229c0 -16.667 5.83301 -30.834 17.5 -42.501
s25.834 -17.5 42.501 -17.5s30.834 5.83301 42.501 17.5s17.5 25.834 17.5 42.501v342c0 16.667 -5.83301 30.834 -17.5 42.501s-25.834 17.5 -42.501 17.5s-30.834 -5.83301 -42.501 -17.5s-17.5 -25.834 -17.5 -42.501v-342zM84 825c0 11.333 4 21 12 29s17.667 12 29 12
s21 -4 29 -12s12 -17.667 12 -29s-4 -21 -12 -29s-17.667 -12 -29 -12s-21 4 -29 12s-12 17.667 -12 29zM234 825c0 11.333 4 21 12 29s17.667 12 29 12s21 -4 29 -12s12 -17.667 12 -29s-4 -21 -12 -29s-17.667 -12 -29 -12s-21 4 -29 12s-12 17.667 -12 29z" />
    <glyph glyph-name="divide" unicode="&#xf7;" horiz-adv-x="450" 
d="M179 141c0 12.667 4.5 23.5 13.5 32.5s19.833 13.5 32.5 13.5s23.5 -4.5 32.5 -13.5s13.5 -19.833 13.5 -32.5s-4.5 -23.5 -13.5 -32.5s-19.833 -13.5 -32.5 -13.5s-23.5 4.5 -32.5 13.5s-13.5 19.833 -13.5 32.5zM179 561c0 12.667 4.5 23.5 13.5 32.5
s19.833 13.5 32.5 13.5s23.5 -4.5 32.5 -13.5s13.5 -19.833 13.5 -32.5s-4.5 -23.5 -13.5 -32.5s-19.833 -13.5 -32.5 -13.5s-23.5 4.5 -32.5 13.5s-13.5 19.833 -13.5 32.5zM25 312v75h400v-75h-400z" />
    <glyph glyph-name="oslash" unicode="&#xf8;" 
d="M60 234l-0.000976562 331.999c0 38.667 13.667 71.667 41 99s60.333 41 99 41c24.667 0 48 -6.33301 70 -19l10 26l65 -27l-21 -56c10.667 -20 16 -41.333 16 -64v-332c0 -38.667 -13.667 -71.667 -41 -99s-60.333 -41 -99 -41c-25.333 0 -48.666 6.33301 -69.999 19
l-10 -27l-65 27l21 56c-10.667 18.667 -16 40.334 -16 65.001zM139.999 570.999l0.000976562 -231.999l102 274c-12 12 -26 18 -42 18c-16.667 0 -30.834 -5.83301 -42.501 -17.5s-17.5 -25.834 -17.5 -42.501zM200 169c16.667 0 30.834 5.83203 42.501 17.499
s17.5 25.834 17.5 42.501v230l-103 -273c11.333 -11.333 25.666 -17 42.999 -17z" />
    <glyph glyph-name="ugrave" unicode="&#xf9;" 
d="M140 229c0 -16.667 5.83105 -30.834 17.498 -42.501s25.834 -17.5 42.501 -17.5s30.834 5.83301 42.501 17.5s17.5 25.834 17.5 42.501v471h80v-466c0 -38.667 -13.667 -71.667 -41 -99s-60.333 -41 -99 -41s-71.667 13.667 -99 41s-41 60.333 -41 99v466h80v-471z
M269.998 825l-19 -57l-172 52l22 67z" />
    <glyph glyph-name="uacute" unicode="&#xfa;" 
d="M140 229c-0.666992 -16.667 4.99902 -30.834 16.999 -42.501s26.333 -17.5 43 -17.5s30.834 5.83301 42.501 17.5s17.5 25.834 17.5 42.501v471h80v-466c0 -38.667 -13.667 -71.667 -41 -99s-60.333 -41 -99 -41s-71.667 13.667 -99 41s-41 60.333 -41 99v466h80v-471z
M147.999 768l-19 57l169 62l22 -67z" />
    <glyph glyph-name="ucircumflex" unicode="&#xfb;" 
d="M140 229c0 -16.667 5.83105 -30.834 17.498 -42.501s25.834 -17.5 42.501 -17.5s30.834 5.83301 42.501 17.5s17.5 25.834 17.5 42.501v471h80v-466c0 -38.667 -13.667 -71.667 -41 -99s-60.333 -41 -99 -41s-71.667 13.667 -99 41s-41 60.333 -41 99v466h80v-471z
M312.998 824l-47 -52l-66 64l-67 -64l-47 52l96 87h36z" />
    <glyph glyph-name="udieresis" unicode="&#xfc;" 
d="M140 229c0 -16.667 5.83105 -30.834 17.498 -42.501s25.834 -17.5 42.501 -17.5s30.834 5.83301 42.501 17.5s17.5 25.834 17.5 42.501v471h80v-466c0 -38.667 -13.667 -71.667 -41 -99s-60.333 -41 -99 -41s-71.667 13.667 -99 41s-41 60.333 -41 99v466h80v-471z
M83.998 825c0 11.333 4 21 12 29s17.667 12 29 12s21 -4 29 -12s12 -17.667 12 -29s-4 -21 -12 -29s-17.667 -12 -29 -12s-21 4 -29 12s-12 17.667 -12 29zM233.998 825c0 11.333 4 21 12 29s17.667 12 29 12s21 -4 29 -12s12 -17.667 12 -29s-4 -21 -12 -29
s-17.667 -12 -29 -12s-21 4 -29 12s-12 17.667 -12 29z" />
    <glyph glyph-name="yacute" unicode="&#xfd;" horiz-adv-x="387" 
d="M153 100v182l-111 418h75l76 -291l76 291h75l-111 -418v-182h-80zM156 768l-19 57l169 62l22 -67z" />
    <glyph glyph-name="thorn" unicode="&#xfe;" 
d="M60 100v600h80v-88h60c38.667 0 71.667 -13.667 99 -41s41 -60.333 41 -99v-145c0 -38.667 -13.667 -71.667 -41 -99s-60.333 -41 -99 -41h-60v-87h-80zM140 537v-275.002h60c16.667 0 30.834 5.83301 42.501 17.5s17.5 25.834 17.5 42.501v155
c0 16.667 -5.83301 30.834 -17.5 42.501s-25.834 17.5 -42.501 17.5h-60z" />
    <glyph glyph-name="ydieresis" unicode="&#xff;" horiz-adv-x="387" 
d="M153 100v182l-111 418h75l76 -291l76 291h75l-111 -418v-182h-80zM228 825c0 11.333 4 21 12 29s17.667 12 29 12s21 -4 29 -12s12 -17.667 12 -29s-4 -21 -12 -29s-17.667 -12 -29 -12s-21 4 -29 12s-12 17.667 -12 29zM78 825c0 11.333 4 21 12 29s17.667 12 29 12
s21 -4 29 -12s12 -17.667 12 -29s-4 -21 -12 -29s-17.667 -12 -29 -12s-21 4 -29 12s-12 17.667 -12 29z" />
    <glyph glyph-name="Amacron" unicode="&#x100;" horiz-adv-x="502" 
d="M290 800l173 -800h-81l-29 135h-205l-28 -135h-81l171 800h80zM250 624l-87 -414h174zM117 890v65h265v-65h-265z" />
    <glyph glyph-name="amacron" unicode="&#x101;" horiz-adv-x="391" 
d="M235 700l117 -600h-75l-22 115h-119l-22 -115h-75l116 600h80zM77 790v65h235l40 -65h-275zM195 527l-45 -237h90z" />
    <glyph glyph-name="Abreve" unicode="&#x102;" horiz-adv-x="502" 
d="M290 800l173 -800h-81l-29 135h-205l-28 -135h-81l171 800h80zM250 624l-87 -414h174zM250 930c18 0 32.5 4.16699 43.5 12.5s16.5 19.166 16.5 32.499v17h65v-17c0 -32.667 -10.5 -59.167 -31.5 -79.5s-52.167 -30.5 -93.5 -30.5s-72.5 10.167 -93.5 30.5
s-31.5 46.833 -31.5 79.5v17h65v-17c0 -13.333 5.5 -24.166 16.5 -32.499s25.5 -12.5 43.5 -12.5z" />
    <glyph glyph-name="abreve" unicode="&#x103;" horiz-adv-x="391" 
d="M235 700l117 -600h-75l-22 115h-119l-22 -115h-75l116 600h80zM195 830c18 0 32.5 4.16699 43.5 12.5s16.5 19.166 16.5 32.499v17h65v-17c0 -32.667 -10.5 -59.167 -31.5 -79.5s-52.167 -30.5 -93.5 -30.5s-72.5 10.167 -93.5 30.5s-31.5 46.833 -31.5 79.5v17h65v-17
c0 -13.333 5.5 -24.166 16.5 -32.499s25.5 -12.5 43.5 -12.5zM195 527l-45 -237h90z" />
    <glyph glyph-name="Aogonek" unicode="&#x104;" horiz-adv-x="514" 
d="M290 800l173 -800.001l-17 -17c-12 -11.333 -24 -25 -36 -41s-18 -28.333 -18 -37c0 -16 8 -24 24 -24c5.33301 0 11 1.5 17 4.5s10.667 6.16699 14 9.5l5 5l37 -20c-2 -3.33301 -5 -7.83301 -9 -13.5s-12.333 -13 -25 -22s-25.667 -13.5 -39 -13.5
c-58.667 0 -88 26 -88 78c0 32.667 17.333 65.334 52 98.001l-27 128h-205l-28 -135h-81l171 800h80zM250 623.999l-87 -414h174z" />
    <glyph glyph-name="aogonek" unicode="&#x105;" horiz-adv-x="391" 
d="M235 700l117 -600h-75l-22 115h-119l-22 -115h-75l116 600h80zM195 527l-45 -237h90z" />
    <glyph glyph-name="Cacute" unicode="&#x106;" horiz-adv-x="500" 
d="M198 868l-19 57l169 62l22 -67zM140 179c0 -30.667 10.667 -56.667 32 -78s47.333 -32 78 -32c30 0 55.833 10.667 77.5 32s32.5 47.333 32.5 78v41h80v-36c0 -52.667 -18.5 -97.5 -55.5 -134.5s-81.833 -55.5 -134.5 -55.5c-53.333 0 -98.333 18.333 -135 55
s-55 81.667 -55 135v432c0 52.667 18.5 97.5 55.5 134.5s81.833 55.5 134.5 55.5s97.5 -18.5 134.5 -55.5s55.5 -81.833 55.5 -134.5v-36h-80v41c0 30 -10.833 55.833 -32.5 77.5s-47.5 32.5 -77.5 32.5c-30.667 0 -56.667 -10.833 -78 -32.5s-32 -47.5 -32 -77.5v-442z" />
    <glyph glyph-name="cacute" unicode="&#x107;" 
d="M140 229c-0.666992 -16.667 5.00098 -30.834 17.001 -42.501s26.333 -17.5 43 -17.5s30.834 5.83301 42.501 17.5s17.5 25.834 17.5 42.501v58h80v-53c0 -38.667 -13.667 -71.667 -41 -99s-60.333 -41 -99 -41s-71.667 13.667 -99 41s-41 60.333 -41 99v332
c0 38.667 13.667 71.667 41 99s60.333 41 99 41s71.667 -13.667 99 -41s41 -60.333 41 -99v-54h-80v59c0 16.667 -5.83301 30.834 -17.5 42.501s-25.834 17.5 -42.501 17.5s-30.834 -5.83301 -42.501 -17.5s-17.5 -25.834 -17.5 -42.501v-342zM148.001 768l-19 57l169 62
l22 -67z" />
    <glyph glyph-name="Ccircumflex" unicode="&#x108;" horiz-adv-x="500" 
d="M140 179c0 -30.667 10.667 -56.667 32 -78s47.333 -32 78 -32c30 0 55.833 10.667 77.5 32s32.5 47.333 32.5 78v41h80v-36c0 -52.667 -18.5 -97.5 -55.5 -134.5s-81.833 -55.5 -134.5 -55.5c-53.333 0 -98.333 18.333 -135 55s-55 81.667 -55 135v432
c0 52.667 18.5 97.5 55.5 134.5s81.833 55.5 134.5 55.5s97.5 -18.5 134.5 -55.5s55.5 -81.833 55.5 -134.5v-36h-80v41c0 30 -10.833 55.833 -32.5 77.5s-47.5 32.5 -77.5 32.5c-30.667 0 -56.667 -10.833 -78 -32.5s-32 -47.5 -32 -77.5v-442zM363 924l-47 -52l-66 64
l-67 -64l-47 52l96 87h36z" />
    <glyph glyph-name="ccircumflex" unicode="&#x109;" 
d="M140 229c0 -16.667 5.83301 -30.834 17.5 -42.501s25.834 -17.5 42.501 -17.5s30.834 5.83301 42.501 17.5s17.5 25.834 17.5 42.501v58h80v-53c0 -38.667 -13.667 -71.667 -41 -99s-60.333 -41 -99 -41s-71.667 13.667 -99 41s-41 60.333 -41 99v332
c0 38.667 13.667 71.667 41 99s60.333 41 99 41s71.667 -13.667 99 -41s41 -60.333 41 -99v-54h-80v59c0 16.667 -5.83301 30.834 -17.5 42.501s-25.834 17.5 -42.501 17.5s-30.834 -5.83301 -42.501 -17.5s-17.5 -25.834 -17.5 -42.501v-342zM313 824l-47 -52l-66 64
l-67 -64l-47 52l96 87h36z" />
    <glyph glyph-name="Cdotaccent" unicode="&#x10a;" horiz-adv-x="500" 
d="M140 179c0 -30.667 10.667 -56.667 32 -78s47.333 -32 78 -32c30 0 55.833 10.667 77.5 32s32.5 47.333 32.5 78v41h80v-36c0 -52.667 -18.5 -97.5 -55.5 -134.5s-81.833 -55.5 -134.5 -55.5c-53.333 0 -98.333 18.333 -135 55s-55 81.667 -55 135v432
c0 52.667 18.5 97.5 55.5 134.5s81.833 55.5 134.5 55.5s97.5 -18.5 134.5 -55.5s55.5 -81.833 55.5 -134.5v-36h-80v41c0 30 -10.833 55.833 -32.5 77.5s-47.5 32.5 -77.5 32.5c-30.667 0 -56.667 -10.833 -78 -32.5s-32 -47.5 -32 -77.5v-442zM204 925
c0 12.667 4.5 23.5 13.5 32.5s19.833 13.5 32.5 13.5s23.5 -4.5 32.5 -13.5s13.5 -19.833 13.5 -32.5s-4.5 -23.5 -13.5 -32.5s-19.833 -13.5 -32.5 -13.5c-13.333 0 -24.333 4.5 -33 13.5s-13 19.833 -13 32.5z" />
    <glyph glyph-name="cdotaccent" unicode="&#x10b;" 
d="M140 229c-0.666992 -16.667 5.00098 -30.834 17.001 -42.501s26.333 -17.5 43 -17.5s30.834 5.83301 42.501 17.5s17.5 25.834 17.5 42.501v58h80v-53c0 -38.667 -13.667 -71.667 -41 -99s-60.333 -41 -99 -41s-71.667 13.667 -99 41s-41 60.333 -41 99v332
c0 38.667 13.667 71.667 41 99s60.333 41 99 41s71.667 -13.667 99 -41s41 -60.333 41 -99v-54h-80v59c0 16.667 -5.83301 30.834 -17.5 42.501s-25.834 17.5 -42.501 17.5s-30.834 -5.83301 -42.501 -17.5s-17.5 -25.834 -17.5 -42.501v-342zM154.001 825
c0 12.667 4.5 23.5 13.5 32.5s19.833 13.5 32.5 13.5s23.5 -4.5 32.5 -13.5s13.5 -19.833 13.5 -32.5s-4.5 -23.5 -13.5 -32.5s-19.833 -13.5 -32.5 -13.5c-13.333 0 -24.333 4.5 -33 13.5s-13 19.833 -13 32.5z" />
    <glyph glyph-name="Ccaron" unicode="&#x10c;" horiz-adv-x="500" 
d="M140 179c0 -30.667 10.667 -56.667 32 -78s47.333 -32 78 -32c30 0 55.833 10.667 77.5 32s32.5 47.333 32.5 78v41h80v-36c0 -52.667 -18.5 -97.5 -55.5 -134.5s-81.833 -55.5 -134.5 -55.5c-53.333 0 -98.333 18.333 -135 55s-55 81.667 -55 135v432
c0 52.667 18.5 97.5 55.5 134.5s81.833 55.5 134.5 55.5s97.5 -18.5 134.5 -55.5s55.5 -81.833 55.5 -134.5v-36h-80v41c0 30 -10.833 55.833 -32.5 77.5s-47.5 32.5 -77.5 32.5c-30.667 0 -56.667 -10.833 -78 -32.5s-32 -47.5 -32 -77.5v-442zM136 959l47 52l67 -64l66 64
l47 -52l-95 -87h-37z" />
    <glyph glyph-name="ccaron" unicode="&#x10d;" 
d="M140 229c0 -16.667 5.83301 -30.834 17.5 -42.501s25.834 -17.5 42.501 -17.5s30.834 5.83301 42.501 17.5s17.5 25.834 17.5 42.501v58h80v-53c0 -38.667 -13.667 -71.667 -41 -99s-60.333 -41 -99 -41s-71.667 13.667 -99 41s-41 60.333 -41 99v332
c0 38.667 13.667 71.667 41 99s60.333 41 99 41s71.667 -13.667 99 -41s41 -60.333 41 -99v-54h-80v59c0 16.667 -5.83301 30.834 -17.5 42.501s-25.834 17.5 -42.501 17.5s-30.834 -5.83301 -42.501 -17.5s-17.5 -25.834 -17.5 -42.501v-342zM86 859l47 52l67 -64l66 64
l47 -52l-95 -87h-37z" />
    <glyph glyph-name="Dcaron" unicode="&#x10e;" horiz-adv-x="500" 
d="M60 0v800h190c52.667 0 97.5 -18.5 134.5 -55.5s55.5 -81.833 55.5 -134.5v-420c0 -52.667 -18.5 -97.5 -55.5 -134.5s-81.833 -55.5 -134.5 -55.5h-190zM140 725v-650h110c30 0 55.833 10.667 77.5 32s32.5 47.333 32.5 78v430c0 30 -10.833 55.833 -32.5 77.5
s-47.5 32.5 -77.5 32.5h-110zM121 959l47 52l67 -64l66 64l47 -52l-95 -87h-37z" />
    <glyph glyph-name="dcaron" unicode="&#x10f;" 
d="M60 100v600h140c38.667 0 71.667 -13.667 99 -41s41 -60.333 41 -99v-320c0 -38.667 -13.667 -71.667 -41 -99s-60.333 -41 -99 -41h-140zM140 625v-450.002h60c16.667 0 30.834 5.83301 42.501 17.5s17.5 25.834 17.5 42.501v330c0 16.667 -5.83301 30.834 -17.5 42.501
s-25.834 17.5 -42.501 17.5h-60zM73 858.998l47 52l67 -64l66 64l47 -52l-95 -87h-65z" />
    <glyph glyph-name="Dcroat" unicode="&#x110;" horiz-adv-x="500" 
d="M-13 237v75h73v488h190c52.667 0 97.5 -18.5 134.5 -55.5s55.5 -81.833 55.5 -134.5v-420c0 -52.667 -18.5 -97.5 -55.5 -134.5s-81.833 -55.5 -134.5 -55.5h-190v237h-73zM140 725v-413h72v-75h-72v-162h110c30 0 55.833 10.667 77.5 32s32.5 47.333 32.5 78v430
c0 30 -10.833 55.833 -32.5 77.5s-47.5 32.5 -77.5 32.5h-110z" />
    <glyph glyph-name="dcroat" unicode="&#x111;" horiz-adv-x="405" 
d="M5 282v75h60v343h140c38.667 0 71.667 -13.667 99 -41s41 -60.333 41 -99v-320c0 -38.667 -13.667 -71.667 -41 -99s-60.333 -41 -99 -41h-140v182h-60zM145 625v-268.002h60v-75h-60v-107h60c16.667 0 30.834 5.83301 42.501 17.5s17.5 25.834 17.5 42.501v330
c0 16.667 -5.83301 30.834 -17.5 42.501s-25.834 17.5 -42.501 17.5h-60z" />
    <glyph glyph-name="Emacron" unicode="&#x112;" horiz-adv-x="420" 
d="M60 0v800h310v-75h-230v-413h180v-75h-180v-162h230v-75h-310zM79 890v65h265v-65h-265z" />
    <glyph glyph-name="emacron" unicode="&#x113;" horiz-adv-x="350" 
d="M60 100v600h240v-75h-160v-268h135v-75h-135v-107h160v-75h-240zM62 790v65h235v-65h-235z" />
    <glyph glyph-name="Ebreve" unicode="&#x114;" horiz-adv-x="420" 
d="M60 0v800h310v-75h-230v-413h180v-75h-180v-162h230v-75h-310zM215 930c18 0 32.5 4.16699 43.5 12.5s16.5 19.166 16.5 32.499v17h65v-17c0 -32.667 -10.5 -59.167 -31.5 -79.5s-52.167 -30.5 -93.5 -30.5s-72.5 10.167 -93.5 30.5s-31.5 46.833 -31.5 79.5v17h65v-17
c0 -13.333 5.5 -24.166 16.5 -32.499s25.5 -12.5 43.5 -12.5z" />
    <glyph glyph-name="ebreve" unicode="&#x115;" horiz-adv-x="350" 
d="M60 100v600h240v-75h-160v-268h135v-75h-135v-107h160v-75h-240zM181 830c18 0 32.5 4.16699 43.5 12.5s16.5 19.166 16.5 32.499v17h65v-17c0 -32.667 -10.5 -59.167 -31.5 -79.5s-52.167 -30.5 -93.5 -30.5s-72.5 10.167 -93.5 30.5s-31.5 46.833 -31.5 79.5v17h65v-17
c0 -13.333 5.5 -24.166 16.5 -32.499s25.5 -12.5 43.5 -12.5z" />
    <glyph glyph-name="Edotaccent" unicode="&#x116;" horiz-adv-x="420" 
d="M60 0v800h310v-75h-230v-413h180v-75h-180v-162h230v-75h-310zM171 925c0 12.667 4.5 23.5 13.5 32.5s19.833 13.5 32.5 13.5s23.5 -4.5 32.5 -13.5s13.5 -19.833 13.5 -32.5s-4.5 -23.5 -13.5 -32.5s-19.833 -13.5 -32.5 -13.5s-23.5 4.5 -32.5 13.5
s-13.5 19.833 -13.5 32.5z" />
    <glyph glyph-name="edotaccent" unicode="&#x117;" horiz-adv-x="350" 
d="M60 100v600h240v-75h-160v-268h135v-75h-135v-107h160v-75h-240zM136 825c0 12.667 4.5 23.5 13.5 32.5s19.833 13.5 32.5 13.5s23.5 -4.5 32.5 -13.5s13.5 -19.833 13.5 -32.5s-4.5 -23.5 -13.5 -32.5s-19.833 -13.5 -32.5 -13.5c-13.333 0 -24.333 4.5 -33 13.5
s-13 19.833 -13 32.5z" />
    <glyph glyph-name="Eogonek" unicode="&#x118;" horiz-adv-x="420" 
d="M60 0v800h310v-75h-230v-413h180v-75h-180v-162h230v-75l-18 -17c-11.333 -11.333 -23 -25 -35 -41s-18 -28.333 -18 -37c0 -16 8 -24 24 -24c5.33301 0 11 1.5 17 4.5s10.667 6.16699 14 9.5l5 5l37 -20c-2 -3.33301 -5 -7.83301 -9 -13.5s-12.333 -13 -25 -22
s-25.667 -13.5 -39 -13.5c-58.667 0 -88 26 -88 78c0 30.667 15 61 45 91h-220z" />
    <glyph glyph-name="eogonek" unicode="&#x119;" horiz-adv-x="350" 
d="M60 100v600.001h240v-75h-160v-268h135v-75h-135v-107h160v-75l-18 -17c-11.333 -11.333 -23 -25 -35 -41s-18 -28.333 -18 -37c0 -16 8 -24 24 -24c5.33301 0 11 1.5 17 4.5s10.667 6.16699 14 9.5l5 5l37 -20c-2 -3.33301 -5 -7.83301 -9 -13.5s-12.333 -13 -25 -22
s-25.667 -13.5 -39 -13.5c-58.667 0 -88 26 -88 78c0 29.333 15 59.666 45 90.999h-150z" />
    <glyph glyph-name="Ecaron" unicode="&#x11a;" horiz-adv-x="420" 
d="M60 0v800h310v-75h-230v-413h180v-75h-180v-162h230v-75h-310zM103 959l47 52l67 -64l66 64l47 -52l-95 -87h-37z" />
    <glyph glyph-name="ecaron" unicode="&#x11b;" horiz-adv-x="350" 
d="M60 100v600h240v-75h-160v-268h135v-75h-135v-107h160v-75h-240zM68 859l47 52l67 -64l66 64l47 -52l-95 -87h-37z" />
    <glyph glyph-name="Gcircumflex" unicode="&#x11c;" horiz-adv-x="500" 
d="M140 179c0 -30.667 10.667 -56.667 32 -78s47.333 -32 78 -32c30 0 55.833 10.667 77.5 32s32.5 47.333 32.5 78v58h-110v75h190v-128c0 -52.667 -18.5 -97.5 -55.5 -134.5s-81.833 -55.5 -134.5 -55.5c-53.333 0 -98.333 18.333 -135 55s-55 81.667 -55 135v432
c0 52.667 18.5 97.5 55.5 134.5s81.833 55.5 134.5 55.5s97.5 -18.5 134.5 -55.5s55.5 -81.833 55.5 -134.5v-36h-80v41c0 30 -10.833 55.833 -32.5 77.5s-47.5 32.5 -77.5 32.5c-30.667 0 -56.667 -10.833 -78 -32.5s-32 -47.5 -32 -77.5v-442zM363 924l-47 -52l-66 64
l-67 -64l-47 52l96 87h36z" />
    <glyph glyph-name="gcircumflex" unicode="&#x11d;" 
d="M140 229c0 -16.667 5.83301 -30.834 17.5 -42.501s25.834 -17.5 42.501 -17.5s30.834 5.83301 42.501 17.5s17.5 25.834 17.5 42.501v56h-60v75h140v-126c0 -38.667 -13.667 -71.667 -41 -99s-60.333 -41 -99 -41s-71.667 13.667 -99 41s-41 60.333 -41 99v332
c0 38.667 13.667 71.667 41 99s60.333 41 99 41s71.667 -13.667 99 -41s41 -60.333 41 -99v-54h-80v59c0 16.667 -5.83301 30.834 -17.5 42.501s-25.834 17.5 -42.501 17.5s-30.834 -5.83301 -42.501 -17.5s-17.5 -25.834 -17.5 -42.501v-342zM313 824l-47 -52l-66 64
l-67 -64l-47 52l96 87h36z" />
    <glyph glyph-name="Gbreve" unicode="&#x11e;" horiz-adv-x="500" 
d="M140 179c0 -30.667 10.667 -56.667 32 -78s47.333 -32 78 -32c30 0 55.833 10.667 77.5 32s32.5 47.333 32.5 78v58h-110v75h190v-128c0 -52.667 -18.5 -97.5 -55.5 -134.5s-81.833 -55.5 -134.5 -55.5c-53.333 0 -98.333 18.333 -135 55s-55 81.667 -55 135v432
c0 52.667 18.5 97.5 55.5 134.5s81.833 55.5 134.5 55.5s97.5 -18.5 134.5 -55.5s55.5 -81.833 55.5 -134.5v-36h-80v41c0 30 -10.833 55.833 -32.5 77.5s-47.5 32.5 -77.5 32.5c-30.667 0 -56.667 -10.833 -78 -32.5s-32 -47.5 -32 -77.5v-442zM250 865v65.001
c18 0 32.5 4.16699 43.5 12.5s16.5 19.166 16.5 32.499v17h65v-17c0 -32.667 -10.5 -59.167 -31.5 -79.5s-52.167 -30.5 -93.5 -30.5zM250 930.001v-65.001c-41.333 0 -72.5 10.167 -93.5 30.5s-31.5 46.833 -31.5 79.5v17h65v-17c0 -13.333 5.5 -24.166 16.5 -32.499
s25.5 -12.5 43.5 -12.5z" />
    <glyph glyph-name="gbreve" unicode="&#x11f;" 
d="M140 229c0 -16.667 5.83301 -30.834 17.5 -42.501s25.834 -17.5 42.501 -17.5s30.834 5.83301 42.501 17.5s17.5 25.834 17.5 42.501v56h-60v75h140v-126c0 -38.667 -13.667 -71.667 -41 -99s-60.333 -41 -99 -41s-71.667 13.667 -99 41s-41 60.333 -41 99v332
c0 38.667 13.667 71.667 41 99s60.333 41 99 41s71.667 -13.667 99 -41s41 -60.333 41 -99v-54h-80v59c0 16.667 -5.83301 30.834 -17.5 42.501s-25.834 17.5 -42.501 17.5s-30.834 -5.83301 -42.501 -17.5s-17.5 -25.834 -17.5 -42.501v-342zM200 830
c18 0 32.5 4.16699 43.5 12.5s16.5 19.166 16.5 32.499v17h65v-17c0 -32.667 -10.5 -59.167 -31.5 -79.5s-52.167 -30.5 -93.5 -30.5s-72.5 10.167 -93.5 30.5s-31.5 46.833 -31.5 79.5v17h65v-17c0 -13.333 5.5 -24.166 16.5 -32.499s25.5 -12.5 43.5 -12.5z" />
    <glyph glyph-name="Gdotaccent" unicode="&#x120;" horiz-adv-x="500" 
d="M140 179c0 -30.667 10.667 -56.667 32 -78s47.333 -32 78 -32c30 0 55.833 10.667 77.5 32s32.5 47.333 32.5 78v58h-110v75h190v-128c0 -52.667 -18.5 -97.5 -55.5 -134.5s-81.833 -55.5 -134.5 -55.5c-53.333 0 -98.333 18.333 -135 55s-55 81.667 -55 135v432
c0 52.667 18.5 97.5 55.5 134.5s81.833 55.5 134.5 55.5s97.5 -18.5 134.5 -55.5s55.5 -81.833 55.5 -134.5v-36h-80v41c0 30 -10.833 55.833 -32.5 77.5s-47.5 32.5 -77.5 32.5c-30.667 0 -56.667 -10.833 -78 -32.5s-32 -47.5 -32 -77.5v-442zM204 925
c0 12.667 4.5 23.5 13.5 32.5s19.833 13.5 32.5 13.5s23.5 -4.5 32.5 -13.5s13.5 -19.833 13.5 -32.5s-4.5 -23.5 -13.5 -32.5s-19.833 -13.5 -32.5 -13.5c-13.333 0 -24.333 4.5 -33 13.5s-13 19.833 -13 32.5z" />
    <glyph glyph-name="gdotaccent" unicode="&#x121;" 
d="M140 229c-0.666992 -16.667 5.00098 -30.834 17.001 -42.501s26.333 -17.5 43 -17.5s30.834 5.83301 42.501 17.5s17.5 25.834 17.5 42.501v56h-60v75h140v-126c0 -38.667 -13.667 -71.667 -41 -99s-60.333 -41 -99 -41s-71.667 13.667 -99 41s-41 60.333 -41 99v332
c0 38.667 13.667 71.667 41 99s60.333 41 99 41s71.667 -13.667 99 -41s41 -60.333 41 -99v-54h-80v59c0 16.667 -5.83301 30.834 -17.5 42.501s-25.834 17.5 -42.501 17.5s-30.834 -5.83301 -42.501 -17.5s-17.5 -25.834 -17.5 -42.501v-342zM154.001 825
c0 12.667 4.5 23.5 13.5 32.5s19.833 13.5 32.5 13.5s23.5 -4.5 32.5 -13.5s13.5 -19.833 13.5 -32.5s-4.5 -23.5 -13.5 -32.5s-19.833 -13.5 -32.5 -13.5c-13.333 0 -24.333 4.5 -33 13.5s-13 19.833 -13 32.5z" />
    <glyph glyph-name="Gcommaaccent" unicode="&#x122;" horiz-adv-x="500" 
d="M140 179c0 -30.667 10.667 -56.667 32 -78s47.333 -32 78 -32c30 0 55.833 10.667 77.5 32s32.5 47.333 32.5 78v58h-110v75h190v-128c0 -52.667 -18.5 -97.5 -55.5 -134.5s-81.833 -55.5 -134.5 -55.5c-53.333 0 -98.333 18.333 -135 55s-55 81.667 -55 135v432
c0 52.667 18.5 97.5 55.5 134.5s81.833 55.5 134.5 55.5s97.5 -18.5 134.5 -55.5s55.5 -81.833 55.5 -134.5v-36h-80v41c0 30 -10.833 55.833 -32.5 77.5s-47.5 32.5 -77.5 32.5c-30.667 0 -56.667 -10.833 -78 -32.5s-32 -47.5 -32 -77.5v-442zM210 -50h80v-60
c0 -14.667 -2 -31 -6 -49s-8 -32.333 -12 -43l-7 -16h-55v168z" />
    <glyph glyph-name="gcommaaccent" unicode="&#x123;" 
d="M140 229c0 -16.667 5.83301 -30.834 17.5 -42.501s25.834 -17.5 42.501 -17.5s30.834 5.83301 42.501 17.5s17.5 25.834 17.5 42.501v56h-60v75h140v-126c0 -38.667 -13.667 -71.667 -41 -99s-60.333 -41 -99 -41s-71.667 13.667 -99 41s-41 60.333 -41 99v332
c0 38.667 13.667 71.667 41 99s60.333 41 99 41s71.667 -13.667 99 -41s41 -60.333 41 -99v-54h-80v59c0 16.667 -5.83301 30.834 -17.5 42.501s-25.834 17.5 -42.501 17.5s-30.834 -5.83301 -42.501 -17.5s-17.5 -25.834 -17.5 -42.501v-342zM160 50h80v-60
c0 -14.667 -2 -31 -6 -49s-8 -32.333 -12 -43l-7 -16h-55v168z" />
    <glyph glyph-name="Hcircumflex" unicode="&#x124;" horiz-adv-x="500" 
d="M360 0v237h-220v-237h-80v800h80v-488h220v488h80v-800h-80zM363 924l-47 -52l-66 64l-67 -64l-47 52l96 87h36z" />
    <glyph glyph-name="hcircumflex" unicode="&#x125;" 
d="M260 100v182h-120v-182h-80v600h80v-343h120v343h80v-600h-80zM313 824l-47 -52l-66 64l-67 -64l-47 52l96 87h36z" />
    <glyph glyph-name="Hbar" unicode="&#x126;" horiz-adv-x="500" 
d="M12 497v65h48v238h80v-238h220v238h80v-238h47v-65h-47v-497h-80v237h-220v-237h-80v497h-48zM140 497v-185h220v185h-220z" />
    <glyph glyph-name="hbar" unicode="&#x127;" 
d="M25 552v65h35v83h80v-83h120v83h80v-83h35v-65h-35v-452h-80v182h-120v-182h-80v452h-35zM140 552v-195h120v195h-120z" />
    <glyph glyph-name="Itilde" unicode="&#x128;" horiz-adv-x="215" 
d="M67 0v800h80v-800h-80zM3 889l-9 -5l-27 56l8 5c26.667 14.667 56 22 88 22c11.333 0 26.833 -4 46.5 -12s34.834 -12 45.501 -12c9.33301 0 18.666 1 27.999 3s16.333 4 21 6s7 3.33301 7 4l8 4l27 -56l-8 -4c-26 -14.667 -54.333 -22 -85 -22c-12.667 0 -29 4 -49 12
s-35.333 12 -46 12c-9.33301 0 -18.5 -1 -27.5 -3s-15.833 -4 -20.5 -6s-7 -3.33301 -7 -4z" />
    <glyph glyph-name="itilde" unicode="&#x129;" horiz-adv-x="215" 
d="M67 100v600h80v-600h-80zM3 789l-9 -5l-27 56l8 5c26.667 14.667 56 22 88 22c11.333 0 26.833 -4 46.5 -12s34.834 -12 45.501 -12c9.33301 0 18.666 1 27.999 3s16.333 4 21 6s7 3.33301 7 4l8 4l27 -56l-8 -4c-26 -14.667 -54.333 -22 -85 -22c-12.667 0 -29 4 -49 12
s-35.333 12 -46 12c-9.33301 0 -18.5 -1 -27.5 -3s-15.833 -4 -20.5 -6s-7 -3.33301 -7 -4z" />
    <glyph glyph-name="Imacron" unicode="&#x12a;" horiz-adv-x="215" 
d="M67 0v800h80v-800h-80zM-11 890v65h235v-65h-235z" />
    <glyph glyph-name="imacron" unicode="&#x12b;" horiz-adv-x="215" 
d="M67 100v600h80v-600h-80zM-11 790v65h235v-65h-235z" />
    <glyph glyph-name="Ibreve" unicode="&#x12c;" horiz-adv-x="215" 
d="M67 0v800h80v-800h-80zM107 865v65.001c18 0 32.5 4.16699 43.5 12.5s16.5 19.166 16.5 32.499v17h65v-17c0 -32.667 -10.5 -59.167 -31.5 -79.5s-52.167 -30.5 -93.5 -30.5zM107 930.001v-65.001c-41.333 0 -72.5 10.167 -93.5 30.5s-31.5 46.833 -31.5 79.5v17h65v-17
c0 -13.333 5.5 -24.166 16.5 -32.499s25.5 -12.5 43.5 -12.5z" />
    <glyph glyph-name="ibreve" unicode="&#x12d;" horiz-adv-x="215" 
d="M67 100v600h80v-600h-80zM107 765v65.001c18 0 32.5 4.16699 43.5 12.5s16.5 19.166 16.5 32.499v17h65v-17c0 -32.667 -10.5 -59.167 -31.5 -79.5s-52.167 -30.5 -93.5 -30.5zM107 830.001v-65.001c-41.333 0 -72.5 10.167 -93.5 30.5s-31.5 46.833 -31.5 79.5v17h65
v-17c0 -13.333 5.5 -24.166 16.5 -32.499s25.5 -12.5 43.5 -12.5z" />
    <glyph glyph-name="Iogonek" unicode="&#x12e;" horiz-adv-x="215" 
d="M147 800v-799.999l-17 -17c-12 -11.333 -24 -25 -36 -41s-18 -28.333 -18 -37c0 -16 8 -24 24 -24c5.33301 0 11 1.5 17 4.5s10.667 6.16699 14 9.5l5 5l37 -20c-2 -3.33301 -5 -7.83301 -9 -13.5s-12.333 -13 -25 -22s-25.667 -13.5 -39 -13.5c-58.667 0 -88 26 -88 78
c0 35.333 18.333 68.666 55 99.999v791h80z" />
    <glyph glyph-name="iogonek" unicode="&#x12f;" horiz-adv-x="215" 
d="M147 700v-600l-17 -17c-12 -11.333 -24 -25 -36 -41s-18 -28.333 -18 -37c0 -16 8 -24 24 -24c5.33301 0 11 1.5 17 4.5s10.667 6.16699 14 9.5l5 5l37 -20c-2 -3.33301 -5 -7.83301 -9 -13.5s-12.333 -13 -25 -22s-25.667 -13.5 -39 -13.5c-58.667 0 -88 26 -88 78
c0 34 18.333 67.333 55 100v591h80z" />
    <glyph glyph-name="Idotaccent" unicode="&#x130;" horiz-adv-x="215" 
d="M67 0v800h80v-800h-80zM61 925c0 12.667 4.5 23.5 13.5 32.5s19.833 13.5 32.5 13.5s23.5 -4.5 32.5 -13.5s13.5 -19.833 13.5 -32.5s-4.5 -23.5 -13.5 -32.5s-19.833 -13.5 -32.5 -13.5s-23.5 4.5 -32.5 13.5s-13.5 19.833 -13.5 32.5z" />
    <glyph glyph-name="dotlessi" unicode="&#x131;" horiz-adv-x="215" 
d="M67 100v600h80v-600h-80z" />
    <glyph glyph-name="Jcircumflex" unicode="&#x134;" horiz-adv-x="200" 
d="M-55 -250l-0.000976562 74.999h55c16.667 0 30.834 5.83301 42.501 17.5s17.5 25.834 17.5 42.501v915h80v-910c0 -38.667 -13.667 -71.667 -41 -99s-60.333 -41 -99 -41h-55zM212.999 923.999l-47 -52l-66 64l-67 -64l-47 52l96 87h36z" />
    <glyph glyph-name="jcircumflex" unicode="&#x135;" horiz-adv-x="200" 
d="M-30 -56l-0.000976562 74.999h30c16.667 0 30.834 5.83301 42.501 17.5s17.5 25.834 17.5 42.501v621h80v-616c0 -38.667 -13.667 -71.667 -41 -99s-60.333 -41 -99 -41h-30zM212.999 823.999l-47 -52l-66 64l-67 -64l-47 52l96 87h36z" />
    <glyph glyph-name="Kcommaaccent" unicode="&#x136;" horiz-adv-x="500" 
d="M60 0v800h80v-395l211 395h90l-176 -329l181 -471h-86l-145 378l-75 -141v-237h-80zM205 -50h80v-60c0 -14.667 -2.16699 -31 -6.5 -49s-8.5 -32.333 -12.5 -43l-6 -16h-55v168z" />
    <glyph glyph-name="kcommaaccent" unicode="&#x137;" 
d="M60 100v600h80v-243l118 243h88l-120 -247l120 -353h-84l-86 251l-36 -75v-176h-80zM160 50h80v-60c0 -14.667 -2 -31 -6 -49s-8 -32.333 -12 -43l-7 -16h-55v168z" />
    <glyph glyph-name="kgreenlandic" unicode="&#x138;" 
d="M60 100v600h80v-243l118 243h88l-120 -247l120 -353h-84l-86 251l-36 -75v-176h-80z" />
    <glyph glyph-name="Lacute" unicode="&#x139;" horiz-adv-x="415" 
d="M60 0v800h80v-725h230v-75h-310zM88 868l-19 57l169 62l22 -67z" />
    <glyph glyph-name="lacute" unicode="&#x13a;" horiz-adv-x="315" 
d="M60 100v600h80v-525h135v-75h-215zM88 768l-19 57l169 62l22 -67z" />
    <glyph glyph-name="Lcommaaccent" unicode="&#x13b;" horiz-adv-x="415" 
d="M60 0v800h80v-725h230v-75h-310zM187 -50h80v-60c0 -14.667 -2.16699 -31 -6.5 -49s-8.5 -32.333 -12.5 -43l-6 -16h-55v168z" />
    <glyph glyph-name="lcommaaccent" unicode="&#x13c;" horiz-adv-x="315" 
d="M60 100v600h80v-525h135v-75h-215zM128 50h80v-60c0 -14.667 -2 -31 -6 -49s-8 -32.333 -12 -43l-7 -16h-55v168z" />
    <glyph glyph-name="Lcaron" unicode="&#x13d;" horiz-adv-x="415" 
d="M60 0v800h80v-725h230v-75h-310zM-14 959l47 52l67 -64l66 64l47 -52l-95 -87h-37z" />
    <glyph glyph-name="lcaron" unicode="&#x13e;" horiz-adv-x="315" 
d="M60 100v600h80v-525h135v-75h-215zM-14 859l47 52l67 -64l66 64l47 -52l-95 -87h-37z" />
    <glyph glyph-name="Ldot" unicode="&#x13f;" horiz-adv-x="415" 
d="M60 0v800h80v-725h230v-75h-310zM266 300c0 12.667 4.5 23.5 13.5 32.5s19.833 13.5 32.5 13.5s23.5 -4.5 32.5 -13.5s13.5 -19.833 13.5 -32.5s-4.5 -23.5 -13.5 -32.5s-19.833 -13.5 -32.5 -13.5c-13.333 0 -24.333 4.33301 -33 13s-13 19.667 -13 33z" />
    <glyph glyph-name="ldot" unicode="&#x140;" horiz-adv-x="315" 
d="M60 100v600h80v-525h135v-75h-215zM217 400c0 12.667 4.5 23.5 13.5 32.5s19.833 13.5 32.5 13.5s23.5 -4.5 32.5 -13.5s13.5 -19.833 13.5 -32.5s-4.5 -23.5 -13.5 -32.5s-19.833 -13.5 -32.5 -13.5s-23.5 4.33301 -32.5 13s-13.5 19.667 -13.5 33z" />
    <glyph glyph-name="Lslash" unicode="&#x141;" horiz-adv-x="415" 
d="M-14 188l-28 70l102 41v501h80v-469l73 30l29 -70l-102 -41v-175h230v-75h-310v218z" />
    <glyph glyph-name="lslash" unicode="&#x142;" horiz-adv-x="315" 
d="M10 243l-29 69l79 32v356h80v-324l50 21l28 -70l-78 -32v-120h135v-75h-215v163z" />
    <glyph glyph-name="Nacute" unicode="&#x143;" horiz-adv-x="525" 
d="M385 0l-245 590v-590h-80v800h80l245 -590v590h80v-800h-80zM198 868l-19 57l169 62l22 -67z" />
    <glyph glyph-name="nacute" unicode="&#x144;" horiz-adv-x="425" 
d="M285 100l-145 388v-388h-80v600h80l145 -391v391h80v-600h-80zM148 768l-19 57l169 62l22 -67z" />
    <glyph glyph-name="Ncommaaccent" unicode="&#x145;" horiz-adv-x="525" 
d="M385 0l-245 590v-590h-80v800h80l245 -590v590h80v-800h-80zM220 -50h80v-60c0 -14.667 -2 -31 -6 -49s-8 -32.333 -12 -43l-7 -16h-55v168z" />
    <glyph glyph-name="ncommaaccent" unicode="&#x146;" horiz-adv-x="425" 
d="M285 100l-145 388v-388h-80v600h80l145 -391v391h80v-600h-80zM170 50h80v-60c0 -14.667 -2 -31 -6 -49s-8 -32.333 -12 -43l-7 -16h-85z" />
    <glyph glyph-name="Ncaron" unicode="&#x147;" horiz-adv-x="525" 
d="M385 0l-245 590v-590h-80v800h80l245 -590v590h80v-800h-80zM148 959l47 52l67 -64l66 64l47 -52l-95 -87h-37z" />
    <glyph glyph-name="ncaron" unicode="&#x148;" horiz-adv-x="425" 
d="M285 100l-145 388v-388h-80v600h80l145 -391v391h80v-600h-80zM98 859l47 52l67 -64l66 64l47 -52l-95 -87h-37z" />
    <glyph glyph-name="Eng" unicode="&#x14a;" horiz-adv-x="525" 
d="M270 -250l-0.000976562 74.999h55c16.667 0 30.834 5.83301 42.501 17.5s17.5 25.834 17.5 42.501v115l-245 590v-590h-80v800h80l245 -590v590h80v-910c0 -38.667 -13.667 -71.667 -41 -99s-60.333 -41 -99 -41h-55z" />
    <glyph glyph-name="eng" unicode="&#x14b;" horiz-adv-x="425" 
d="M195 -56l-0.000976562 74.999h30c16.667 0 30.834 5.83301 42.501 17.5s17.5 25.834 17.5 42.501v21l-145 388v-388h-80v600h80l145 -391v391h80v-616c0 -38.667 -13.667 -71.667 -41 -99s-60.333 -41 -99 -41h-30z" />
    <glyph glyph-name="Omacron" unicode="&#x14c;" horiz-adv-x="500" 
d="M60 184v432c0 52.667 18.5 97.5 55.5 134.5s81.833 55.5 134.5 55.5s97.5 -18.5 134.5 -55.5s55.5 -81.833 55.5 -134.5v-432c0 -52.667 -18.5 -97.5 -55.5 -134.5s-81.833 -55.5 -134.5 -55.5c-53.333 0 -98.333 18.333 -135 55s-55 81.667 -55 135zM140 179
c0 -30.667 10.667 -56.667 32 -78s47.333 -32 78 -32c30 0 55.833 10.667 77.5 32s32.5 47.333 32.5 78v442c0 30 -10.833 55.833 -32.5 77.5s-47.5 32.5 -77.5 32.5c-30.667 0 -56.667 -10.833 -78 -32.5s-32 -47.5 -32 -77.5v-442zM117 890v65h265v-65h-265z" />
    <glyph glyph-name="omacron" unicode="&#x14d;" 
d="M60 234v332c0 38.667 13.667 71.667 41 99s60.333 41 99 41s71.667 -13.667 99 -41s41 -60.333 41 -99v-332c0 -38.667 -13.667 -71.667 -41 -99s-60.333 -41 -99 -41s-71.667 13.667 -99 41s-41 60.333 -41 99zM140 229c0 -16.667 5.83301 -30.834 17.5 -42.501
s25.834 -17.5 42.501 -17.5s30.834 5.83301 42.501 17.5s17.5 25.834 17.5 42.501v342c0 16.667 -5.83301 30.834 -17.5 42.501s-25.834 17.5 -42.501 17.5s-30.834 -5.83301 -42.501 -17.5s-17.5 -25.834 -17.5 -42.501v-342zM82 790v65h235v-65h-235z" />
    <glyph glyph-name="Obreve" unicode="&#x14e;" horiz-adv-x="500" 
d="M60 184v432c0 52.667 18.5 97.5 55.5 134.5s81.833 55.5 134.5 55.5s97.5 -18.5 134.5 -55.5s55.5 -81.833 55.5 -134.5v-432c0 -52.667 -18.5 -97.5 -55.5 -134.5s-81.833 -55.5 -134.5 -55.5c-53.333 0 -98.333 18.333 -135 55s-55 81.667 -55 135zM140 179
c0 -30.667 10.667 -56.667 32 -78s47.333 -32 78 -32c30 0 55.833 10.667 77.5 32s32.5 47.333 32.5 78v442c0 30 -10.833 55.833 -32.5 77.5s-47.5 32.5 -77.5 32.5c-30.667 0 -56.667 -10.833 -78 -32.5s-32 -47.5 -32 -77.5v-442zM250 865v65.001
c18 0 32.5 4.16699 43.5 12.5s16.5 19.166 16.5 32.499v17h65v-17c0 -32.667 -10.5 -59.167 -31.5 -79.5s-52.167 -30.5 -93.5 -30.5zM250 930.001v-65.001c-41.333 0 -72.5 10.167 -93.5 30.5s-31.5 46.833 -31.5 79.5v17h65v-17c0 -13.333 5.5 -24.166 16.5 -32.499
s25.5 -12.5 43.5 -12.5z" />
    <glyph glyph-name="obreve" unicode="&#x14f;" 
d="M60 234v332c0 38.667 13.667 71.667 41 99s60.333 41 99 41s71.667 -13.667 99 -41s41 -60.333 41 -99v-332c0 -38.667 -13.667 -71.667 -41 -99s-60.333 -41 -99 -41s-71.667 13.667 -99 41s-41 60.333 -41 99zM140 229c0 -16.667 5.83301 -30.834 17.5 -42.501
s25.834 -17.5 42.501 -17.5s30.834 5.83301 42.501 17.5s17.5 25.834 17.5 42.501v342c0 16.667 -5.83301 30.834 -17.5 42.501s-25.834 17.5 -42.501 17.5s-30.834 -5.83301 -42.501 -17.5s-17.5 -25.834 -17.5 -42.501v-342zM200 765v65.001c18 0 32.5 4.16699 43.5 12.5
s16.5 19.166 16.5 32.499v17h65v-17c0 -32.667 -10.5 -59.167 -31.5 -79.5s-52.167 -30.5 -93.5 -30.5zM200 830.001v-65.001c-41.333 0 -72.5 10.167 -93.5 30.5s-31.5 46.833 -31.5 79.5v17h65v-17c0 -13.333 5.5 -24.166 16.5 -32.499s25.5 -12.5 43.5 -12.5z" />
    <glyph glyph-name="Ohungarumlaut" unicode="&#x150;" horiz-adv-x="500" 
d="M60 184v432c0 52.667 18.5 97.5 55.5 134.5s81.833 55.5 134.5 55.5s97.5 -18.5 134.5 -55.5s55.5 -81.833 55.5 -134.5v-432c0 -52.667 -18.5 -97.5 -55.5 -134.5s-81.833 -55.5 -134.5 -55.5c-53.333 0 -98.333 18.333 -135 55s-55 81.667 -55 135zM140 179
c0 -30.667 10.667 -56.667 32 -78s47.333 -32 78 -32c30 0 55.833 10.667 77.5 32s32.5 47.333 32.5 78v442c0 30 -10.833 55.833 -32.5 77.5s-47.5 32.5 -77.5 32.5c-30.667 0 -56.667 -10.833 -78 -32.5s-32 -47.5 -32 -77.5v-442zM179 869l-40 46l78 71l43 -52zM329 869
l-40 46l78 71l43 -52z" />
    <glyph glyph-name="ohungarumlaut" unicode="&#x151;" 
d="M60 234v332c0 38.667 13.667 71.667 41 99s60.333 41 99 41s71.667 -13.667 99 -41s41 -60.333 41 -99v-332c0 -38.667 -13.667 -71.667 -41 -99s-60.333 -41 -99 -41s-71.667 13.667 -99 41s-41 60.333 -41 99zM140 229c0 -16.667 5.83301 -30.834 17.5 -42.501
s25.834 -17.5 42.501 -17.5s30.834 5.83301 42.501 17.5s17.5 25.834 17.5 42.501v342c0 16.667 -5.83301 30.834 -17.5 42.501s-25.834 17.5 -42.501 17.5s-30.834 -5.83301 -42.501 -17.5s-17.5 -25.834 -17.5 -42.501v-342zM124 769l-40 46l78 71l43 -52zM274 769l-40 46
l78 71l43 -52z" />
    <glyph glyph-name="OE" unicode="&#x152;" horiz-adv-x="720" 
d="M360 0l-0.000976562 28c-32 -22.667 -68.667 -34 -110 -34c-53.333 0 -98.333 18.333 -135 55s-55 81.667 -55 135v432c0 52.667 18.5 97.5 55.5 134.5s81.833 55.5 134.5 55.5c40.667 0 77.334 -11.667 110.001 -35v29h310v-75h-230v-413h180v-75h-180v-162h230v-75
h-310zM139.999 179c0 -30.667 10.6699 -56.666 32.0029 -77.999s47.333 -32 78 -32c29.333 0 54.666 10.167 75.999 30.5s32.666 45.166 33.999 74.499v451c-1.33301 29.333 -12.833 54.333 -34.5 75s-46.834 31 -75.501 31c-30.667 0 -56.667 -10.833 -78 -32.5
s-32 -47.5 -32 -77.5v-442z" />
    <glyph glyph-name="oe" unicode="&#x153;" horiz-adv-x="550" 
d="M260 100v7c-19.333 -8.66699 -39.333 -13 -60 -13c-38.667 0 -71.667 13.667 -99 41s-41 60.333 -41 99v332c0 38.667 13.667 71.667 41 99s60.333 41 99 41c21.333 0 41.333 -4.66699 60 -14v8h240v-75h-160v-268h135v-75h-135v-107h160v-75h-240zM140 229
c0 -16.667 5.83203 -30.833 17.499 -42.5s25.834 -17.5 42.501 -17.5s30.834 5.83301 42.501 17.5s17.5 25.834 17.5 42.501v347c-1.33301 15.333 -7.83301 28.333 -19.5 39s-25.167 16 -40.5 16c-16.667 0 -30.834 -5.83301 -42.501 -17.5s-17.5 -25.834 -17.5 -42.501
v-342z" />
    <glyph glyph-name="Racute" unicode="&#x154;" horiz-adv-x="500" 
d="M140 0l-80 0.00195312v800h190c52.667 0 97.5 -18.5 134.5 -55.5s55.5 -81.833 55.5 -134.5v-183c0 -64 -25.667 -115 -77 -153c51.333 -37.333 77 -88 77 -152v-122h-80v127c0 29.333 -10.333 54.666 -31 75.999s-45.667 32.666 -75 33.999h-114v-237zM140 725.002v-413
h114c29.333 1.33301 54.333 12.5 75 33.5s31 46.5 31 76.5v193c0 30 -10.833 55.833 -32.5 77.5s-47.5 32.5 -77.5 32.5h-110zM173 868.002l-19 57l169 62l22 -67z" />
    <glyph glyph-name="racute" unicode="&#x155;" 
d="M60 100l0.000976562 599.999h140c38.667 0 71.667 -13.667 99 -41s41 -60.333 41 -99v-138c0 -40 -15 -74.333 -45 -103c30 -28 45 -62 45 -102v-117h-80v122c0 16.667 -5.83301 30.834 -17.5 42.501s-25.834 17.5 -42.501 17.5h-60v-182h-80zM140.001 624.999
l0.000976562 -268h65c15.333 1.33301 28.333 7.66602 39 18.999s16 25 16 41v148c0 16.667 -5.83301 30.834 -17.5 42.501s-25.834 17.5 -42.501 17.5h-60zM123.002 767.999l-19 57l169 62l22 -67z" />
    <glyph glyph-name="Rcommaaccent" unicode="&#x156;" horiz-adv-x="500" 
d="M140 0h-80v800h190c52.667 0 97.5 -18.5 134.5 -55.5s55.5 -81.833 55.5 -134.5v-183c0 -64 -25.667 -115 -77 -153c51.333 -37.333 77 -88 77 -152v-122h-80v127c0 30.667 -10.833 56.667 -32.5 78s-47.5 32 -77.5 32h-110v-237zM140 725v-413h114
c29.333 1.33301 54.333 12.5 75 33.5s31 46.5 31 76.5v193c0 30 -10.833 55.833 -32.5 77.5s-47.5 32.5 -77.5 32.5h-110zM210 -50h80v-60c0 -14.667 -2 -31 -6 -49s-8 -32.333 -12 -43l-7 -16h-55v168z" />
    <glyph glyph-name="rcommaaccent" unicode="&#x157;" 
d="M60 282v418h140c38.667 0 71.667 -13.667 99 -41s41 -60.333 41 -99v-138c0 -40 -15 -74.333 -45 -103c30 -28 45 -62 45 -102v-117h-80v122c0 15.333 -5.33301 28.833 -16 40.5s-23.667 18.167 -39 19.5h-145zM140 625l0.000976562 -268h65
c15.333 1.33301 28.333 7.66602 39 18.999s16 25 16 41v148c0 16.667 -5.83301 30.834 -17.5 42.501s-25.834 17.5 -42.501 17.5h-60zM60.001 100v182h80v-182h-80zM160.001 50h80v-60c0 -14.667 -2 -31 -6 -49s-8 -32.333 -12 -43l-7 -16h-55v168z" />
    <glyph glyph-name="Rcaron" unicode="&#x158;" horiz-adv-x="500" 
d="M140 0l-80 0.00195312v800h190c52.667 0 97.5 -18.5 134.5 -55.5s55.5 -81.833 55.5 -134.5v-183c0 -64 -25.667 -115 -77 -153c51.333 -37.333 77 -88 77 -152v-122h-80v127c0 29.333 -10.333 54.666 -31 75.999s-45.667 32.666 -75 33.999h-114v-237zM140 725.002v-413
h114c29.333 1.33301 54.333 12.5 75 33.5s31 46.5 31 76.5v193c0 30 -10.833 55.833 -32.5 77.5s-47.5 32.5 -77.5 32.5h-110zM111 959.002l47 52l67 -64l66 64l47 -52l-95 -87h-37z" />
    <glyph glyph-name="rcaron" unicode="&#x159;" 
d="M60 282v418h140c38.667 0 71.667 -13.667 99 -41s41 -60.333 41 -99v-138c0 -40 -15 -74.333 -45 -103c30 -28 45 -62 45 -102v-117h-80v122c0 15.333 -5.33301 28.833 -16 40.5s-23.667 18.167 -39 19.5h-145zM140 625l0.000976562 -268h65
c15.333 1.33301 28.333 7.66602 39 18.999s16 25 16 41v148c0 16.667 -5.83301 30.834 -17.5 42.501s-25.834 17.5 -42.501 17.5h-60zM76.001 859l47 52l67 -64l66 64l47 -52l-95 -87h-37zM60.001 100v182h80l-17 -182h-63z" />
    <glyph glyph-name="Sacute" unicode="&#x15a;" horiz-adv-x="490" 
d="M198 868l-19 57l169 62l22 -67zM55 220h80v-41c0 -30.667 10.667 -56.667 32 -78s47.333 -32 78 -32s56.667 10.667 78 32s32 47.333 32 78v5c0 28 -9.66699 52.333 -29 73l-203 221c-41.333 36 -62 82 -62 138c0 52.667 17.833 97.5 53.5 134.5s79.167 55.5 130.5 55.5
c50.667 0 94 -18.5 130 -55.5s54 -81.833 54 -134.5v-36h-80v41c0 30 -10.167 55.833 -30.5 77.5s-44.833 32.5 -73.5 32.5c-29.333 0 -54 -10.833 -74 -32.5s-30 -47.5 -30 -77.5v-5c-0.666992 -26.667 9.33301 -51.667 30 -75l203 -220c40.667 -37.333 61 -83 61 -137
c0 -52.667 -18.5 -97.5 -55.5 -134.5s-81.833 -55.5 -134.5 -55.5s-97.5 18.5 -134.5 55.5s-55.5 81.833 -55.5 134.5v36z" />
    <glyph glyph-name="sacute" unicode="&#x15b;" horiz-adv-x="390" 
d="M55 280l80 0.000976562v-51c0 -16.667 5.83301 -30.834 17.5 -42.501s25.834 -17.5 42.501 -17.5s30.834 5.83301 42.501 17.5s17.5 25.834 17.5 42.501v5c0 12 -3 22 -9 30l-156 211c-23.333 25.333 -35 55.666 -35 90.999c0 38.667 13.667 71.667 41 99
s60.333 41 99 41s71.667 -13.667 99 -41s41 -60.333 41 -99v-46h-80v51c0 16.667 -5.83301 30.834 -17.5 42.501s-25.834 17.5 -42.501 17.5s-30.834 -5.83301 -42.501 -17.5s-17.5 -25.834 -17.5 -42.501v-5c0 -12 3.33301 -23 10 -33l156 -211
c22.667 -26 34 -55.333 34 -88c0 -38.667 -13.667 -71.667 -41 -99s-60.333 -41 -99 -41s-71.667 13.667 -99 41s-41 60.333 -41 99v46zM143 768.001l-19 57l169 62l22 -67z" />
    <glyph glyph-name="Scircumflex" unicode="&#x15c;" horiz-adv-x="490" 
d="M55 220h80v-41c0 -30.667 10.667 -56.667 32 -78s47.333 -32 78 -32s56.667 10.667 78 32s32 47.333 32 78v5c0 28 -9.66699 52.333 -29 73l-203 221c-41.333 36 -62 82 -62 138c0 52.667 17.833 97.5 53.5 134.5s79.167 55.5 130.5 55.5c50.667 0 94 -18.5 130 -55.5
s54 -81.833 54 -134.5v-36h-80v41c0 30 -10.167 55.833 -30.5 77.5s-44.833 32.5 -73.5 32.5c-29.333 0 -54 -10.833 -74 -32.5s-30 -47.5 -30 -77.5v-5c-0.666992 -26.667 9.33301 -51.667 30 -75l203 -220c40.667 -37.333 61 -83 61 -137
c0 -52.667 -18.5 -97.5 -55.5 -134.5s-81.833 -55.5 -134.5 -55.5s-97.5 18.5 -134.5 55.5s-55.5 81.833 -55.5 134.5v36zM358 924l-47 -52l-66 64l-67 -64l-47 52l96 87h36z" />
    <glyph glyph-name="scircumflex" unicode="&#x15d;" horiz-adv-x="390" 
d="M55 280l80 0.000976562v-51c0 -16.667 5.83301 -30.834 17.5 -42.501s25.834 -17.5 42.501 -17.5s30.834 5.83301 42.501 17.5s17.5 25.834 17.5 42.501v5c0 12 -3 22 -9 30l-156 211c-23.333 25.333 -35 55.666 -35 90.999c0 38.667 13.667 71.667 41 99
s60.333 41 99 41s71.667 -13.667 99 -41s41 -60.333 41 -99v-46h-80v51c0 16.667 -5.83301 30.834 -17.5 42.501s-25.834 17.5 -42.501 17.5s-30.834 -5.83301 -42.501 -17.5s-17.5 -25.834 -17.5 -42.501v-5c0 -12 3.33301 -23 10 -33l156 -211
c22.667 -26 34 -55.333 34 -88c0 -38.667 -13.667 -71.667 -41 -99s-60.333 -41 -99 -41s-71.667 13.667 -99 41s-41 60.333 -41 99v46zM308 824.001l-47 -52l-66 64l-67 -64l-47 52l96 87h36z" />
    <glyph glyph-name="Scedilla" unicode="&#x15e;" horiz-adv-x="490" 
d="M55 220l79.999 0.000976562v-41c0 -30.667 10.667 -56.667 32 -78s47.333 -32 78 -32s56.667 10.667 78 32s32 47.333 32 78v5c0 28 -9.66699 52.333 -29 73l-203 221c-41.333 36 -62 82 -62 138c0 52.667 17.833 97.5 53.5 134.5s79.167 55.5 130.5 55.5
c50.667 0 94 -18.5 130 -55.5s54 -81.833 54 -134.5v-36h-80v41c0 30 -10.167 55.833 -30.5 77.5s-44.833 32.5 -73.5 32.5c-29.333 0 -54 -10.833 -74 -32.5s-30 -47.5 -30 -77.5v-5c-0.666992 -26.667 9.33301 -51.667 30 -75l203 -220c40.667 -37.333 61 -83 61 -137
c0 -48.667 -16 -90.834 -48 -126.501s-72 -56.167 -120 -61.5l-12 -25h29c18.667 0 33.167 -6.66699 43.5 -20s15.5 -30.333 15.5 -51c0 -22.667 -9.83301 -43 -29.5 -61s-47.5 -27 -83.5 -27c-18.667 0 -36 4 -52 12s-27.333 16 -34 24l-10 12l17 29
c23.333 -24.667 49.666 -37 78.999 -37c14.667 0 25.834 4.83301 33.501 14.5s11.5 20.834 11.5 33.501c0 9.33301 -3.16699 17.5 -9.5 24.5s-15.166 10.5 -26.499 10.5h-61l35 62c-45.333 7.33301 -83 28.666 -113 63.999s-45 76.333 -45 123v36z" />
    <glyph glyph-name="scedilla" unicode="&#x15f;" horiz-adv-x="390" 
d="M55 280l79.999 0.000976562v-51c0 -16.667 5.83301 -30.834 17.5 -42.501s25.834 -17.5 42.501 -17.5s30.834 5.83301 42.501 17.5s17.5 25.834 17.5 42.501v5c0 12 -3 22 -9 30l-156 211c-23.333 25.333 -35 55.666 -35 90.999c0 38.667 13.667 71.667 41 99
s60.333 41 99 41s71.667 -13.667 99 -41s41 -60.333 41 -99v-46h-80v51c0 16.667 -5.83301 30.834 -17.5 42.501s-25.834 17.5 -42.501 17.5s-30.834 -5.83301 -42.501 -17.5s-17.5 -25.834 -17.5 -42.501v-5c0 -12 3.33301 -23 10 -33l156 -211
c22.667 -26 34 -55.333 34 -88c0 -33.333 -10.667 -62.833 -32 -88.5s-48 -41.834 -80 -48.501l-13 -26h29c18.667 0 33.167 -6.66699 43.5 -20s15.5 -30.333 15.5 -51c0 -22.667 -9.83301 -43 -29.5 -61s-47.5 -27 -83.5 -27c-18.667 0 -36 4 -52 12s-27.333 16 -34 24
l-10 12l17 29c23.333 -24.667 49.666 -37 78.999 -37c14.667 0 25.834 4.83301 33.501 14.5s11.5 20.834 11.5 33.501c0 9.33301 -3.16699 17.5 -9.5 24.5s-15.166 10.5 -26.499 10.5h-61l35 62c-32 6 -58.833 21.833 -80.5 47.5s-32.5 55.5 -32.5 89.5v46z" />
    <glyph glyph-name="Scaron" unicode="&#x160;" horiz-adv-x="490" 
d="M55 220h80v-41c0 -30.667 10.667 -56.667 32 -78s47.333 -32 78 -32s56.667 10.667 78 32s32 47.333 32 78v5c0 28 -9.66699 52.333 -29 73l-203 221c-41.333 36 -62 82 -62 138c0 52.667 17.833 97.5 53.5 134.5s79.167 55.5 130.5 55.5c50.667 0 94 -18.5 130 -55.5
s54 -81.833 54 -134.5v-36h-80v41c0 30 -10.167 55.833 -30.5 77.5s-44.833 32.5 -73.5 32.5c-29.333 0 -54 -10.833 -74 -32.5s-30 -47.5 -30 -77.5v-5c-0.666992 -26.667 9.33301 -51.667 30 -75l203 -220c40.667 -37.333 61 -83 61 -137
c0 -52.667 -18.5 -97.5 -55.5 -134.5s-81.833 -55.5 -134.5 -55.5s-97.5 18.5 -134.5 55.5s-55.5 81.833 -55.5 134.5v36zM131 959l47 52l67 -64l66 64l47 -52l-95 -87h-37z" />
    <glyph glyph-name="scaron" unicode="&#x161;" horiz-adv-x="390" 
d="M55 280l80 0.000976562v-51c0 -16.667 5.83301 -30.834 17.5 -42.501s25.834 -17.5 42.501 -17.5s30.834 5.83301 42.501 17.5s17.5 25.834 17.5 42.501v5c0 12 -3 22 -9 30l-156 211c-23.333 25.333 -35 55.666 -35 90.999c0 38.667 13.667 71.667 41 99
s60.333 41 99 41s71.667 -13.667 99 -41s41 -60.333 41 -99v-46h-80v51c0 16.667 -5.83301 30.834 -17.5 42.501s-25.834 17.5 -42.501 17.5s-30.834 -5.83301 -42.501 -17.5s-17.5 -25.834 -17.5 -42.501v-5c0 -12 3.33301 -23 10 -33l156 -211
c22.667 -26 34 -55.333 34 -88c0 -38.667 -13.667 -71.667 -41 -99s-60.333 -41 -99 -41s-71.667 13.667 -99 41s-41 60.333 -41 99v46zM81 859.001l47 52l67 -64l66 64l47 -52l-95 -87h-37z" />
    <glyph glyph-name="Tcommaaccent" unicode="&#x162;" horiz-adv-x="410" 
d="M30 725v75h350v-75h-136v-725h-80v725h-134zM164 -50h80v-60c0 -14.667 -2 -31 -6 -49s-8 -32.333 -12 -43l-7 -16h-55v168z" />
    <glyph glyph-name="tcommaaccent" unicode="&#x163;" horiz-adv-x="310" 
d="M30 625v75h250v-75h-85v-525h-80v525h-85zM115 50h80v-60c0 -14.667 -2.16699 -31 -6.5 -49s-8.5 -32.333 -12.5 -43l-6 -16h-55v168z" />
    <glyph glyph-name="Tcaron" unicode="&#x164;" horiz-adv-x="410" 
d="M30 725v75h350v-75h-136v-725h-80v725h-134zM91 959l47 52l67 -64l66 64l47 -52l-95 -87h-37z" />
    <glyph glyph-name="tcaron" unicode="&#x165;" horiz-adv-x="310" 
d="M30 625v75h250v-75h-85v-525h-80v525h-85zM41 859l47 52l67 -64l66 64l47 -52l-95 -87h-37z" />
    <glyph glyph-name="Tbar" unicode="&#x166;" horiz-adv-x="410" 
d="M30 725v75h350v-75h-136v-413h93v-65h-93v-247h-80v247h-92v65h92v413h-134z" />
    <glyph glyph-name="tbar" unicode="&#x167;" horiz-adv-x="310" 
d="M30 625v75h250v-75h-85v-268h77v-65h-77v-192h-80v192h-78v65h78v268h-85z" />
    <glyph glyph-name="Utilde" unicode="&#x168;" horiz-adv-x="500" 
d="M140 179c-0.666992 -30.667 9.83203 -56.667 31.499 -78s47.834 -32 78.501 -32c30 0 55.833 10.667 77.5 32s32.5 47.333 32.5 78v621h80v-616c0 -52.667 -18.5 -97.5 -55.5 -134.5s-81.833 -55.5 -134.5 -55.5c-53.333 0 -98.333 18.333 -135 55s-55 81.667 -55 135
v616h80v-621zM145.999 889l-9 -5l-27 56l8 5c26.667 14.667 56 22 88 22c11.333 0 26.833 -4 46.5 -12s34.834 -12 45.501 -12c9.33301 0 18.666 1 27.999 3s16.333 4 21 6s7 3.33301 7 4l8 4l27 -56l-8 -4c-26 -14.667 -54.333 -22 -85 -22c-12 0 -28.333 4 -49 12
s-36 12 -46 12c-9.33301 0 -18.5 -1 -27.5 -3s-15.833 -4 -20.5 -6s-7 -3.33301 -7 -4z" />
    <glyph glyph-name="utilde" unicode="&#x169;" 
d="M140 229c0 -16.667 5.83105 -30.834 17.498 -42.501s25.834 -17.5 42.501 -17.5s30.834 5.83301 42.501 17.5s17.5 25.834 17.5 42.501v471h80v-466c0 -38.667 -13.667 -71.667 -41 -99s-60.333 -41 -99 -41s-71.667 13.667 -99 41s-41 60.333 -41 99v466h80v-471z
M95.998 789l-9 -5l-27 56l8 5c26.667 14.667 56 22 88 22c11.333 0 26.833 -4 46.5 -12s34.834 -12 45.501 -12c9.33301 0 18.666 1 27.999 3s16.333 4 21 6s7 3.33301 7 4l8 4l27 -56l-8 -4c-26 -14.667 -54.333 -22 -85 -22c-12 0 -28.167 4 -48.5 12s-35.833 12 -46.5 12
c-9.33301 0 -18.5 -1 -27.5 -3s-15.833 -4 -20.5 -6s-7 -3.33301 -7 -4z" />
    <glyph glyph-name="Umacron" unicode="&#x16a;" horiz-adv-x="500" 
d="M140 179c0 -30.667 10.667 -56.667 32 -78s47.333 -32 78 -32c30 0 55.833 10.667 77.5 32s32.5 47.333 32.5 78v621h80v-616c0 -52.667 -18.5 -97.5 -55.5 -134.5s-81.833 -55.5 -134.5 -55.5c-53.333 0 -98.333 18.333 -135 55s-55 81.667 -55 135v616h80v-621z
M117 890v65h265v-65h-265z" />
    <glyph glyph-name="umacron" unicode="&#x16b;" 
d="M140 229c0 -16.667 5.83105 -30.834 17.498 -42.501s25.834 -17.5 42.501 -17.5s30.834 5.83301 42.501 17.5s17.5 25.834 17.5 42.501v471h80v-466c0 -38.667 -13.667 -71.667 -41 -99s-60.333 -41 -99 -41s-71.667 13.667 -99 41s-41 60.333 -41 99v466h80v-471z
M81.998 790v65h235v-65h-235z" />
    <glyph glyph-name="Ubreve" unicode="&#x16c;" horiz-adv-x="500" 
d="M140 179c0 -30.667 10.667 -56.667 32 -78s47.333 -32 78 -32c30 0 55.833 10.667 77.5 32s32.5 47.333 32.5 78v621h80v-616c0 -52.667 -18.5 -97.5 -55.5 -134.5s-81.833 -55.5 -134.5 -55.5c-53.333 0 -98.333 18.333 -135 55s-55 81.667 -55 135v616h80v-621z
M250 930c18 0 32.5 4.16699 43.5 12.5s16.5 19.166 16.5 32.499v17h65v-17c0 -32.667 -10.5 -59.167 -31.5 -79.5s-52.167 -30.5 -93.5 -30.5s-72.5 10.167 -93.5 30.5s-31.5 46.833 -31.5 79.5v17h65v-17c0 -13.333 5.5 -24.166 16.5 -32.499s25.5 -12.5 43.5 -12.5z" />
    <glyph glyph-name="ubreve" unicode="&#x16d;" 
d="M140 229c0 -16.667 5.83105 -30.834 17.498 -42.501s25.834 -17.5 42.501 -17.5s30.834 5.83301 42.501 17.5s17.5 25.834 17.5 42.501v471h80v-466c0 -38.667 -13.667 -71.667 -41 -99s-60.333 -41 -99 -41s-71.667 13.667 -99 41s-41 60.333 -41 99v466h80v-471z
M199.998 830c18 0 32.5 4.16699 43.5 12.5s16.5 19.166 16.5 32.499v17h65v-17c0 -32.667 -10.5 -59.167 -31.5 -79.5s-52.167 -30.5 -93.5 -30.5s-72.5 10.167 -93.5 30.5s-31.5 46.833 -31.5 79.5v17h65v-17c0 -13.333 5.5 -24.166 16.5 -32.499s25.5 -12.5 43.5 -12.5z
" />
    <glyph glyph-name="Uring" unicode="&#x16e;" horiz-adv-x="500" 
d="M140 179c0 -30.667 10.667 -56.667 32 -78s47.333 -32 78 -32c30 0 55.833 10.667 77.5 32s32.5 47.333 32.5 78v621h80v-616c0 -52.667 -18.5 -97.5 -55.5 -134.5s-81.833 -55.5 -134.5 -55.5c-53.333 0 -98.333 18.333 -135 55s-55 81.667 -55 135v616h80v-621z
M140 925c0 30 10.667 55.833 32 77.5s47.333 32.5 78 32.5c30 0 55.833 -10.833 77.5 -32.5s32.5 -47.5 32.5 -77.5c0 -30.667 -10.833 -56.667 -32.5 -78s-47.5 -32 -77.5 -32c-30.667 0 -56.667 10.667 -78 32s-32 47.333 -32 78zM205 925
c0 -12.667 4.33398 -23.334 13.001 -32.001s19.334 -13 32.001 -13c12 0 22.5 4.33301 31.5 13s13.5 19.334 13.5 32.001c0 12 -4.33301 22.5 -13 31.5s-19.334 13.5 -32.001 13.5s-23.334 -4.5 -32.001 -13.5s-13 -19.5 -13 -31.5z" />
    <glyph glyph-name="uring" unicode="&#x16f;" 
d="M140 229c0 -16.667 5.83105 -30.834 17.498 -42.501s25.834 -17.5 42.501 -17.5s30.834 5.83301 42.501 17.5s17.5 25.834 17.5 42.501v471h80v-466c0 -38.667 -13.667 -71.667 -41 -99s-60.333 -41 -99 -41s-71.667 13.667 -99 41s-41 60.333 -41 99v466h80v-471z
M89.998 825c0 30 10.667 55.833 32 77.5s47.333 32.5 78 32.5c30 0 55.833 -10.833 77.5 -32.5s32.5 -47.5 32.5 -77.5c0 -30.667 -10.833 -56.667 -32.5 -78s-47.5 -32 -77.5 -32c-30.667 0 -56.667 10.667 -78 32s-32 47.333 -32 78zM154.998 825
c0 -12.667 4.33398 -23.334 13.001 -32.001s19.334 -13 32.001 -13c12 0 22.5 4.33301 31.5 13s13.5 19.334 13.5 32.001c0 12 -4.33301 22.5 -13 31.5s-19.334 13.5 -32.001 13.5s-23.334 -4.5 -32.001 -13.5s-13 -19.5 -13 -31.5z" />
    <glyph glyph-name="Uhungarumlaut" unicode="&#x170;" horiz-adv-x="500" 
d="M140 179c0 -30.667 10.667 -56.667 32 -78s47.333 -32 78 -32c30 0 55.833 10.667 77.5 32s32.5 47.333 32.5 78v621h80v-616c0 -52.667 -18.5 -97.5 -55.5 -134.5s-81.833 -55.5 -134.5 -55.5c-53.333 0 -98.333 18.333 -135 55s-55 81.667 -55 135v616h80v-621z
M179 869l-40 46l78 71l43 -52zM329 869l-40 46l78 71l43 -52z" />
    <glyph glyph-name="uhungarumlaut" unicode="&#x171;" 
d="M140 229c0 -16.667 5.83105 -30.834 17.498 -42.501s25.834 -17.5 42.501 -17.5s30.834 5.83301 42.501 17.5s17.5 25.834 17.5 42.501v471h80v-466c0 -38.667 -13.667 -71.667 -41 -99s-60.333 -41 -99 -41s-71.667 13.667 -99 41s-41 60.333 -41 99v466h80v-471z
M123.998 769l-40 46l78 71l43 -52zM273.998 769l-40 46l78 71l43 -52z" />
    <glyph glyph-name="Uogonek" unicode="&#x172;" horiz-adv-x="500" 
d="M140 179c0 -30.667 10.667 -56.667 32 -78s47.333 -32 78 -32c30 0 55.833 10.667 77.5 32s32.5 47.333 32.5 78v621h80v-616c0 -43.333 -13 -81.833 -39 -115.5s-59.333 -56.167 -100 -67.5c-43.333 -43.333 -65 -73.333 -65 -90c0 -16 8 -24 24 -24
c5.33301 0 11 1.5 17 4.5s10.667 6.16699 14 9.5l5 5l37 -20c-2 -3.33301 -5 -7.83301 -9 -13.5s-12.333 -13 -25 -22s-25.667 -13.5 -39 -13.5c-58.667 0 -88 26 -88 78c0 28 12.667 56 38 84c-44 8.66699 -80 30.167 -108 64.5s-42 74.5 -42 120.5v616h80v-621z" />
    <glyph glyph-name="uogonek" unicode="&#x173;" 
d="M140 229c0 -16.667 5.83105 -30.833 17.498 -42.5s25.834 -17.5 42.501 -17.5s30.834 5.83301 42.501 17.5s17.5 25.834 17.5 42.501v471h80v-466c0 -30 -8.83301 -57.333 -26.5 -82s-40.5 -41.667 -68.5 -51c-43.333 -43.333 -65 -73 -65 -89s8 -24 24 -24
c5.33301 0 11 1.5 17 4.5s10.667 6.16699 14 9.5l5 5l37 -20c-2 -3.33301 -5 -7.83301 -9 -13.5s-12.333 -13 -25 -22s-25.667 -13.5 -39 -13.5c-58.667 0 -88 26 -88 78c0 28 13 56.333 39 85c-28 9.33301 -50.833 26.166 -68.5 50.499s-26.5 51.833 -26.5 82.5v466h80
v-471z" />
    <glyph glyph-name="Wcircumflex" unicode="&#x174;" horiz-adv-x="550" 
d="M60 0v800h80v-643l95 160h80l95 -161v644h80v-800h-80l-135 227l-135 -227h-80zM388 924l-47 -52l-66 64l-67 -64l-47 52l96 87h36z" />
    <glyph glyph-name="wcircumflex" unicode="&#x175;" horiz-adv-x="450" 
d="M140 700v-429l50 94h70l50 -95v430h80v-600h-80l-85 167l-85 -167h-80v600h80zM338 824l-47 -52l-66 64l-67 -64l-47 52l96 87h36z" />
    <glyph glyph-name="Ycircumflex" unicode="&#x176;" horiz-adv-x="470" 
d="M195 0v237l-156 563h83l113 -421l113 421h83l-156 -563v-237h-80zM348 924l-47 -52l-66 64l-67 -64l-47 52l96 87h36z" />
    <glyph glyph-name="ycircumflex" unicode="&#x177;" horiz-adv-x="387" 
d="M153 100v182l-111 418h75l76 -291l76 291h75l-111 -418v-182h-80zM306 824l-47 -52l-66 64l-67 -64l-47 52l96 87h36z" />
    <glyph glyph-name="Ydieresis" unicode="&#x178;" horiz-adv-x="470" 
d="M195 0v237l-156 563h83l113 -421l113 421h83l-156 -563v-237h-80zM279 925c0 11.333 4 21 12 29s17.667 12 29 12c10.667 0 20.167 -4 28.5 -12s12.5 -17.667 12.5 -29s-4 -21 -12 -29s-17.667 -12 -29 -12s-21 4 -29 12s-12 17.667 -12 29zM109 925c0 11.333 4 21 12 29
s17.667 12 29 12c10.667 0 20.167 -4 28.5 -12s12.5 -17.667 12.5 -29s-4 -21 -12 -29s-17.667 -12 -29 -12s-21 4 -29 12s-12 17.667 -12 29z" />
    <glyph glyph-name="Zacute" unicode="&#x179;" horiz-adv-x="490" 
d="M66 725v75h358v-75l-277 -650h283v-75h-370v75l277 650h-271zM168 868l-19 57l169 62l22 -67z" />
    <glyph glyph-name="zacute" unicode="&#x17a;" 
d="M66 625v75h268v-75l-192 -450h198v-75h-280v75l191 450h-185zM148 768l-19 57l169 62l22 -67z" />
    <glyph glyph-name="Zdotaccent" unicode="&#x17b;" horiz-adv-x="490" 
d="M66 725v75h358v-75l-277 -650h283v-75h-370v75l277 650h-271zM199 925c0 12.667 4.5 23.5 13.5 32.5s19.833 13.5 32.5 13.5s23.5 -4.5 32.5 -13.5s13.5 -19.833 13.5 -32.5s-4.5 -23.5 -13.5 -32.5s-19.833 -13.5 -32.5 -13.5s-23.5 4.5 -32.5 13.5
s-13.5 19.833 -13.5 32.5z" />
    <glyph glyph-name="zdotaccent" unicode="&#x17c;" 
d="M66 625v75h268v-75l-192 -450h198v-75h-280v75l191 450h-185zM154 825c0 12.667 4.5 23.5 13.5 32.5s19.833 13.5 32.5 13.5s23.5 -4.5 32.5 -13.5s13.5 -19.833 13.5 -32.5s-4.5 -23.5 -13.5 -32.5s-19.833 -13.5 -32.5 -13.5c-13.333 0 -24.333 4.5 -33 13.5
s-13 19.833 -13 32.5z" />
    <glyph glyph-name="Zcaron" unicode="&#x17d;" horiz-adv-x="490" 
d="M66 725v75h358v-75l-277 -650h283v-75h-370v75l277 650h-271zM131 959l47 52l67 -64l66 64l47 -52l-95 -87h-37z" />
    <glyph glyph-name="zcaron" unicode="&#x17e;" 
d="M66 625v75h268v-75l-192 -450h198v-75h-280v75l191 450h-185zM86 859l47 52l67 -64l66 64l47 -52l-95 -87h-37z" />
    <glyph glyph-name="florin" unicode="&#x192;" horiz-adv-x="355" 
d="M342 700v-75h-75c-16.667 0 -30.834 -5.83301 -42.501 -17.5s-17.5 -25.834 -17.5 -42.501v-98h98v-75h-98v-252c0 -38.667 -13.667 -71.667 -41 -99s-60.333 -41 -99 -41h-40v75h40c16.667 0 30.834 5.83301 42.501 17.5s17.5 25.834 17.5 42.501v257h-72v75h72v93
c0 38.667 13.667 71.667 41 99s60.333 41 99 41h75z" />
    <glyph glyph-name="AEacute" unicode="&#x1fc;" horiz-adv-x="685" 
d="M325 0v135h-178l-37 -135h-81l221 800h385v-75h-230v-413h180v-75h-180v-162h230v-75h-310zM309 725l-142 -515h158v515h-16zM360 868l-19 57l169 62l22 -67z" />
    <glyph glyph-name="aeacute" unicode="&#x1fd;" horiz-adv-x="548" 
d="M258 100v115h-117l-28 -115h-74l141 600h318v-75h-160v-268h135v-75h-135v-107h160v-75h-240zM241 625l-82 -335h99v335h-17zM265 768l-19 57l169 62l22 -67z" />
    <glyph glyph-name="Oslashacute" unicode="&#x1fe;" horiz-adv-x="500" 
d="M60 184v432.001c0 52.667 18.5 97.5 55.5 134.5s81.833 55.5 134.5 55.5c40.667 0 78 -12.333 112 -37l18 45l65 -28l-31 -75c17.333 -28.667 26 -60.334 26 -95.001v-432c0 -52.667 -18.5 -97.5 -55.5 -134.5s-81.833 -55.5 -134.5 -55.5c-42 0 -79.333 12 -112 36
l-18 -44l-65 28l30 74c-16.667 29.333 -25 61.333 -25 96zM250 69.001c30 0 55.833 10.667 77.5 32s32.5 47.333 32.5 78v397l-192 -471c22 -24 49.333 -36 82 -36zM140 621.001v-397l191 470c-21.333 24.667 -48.333 37 -81 37c-30.667 0 -56.667 -10.833 -78 -32.5
s-32 -47.5 -32 -77.5zM198 868.001l-19 57l169 62l22 -67z" />
    <glyph glyph-name="oslashacute" unicode="&#x1ff;" 
d="M60 234l-0.000976562 331.999c0 38.667 13.667 71.667 41 99s60.333 41 99 41c25.333 0 49.333 -7 72 -21l10 27l60 -25l-20 -53c12 -22 18 -44.667 18 -68v-332c0 -38.667 -13.667 -71.667 -41 -99s-60.333 -41 -99 -41c-27.333 0 -51.666 6.66699 -72.999 20l-10 -27
l-60 25l20 54c-11.333 20.667 -17 43.334 -17 68.001zM199.999 168.999c16.667 0 30.833 5.83203 42.5 17.499s17.5 25.834 17.5 42.501v239l-105 -279c12 -13.333 27 -20 45 -20zM139.998 570.998l0.000976562 -237.999l104 278c-12 13.333 -26.667 20 -44 20
c-16.667 0 -30.834 -5.83301 -42.501 -17.5s-17.5 -25.834 -17.5 -42.501zM147.999 767.999l-19 57l169 62l22 -67z" />
    <glyph glyph-name="Scommaaccent" unicode="&#x218;" horiz-adv-x="490" 
d="M55 220h80v-41c0 -30.667 10.667 -56.667 32 -78s47.333 -32 78 -32s56.667 10.667 78 32s32 47.333 32 78v5c0 28 -9.66699 52.333 -29 73l-203 221c-41.333 36 -62 82 -62 138c0 52.667 17.833 97.5 53.5 134.5s79.167 55.5 130.5 55.5c50.667 0 94 -18.5 130 -55.5
s54 -81.833 54 -134.5v-36h-80v41c0 30 -10.167 55.833 -30.5 77.5s-44.833 32.5 -73.5 32.5c-29.333 0 -54 -10.833 -74 -32.5s-30 -47.5 -30 -77.5v-5c-0.666992 -26.667 9.33301 -51.667 30 -75l203 -220c40.667 -37.333 61 -83 61 -137
c0 -52.667 -18.5 -97.5 -55.5 -134.5s-81.833 -55.5 -134.5 -55.5s-97.5 18.5 -134.5 55.5s-55.5 81.833 -55.5 134.5v36zM210 -50h80v-60c0 -14.667 -2 -31 -6 -49s-8 -32.333 -12 -43l-7 -16h-55v168z" />
    <glyph glyph-name="scommaaccent" unicode="&#x219;" horiz-adv-x="390" 
d="M55 280l80 0.000976562v-51c0 -16.667 5.83301 -30.834 17.5 -42.501s25.834 -17.5 42.501 -17.5s30.834 5.83301 42.501 17.5s17.5 25.834 17.5 42.501v5c0 12 -3 22 -9 30l-156 211c-23.333 25.333 -35 55.666 -35 90.999c0 38.667 13.667 71.667 41 99
s60.333 41 99 41s71.667 -13.667 99 -41s41 -60.333 41 -99v-46h-80v51c0 16.667 -5.83301 30.834 -17.5 42.501s-25.834 17.5 -42.501 17.5s-30.834 -5.83301 -42.501 -17.5s-17.5 -25.834 -17.5 -42.501v-5c0 -12 3.33301 -23 10 -33l156 -211
c22.667 -26 34 -55.333 34 -88c0 -38.667 -13.667 -71.667 -41 -99s-60.333 -41 -99 -41s-71.667 13.667 -99 41s-41 60.333 -41 99v46zM160 50.001h80v-60c0 -14.667 -2 -31 -6 -49s-8 -32.333 -12 -43l-7 -16h-55v168z" />
    <glyph glyph-name="uni021A" unicode="&#x21a;" horiz-adv-x="410" 
d="M30 725v75h350v-75h-136v-725h-80v725h-134zM164 -50h80v-60c0 -14.667 -2 -31 -6 -49s-8 -32.333 -12 -43l-7 -16h-55v168z" />
    <glyph glyph-name="uni021B" unicode="&#x21b;" horiz-adv-x="310" 
d="M30 625v75h250v-75h-85v-525h-80v525h-85zM115 50h80v-60c0 -14.667 -2.16699 -31 -6.5 -49s-8.5 -32.333 -12.5 -43l-6 -16h-55v168z" />
    <glyph glyph-name="circumflex" unicode="&#x2c6;" horiz-adv-x="330" 
d="M278 824l-47 -52l-66 64l-67 -64l-47 52l96 87h36z" />
    <glyph glyph-name="caron" unicode="&#x2c7;" horiz-adv-x="330" 
d="M51 859l47 52l67 -64l66 64l47 -52l-95 -87h-37z" />
    <glyph glyph-name="breve" unicode="&#x2d8;" horiz-adv-x="330" 
d="M165 765v65.001c18 0 32.5 4.16699 43.5 12.5s16.5 19.166 16.5 32.499v17h65v-17c0 -32.667 -10.5 -59.167 -31.5 -79.5s-52.167 -30.5 -93.5 -30.5zM165 830.001v-65.001c-41.333 0 -72.5 10.167 -93.5 30.5s-31.5 46.833 -31.5 79.5v17h65v-17
c0 -13.333 5.5 -24.166 16.5 -32.499s25.5 -12.5 43.5 -12.5z" />
    <glyph glyph-name="dotaccent" unicode="&#x2d9;" horiz-adv-x="215" 
d="M54 825c0 12.667 4.5 23.5 13.5 32.5s19.833 13.5 32.5 13.5s23.5 -4.5 32.5 -13.5s13.5 -19.833 13.5 -32.5s-4.5 -23.5 -13.5 -32.5s-19.833 -13.5 -32.5 -13.5c-13.333 0 -24.333 4.5 -33 13.5s-13 19.833 -13 32.5z" />
    <glyph glyph-name="ring" unicode="&#x2da;" horiz-adv-x="330" 
d="M55 825c0 30 10.667 55.833 32 77.5s47.333 32.5 78 32.5c30 0 55.833 -10.833 77.5 -32.5s32.5 -47.5 32.5 -77.5c0 -30.667 -10.833 -56.667 -32.5 -78s-47.5 -32 -77.5 -32c-30.667 0 -56.667 10.667 -78 32s-32 47.333 -32 78zM120 825
c0 -12.667 4.33398 -23.334 13.001 -32.001s19.334 -13 32.001 -13c12 0 22.5 4.33301 31.5 13s13.5 19.334 13.5 32.001c0 12 -4.33301 22.5 -13 31.5s-19.334 13.5 -32.001 13.5s-23.334 -4.5 -32.001 -13.5s-13 -19.5 -13 -31.5z" />
    <glyph glyph-name="ogonek" unicode="&#x2db;" horiz-adv-x="200" 
d="M84 119l68 -18.999l-18 -17c-11.333 -11.333 -23 -25 -35 -41s-18 -28.333 -18 -37c0 -16 8 -24 24 -24c5.33301 0 11 1.5 17 4.5s10.667 6.16699 14 9.5l5 5l37 -20c-2 -3.33301 -5 -7.83301 -9 -13.5s-12.333 -13 -25 -22s-25.667 -13.5 -39 -13.5
c-58.667 0 -88 26 -88 78c0 18 5.5 36.167 16.5 54.5s22.167 32.166 33.5 41.499z" />
    <glyph glyph-name="tilde" unicode="&#x2dc;" horiz-adv-x="200" 
d="M-4 789l-9 -5l-27 56l8 5c26.667 14.667 56 22 88 22c11.333 0 26.833 -4 46.5 -12s34.834 -12 45.501 -12c9.33301 0 18.666 1 27.999 3s16.333 4 21 6s7 3.33301 7 4l8 4l27 -56l-8 -4c-26 -14.667 -54.333 -22 -85 -22c-12 0 -28.167 4 -48.5 12s-35.833 12 -46.5 12
c-9.33301 0 -18.5 -1 -27.5 -3s-15.833 -4 -20.5 -6s-7 -3.33301 -7 -4z" />
    <glyph glyph-name="hungarumlaut" unicode="&#x2dd;" horiz-adv-x="350" 
d="M95 769l-40 46l78 71l43 -52zM245 769l-40 46l78 71l43 -52z" />
    <glyph glyph-name="uni037E" unicode="&#x37e;" horiz-adv-x="215" 
d="M60 180h80v-60c0 -14.667 -2 -31 -6 -49s-8 -32.333 -12 -43l-7 -16h-55v168zM54 561c0 12.667 4.5 23.5 13.5 32.5s19.833 13.5 32.5 13.5s23.5 -4.5 32.5 -13.5s13.5 -19.833 13.5 -32.5s-4.5 -23.5 -13.5 -32.5s-19.833 -13.5 -32.5 -13.5
c-13.333 0 -24.333 4.5 -33 13.5s-13 19.833 -13 32.5z" />
    <glyph glyph-name="tonos" unicode="&#x384;" horiz-adv-x="200" 
d="M130 762h-60c-5.33301 42 -8 71.333 -8 88v75h75v-75z" />
    <glyph glyph-name="Alphatonos" unicode="&#x386;" horiz-adv-x="502" 
d="M290 800l173 -800h-81l-29 135h-205l-28 -135h-81l171 800h80zM250 624l-87 -414h174zM281 862h-60c-5.33301 42 -8 71.333 -8 88v75h75v-75z" />
    <glyph glyph-name="Epsilontonos" unicode="&#x388;" horiz-adv-x="420" 
d="M60 0v800h310v-75h-230v-413h180v-75h-180v-162h230v-75h-310zM246 862h-60c-5.33301 42 -8 71.333 -8 88v75h75v-75z" />
    <glyph glyph-name="Etatonos" unicode="&#x389;" horiz-adv-x="500" 
d="M360 0v237h-220v-237h-80v800h80v-488h220v488h80v-800h-80zM280 862h-60c-5.33301 42 -8 71.333 -8 88v75h75v-75z" />
    <glyph glyph-name="Iotatonos" unicode="&#x38a;" horiz-adv-x="215" 
d="M67 0v800h80v-800h-80zM135 862h-60c-5.33301 42 -8 71.333 -8 88v75h75v-75z" />
    <glyph glyph-name="Omicrontonos" unicode="&#x38c;" horiz-adv-x="500" 
d="M60 184v432c0 52.667 18.5 97.5 55.5 134.5s81.833 55.5 134.5 55.5s97.5 -18.5 134.5 -55.5s55.5 -81.833 55.5 -134.5v-432c0 -52.667 -18.5 -97.5 -55.5 -134.5s-81.833 -55.5 -134.5 -55.5c-53.333 0 -98.333 18.333 -135 55s-55 81.667 -55 135zM140 179
c0 -30.667 10.667 -56.667 32 -78s47.333 -32 78 -32c30 0 55.833 10.667 77.5 32s32.5 47.333 32.5 78v442c0 30 -10.833 55.833 -32.5 77.5s-47.5 32.5 -77.5 32.5c-30.667 0 -56.667 -10.833 -78 -32.5s-32 -47.5 -32 -77.5v-442zM280 862h-60
c-5.33301 42 -8 71.333 -8 88v75h75v-75z" />
    <glyph glyph-name="Upsilontonos" unicode="&#x38e;" horiz-adv-x="470" 
d="M195 0v237l-156 563h83l113 -421l113 421h83l-156 -563v-237h-80zM265 862h-60c-5.33301 42 -8 71.333 -8 88v75h75v-75z" />
    <glyph glyph-name="Omegatonos" unicode="&#x38f;" horiz-adv-x="500" 
d="M354 343c4 14.667 6 26.666 6 35.999v242c0 30 -10.667 55.833 -32 77.5s-47.333 32.5 -78 32.5s-56.667 -10.833 -78 -32.5s-32 -47.5 -32 -77.5v-242c0 -12.667 2 -24.667 6 -36l84 -268v-75h-170v75h87l-77 248c-6.66699 18 -10 38.333 -10 61v232
c0 52.667 18.5 97.5 55.5 134.5s81.833 55.5 134.5 55.5s97.5 -18.5 134.5 -55.5s55.5 -81.833 55.5 -134.5v-232c0 -19.333 -3.33301 -39.666 -10 -60.999l-78 -248h88v-75h-170v75zM280 861.999h-60c-5.33301 42 -8 71.333 -8 88v75h75v-75z" />
    <glyph glyph-name="iotadieresistonos" unicode="&#x390;" horiz-adv-x="215" 
d="M-47 825c0 11.333 4.16699 21 12.5 29s17.833 12 28.5 12c11.333 0 21 -4 29 -12s12 -17.667 12 -29s-4 -21 -12 -29s-17.667 -12 -29 -12s-21 4 -29 12s-12 17.667 -12 29zM178 825c0 11.333 4 21 12 29s17.667 12 29 12s21 -4 29 -12s12 -17.667 12 -29s-4 -21 -12 -29
s-17.667 -12 -29 -12s-21 4 -29 12s-12 17.667 -12 29zM136 762h-60c-4.66699 42 -7 71.333 -7 88v75h75v-75zM67 100v600h80v-600h-80z" />
    <glyph glyph-name="Alpha" unicode="&#x391;" horiz-adv-x="502" 
d="M290 800l173 -800h-81l-29 135h-205l-28 -135h-81l171 800h80zM250 624l-87 -414h174z" />
    <glyph glyph-name="Beta" unicode="&#x392;" horiz-adv-x="500" 
d="M60 0v800h190c52.667 0 97.5 -18.5 134.5 -55.5s55.5 -81.833 55.5 -134.5v-115c0 -64 -25.667 -115 -77 -153c51.333 -37.333 77 -88 77 -152c0 -52.667 -18.5 -97.5 -55.5 -134.5s-81.833 -55.5 -134.5 -55.5h-190zM140 725v-345h114
c29.333 1.33301 54.333 12.5 75 33.5s31 46.5 31 76.5v125c0 30 -10.833 55.833 -32.5 77.5s-47.5 32.5 -77.5 32.5h-110zM140 305v-230h110c30 0 55.833 10.667 77.5 32s32.5 47.333 32.5 78v10c0 30 -10.833 55.833 -32.5 77.5s-47.5 32.5 -77.5 32.5h-110z" />
    <glyph glyph-name="Gamma" unicode="&#x393;" horiz-adv-x="415" 
d="M60 0v800h330v-75h-250v-725h-80z" />
    <glyph glyph-name="Delta" unicode="&#x394;" horiz-adv-x="502" 
d="M290 800l173 -800h-424l171 800h80zM250 624l-115 -549h231z" />
    <glyph glyph-name="Delta" unicode="&#x2206;" horiz-adv-x="502" 
d="M290 800l173 -800h-424l171 800h80zM250 624l-115 -549h231z" />
    <glyph glyph-name="Epsilon" unicode="&#x395;" horiz-adv-x="420" 
d="M60 0v800h310v-75h-230v-413h180v-75h-180v-162h230v-75h-310z" />
    <glyph glyph-name="Zeta" unicode="&#x396;" horiz-adv-x="490" 
d="M66 725v75h358v-75l-277 -650h283v-75h-370v75l277 650h-271z" />
    <glyph glyph-name="Eta" unicode="&#x397;" horiz-adv-x="500" 
d="M360 0v237h-220v-237h-80v800h80v-488h220v488h80v-800h-80z" />
    <glyph glyph-name="Theta" unicode="&#x398;" horiz-adv-x="500" 
d="M60 184v432c0 52.667 18.5 97.5 55.5 134.5s81.833 55.5 134.5 55.5s97.5 -18.5 134.5 -55.5s55.5 -81.833 55.5 -134.5v-432c0 -52.667 -18.5 -97.5 -55.5 -134.5s-81.833 -55.5 -134.5 -55.5c-53.333 0 -98.333 18.333 -135 55s-55 81.667 -55 135zM140 179
c0 -30.667 10.667 -56.667 32 -78s47.333 -32 78 -32c30 0 55.833 10.667 77.5 32s32.5 47.333 32.5 78v442c0 30 -10.833 55.833 -32.5 77.5s-47.5 32.5 -77.5 32.5c-30.667 0 -56.667 -10.833 -78 -32.5s-32 -47.5 -32 -77.5v-442zM185 237v75h127v-75h-127z" />
    <glyph glyph-name="Iota" unicode="&#x399;" horiz-adv-x="215" 
d="M67 0v800h80v-800h-80z" />
    <glyph glyph-name="Kappa" unicode="&#x39a;" horiz-adv-x="500" 
d="M60 0v800h80v-395l211 395h90l-176 -329l181 -471h-86l-145 378l-75 -141v-237h-80z" />
    <glyph glyph-name="Lambda" unicode="&#x39b;" horiz-adv-x="502" 
d="M290 800l173 -800h-81l-132 624l-130 -624h-81l171 800h80z" />
    <glyph glyph-name="Mu" unicode="&#x39c;" horiz-adv-x="550" 
d="M490 800v-800h-80v643l-95 -161h-80l-95 160v-642h-80v800h80l135 -227l135 227h80z" />
    <glyph glyph-name="Nu" unicode="&#x39d;" horiz-adv-x="525" 
d="M385 0l-245 590v-590h-80v800h80l245 -590v590h80v-800h-80z" />
    <glyph glyph-name="Xi" unicode="&#x39e;" horiz-adv-x="382" 
d="M78 237v75h225v-75h-225zM25 0v75h332v-75h-332zM26 725v75h330v-75h-330z" />
    <glyph glyph-name="Omicron" unicode="&#x39f;" horiz-adv-x="500" 
d="M60 184v432c0 52.667 18.5 97.5 55.5 134.5s81.833 55.5 134.5 55.5s97.5 -18.5 134.5 -55.5s55.5 -81.833 55.5 -134.5v-432c0 -52.667 -18.5 -97.5 -55.5 -134.5s-81.833 -55.5 -134.5 -55.5c-53.333 0 -98.333 18.333 -135 55s-55 81.667 -55 135zM140 179
c0 -30.667 10.667 -56.667 32 -78s47.333 -32 78 -32c30 0 55.833 10.667 77.5 32s32.5 47.333 32.5 78v442c0 30 -10.833 55.833 -32.5 77.5s-47.5 32.5 -77.5 32.5c-30.667 0 -56.667 -10.833 -78 -32.5s-32 -47.5 -32 -77.5v-442z" />
    <glyph glyph-name="Pi" unicode="&#x3a0;" horiz-adv-x="500" 
d="M360 0v725h-220v-725h-80v800h380v-800h-80z" />
    <glyph glyph-name="Rho" unicode="&#x3a1;" horiz-adv-x="500" 
d="M60 0v800h190c52.667 0 97.5 -18.5 134.5 -55.5s55.5 -81.833 55.5 -134.5v-183c0 -52.667 -18.5 -97.5 -55.5 -134.5s-81.833 -55.5 -134.5 -55.5h-110v-237h-80zM140 725v-413h110c30 0 55.833 10.667 77.5 32s32.5 47.333 32.5 78v193c0 30 -10.833 55.833 -32.5 77.5
s-47.5 32.5 -77.5 32.5h-110z" />
    <glyph glyph-name="Sigma" unicode="&#x3a3;" horiz-adv-x="480" 
d="M60 0v75l154 205l-148 445v75h358v-75h-274l137 -413v-75l-127 -162h270v-75h-370z" />
    <glyph glyph-name="Tau" unicode="&#x3a4;" horiz-adv-x="410" 
d="M30 725v75h350v-75h-136v-725h-80v725h-134z" />
    <glyph glyph-name="Upsilon" unicode="&#x3a5;" horiz-adv-x="470" 
d="M195 0v237l-156 563h83l113 -421l113 421h83l-156 -563v-237h-80z" />
    <glyph glyph-name="Phi" unicode="&#x3a6;" horiz-adv-x="680" 
d="M300 700v100h80v-100h60c52.667 0 97.5 -18.5 134.5 -55.5s55.5 -81.833 55.5 -134.5v-220c0 -52.667 -18.5 -97.5 -55.5 -134.5s-81.833 -55.5 -134.5 -55.5h-60v-100h-80v100h-60c-52.667 0 -97.5 18.5 -134.5 55.5s-55.5 81.833 -55.5 134.5v220
c0 52.667 18.5 97.5 55.5 134.5s81.833 55.5 134.5 55.5h60zM300 175v450h-60c-30.667 0 -56.667 -10.667 -78 -32s-32 -47.333 -32 -78v-230c0 -30.667 10.667 -56.667 32 -78s47.333 -32 78 -32h60zM380 625v-450h60c30 0 55.833 10.667 77.5 32s32.5 47.333 32.5 78v230
c0 30.667 -10.833 56.667 -32.5 78s-47.5 32 -77.5 32h-60z" />
    <glyph glyph-name="Chi" unicode="&#x3a7;" horiz-adv-x="500" 
d="M440 800l-148 -392l154 -408h-86l-111 294l-110 -294h-85l153 408l-147 392h85l104 -278l105 278h86z" />
    <glyph glyph-name="Psi" unicode="&#x3a8;" horiz-adv-x="525" 
d="M235 0v234c-50.667 9.33301 -92.5 33.666 -125.5 72.999s-49.5 85.333 -49.5 138v355h80v-360c0 -30 8.83301 -56.833 26.5 -80.5s40.5 -39.834 68.5 -48.501v489h80v-489c28 8.66699 50.833 24.834 68.5 48.501s26.5 50.5 26.5 80.5v360h80v-355
c0 -52.667 -16.5 -98.667 -49.5 -138s-74.833 -63.666 -125.5 -72.999v-234h-80z" />
    <glyph glyph-name="Omega" unicode="&#x3a9;" horiz-adv-x="500" 
d="M440 75v-75.001h-170v75l84 268c4 14.667 6 26.667 6 36v242c0 30 -10.667 55.833 -32 77.5s-47.333 32.5 -78 32.5s-56.667 -10.833 -78 -32.5s-32 -47.5 -32 -77.5v-242c0 -12.667 2 -24.667 6 -36l84 -268v-75h-170v75h87l-77 248c-6.66699 18 -10 38.333 -10 61v232
c0 52.667 18.5 97.5 55.5 134.5s81.833 55.5 134.5 55.5s97.5 -18.5 134.5 -55.5s55.5 -81.833 55.5 -134.5v-232c0 -19.333 -3.33301 -39.666 -10 -60.999l-78 -248h88z" />
    <glyph glyph-name="Omega" unicode="&#x2126;" horiz-adv-x="500" 
d="M440 75v-75.001h-170v75l84 268c4 14.667 6 26.667 6 36v242c0 30 -10.667 55.833 -32 77.5s-47.333 32.5 -78 32.5s-56.667 -10.833 -78 -32.5s-32 -47.5 -32 -77.5v-242c0 -12.667 2 -24.667 6 -36l84 -268v-75h-170v75h87l-77 248c-6.66699 18 -10 38.333 -10 61v232
c0 52.667 18.5 97.5 55.5 134.5s81.833 55.5 134.5 55.5s97.5 -18.5 134.5 -55.5s55.5 -81.833 55.5 -134.5v-232c0 -19.333 -3.33301 -39.666 -10 -60.999l-78 -248h88z" />
    <glyph glyph-name="Iotadieresis" unicode="&#x3aa;" horiz-adv-x="215" 
d="M67 0v800h80v-800h-80zM-21 925c0 11.333 4 21 12 29s17.667 12 29 12c10.667 0 20.167 -4 28.5 -12s12.5 -17.667 12.5 -29s-4 -21 -12 -29s-17.667 -12 -29 -12s-21 4 -29 12s-12 17.667 -12 29zM149 925c0 11.333 4 21 12 29s17.667 12 29 12
c10.667 0 20.167 -4 28.5 -12s12.5 -17.667 12.5 -29s-4 -21 -12 -29s-17.667 -12 -29 -12s-21 4 -29 12s-12 17.667 -12 29z" />
    <glyph glyph-name="Upsilondieresis" unicode="&#x3ab;" horiz-adv-x="470" 
d="M195 0v237l-156 563h83l113 -421l113 421h83l-156 -563v-237h-80zM279 925c0 11.333 4 21 12 29s17.667 12 29 12c10.667 0 20.167 -4 28.5 -12s12.5 -17.667 12.5 -29s-4 -21 -12 -29s-17.667 -12 -29 -12s-21 4 -29 12s-12 17.667 -12 29zM109 925c0 11.333 4 21 12 29
s17.667 12 29 12c10.667 0 20.167 -4 28.5 -12s12.5 -17.667 12.5 -29s-4 -21 -12 -29s-17.667 -12 -29 -12s-21 4 -29 12s-12 17.667 -12 29z" />
    <glyph glyph-name="alphatonos" unicode="&#x3ac;" horiz-adv-x="391" 
d="M235 700l117 -600h-75l-22 115h-119l-22 -115h-75l116 600h80zM225 762h-60c-5.33301 42 -8 71.333 -8 88v75h75v-75zM195 527l-45 -237h90z" />
    <glyph glyph-name="epsilontonos" unicode="&#x3ad;" horiz-adv-x="350" 
d="M60 100v600h240v-75h-160v-268h135v-75h-135v-107h160v-75h-240zM210 762h-60c-5.33301 42 -8 71.333 -8 88v75h75v-75z" />
    <glyph glyph-name="etatonos" unicode="&#x3ae;" 
d="M260 100v182h-120v-182h-80v600h80v-343h120v343h80v-600h-80zM230 762h-60c-5.33301 42 -8 71.333 -8 88v75h75v-75z" />
    <glyph glyph-name="iotatonos" unicode="&#x3af;" horiz-adv-x="215" 
d="M67 100v600h80v-600h-80zM135 762h-60c-5.33301 42 -8 71.333 -8 88v75h75v-75z" />
    <glyph glyph-name="upsilondieresistonos" unicode="&#x3b0;" horiz-adv-x="387" 
d="M153 100v182l-111 418h75l76 -291l76 291h75l-111 -418v-182h-80zM223 762h-60c-4.66699 42 -7 71.333 -7 88v75h75v-75zM40 825c0 11.333 4 21 12 29s17.667 12 29 12s21 -4 29 -12s12 -17.667 12 -29s-4 -21 -12 -29s-17.667 -12 -29 -12s-21 4 -29 12
s-12 17.667 -12 29zM265 825c0 11.333 4.16699 21 12.5 29s17.833 12 28.5 12c11.333 0 21 -4 29 -12s12 -17.667 12 -29s-4 -21 -12 -29s-17.667 -12 -29 -12s-21 4 -29 12s-12 17.667 -12 29z" />
    <glyph glyph-name="alpha" unicode="&#x3b1;" horiz-adv-x="391" 
d="M235 700l117 -600h-75l-22 115h-119l-22 -115h-75l116 600h80zM195 527l-45 -237h90z" />
    <glyph glyph-name="beta" unicode="&#x3b2;" 
d="M60 100v600h140c38.667 0 71.667 -13.667 99 -41s41 -60.333 41 -99v-115c0 -40 -15 -74.333 -45 -103c30 -28 45 -62 45 -102c0 -38.667 -13.667 -71.667 -41 -99s-60.333 -41 -99 -41h-140zM140 625l0.000976562 -245h65c15.333 1.33301 28.333 7.66602 39 18.999
s16 25 16 41v125c0 16.667 -5.83301 30.834 -17.5 42.501s-25.834 17.5 -42.501 17.5h-60zM140.001 305v-130.002h60c16.667 0 30.834 5.83301 42.501 17.5s17.5 25.834 17.5 42.501v10c0 16.667 -5.83301 30.834 -17.5 42.501s-25.834 17.5 -42.501 17.5h-60z" />
    <glyph glyph-name="gamma" unicode="&#x3b3;" horiz-adv-x="325" 
d="M60 100v600h240v-75h-160v-525h-80z" />
    <glyph glyph-name="delta" unicode="&#x3b4;" horiz-adv-x="391" 
d="M235 700l117 -600h-313l116 600h80zM195 527l-67 -352h134z" />
    <glyph glyph-name="epsilon" unicode="&#x3b5;" horiz-adv-x="350" 
d="M60 100v600h240v-75h-160v-268h135v-75h-135v-107h160v-75h-240z" />
    <glyph glyph-name="zeta" unicode="&#x3b6;" 
d="M66 625v75h268v-75l-192 -450h198v-75h-280v75l191 450h-185z" />
    <glyph glyph-name="eta" unicode="&#x3b7;" 
d="M260 100v182h-120v-182h-80v600h80v-343h120v343h80v-600h-80z" />
    <glyph glyph-name="theta" unicode="&#x3b8;" 
d="M60 234v332c0 38.667 13.667 71.667 41 99s60.333 41 99 41s71.667 -13.667 99 -41s41 -60.333 41 -99v-332c0 -38.667 -13.667 -71.667 -41 -99s-60.333 -41 -99 -41s-71.667 13.667 -99 41s-41 60.333 -41 99zM140 571l0.00195312 -209h120v209
c0 16.667 -5.83301 30.834 -17.5 42.501s-25.834 17.5 -42.501 17.5s-30.834 -5.83301 -42.501 -17.5s-17.5 -25.834 -17.5 -42.501zM140.002 229c0 -16.667 5.83105 -30.834 17.498 -42.501s25.834 -17.5 42.501 -17.5s30.834 5.83301 42.501 17.5s17.5 25.834 17.5 42.501
v58h-120v-58z" />
    <glyph glyph-name="iota" unicode="&#x3b9;" horiz-adv-x="215" 
d="M67 100v600h80v-600h-80z" />
    <glyph glyph-name="kappa" unicode="&#x3ba;" 
d="M60 100v600h80v-243l118 243h88l-120 -247l120 -353h-84l-86 251l-36 -75v-176h-80z" />
    <glyph glyph-name="lambda" unicode="&#x3bb;" horiz-adv-x="391" 
d="M235 700l117 -600h-75l-82 427l-81 -427h-75l116 600h80z" />
    <glyph glyph-name="uni03BC" unicode="&#x3bc;" horiz-adv-x="450" 
d="M310 100v429l-50 -94h-70l-50 93v-428h-80v600h80l85 -168l85 168h80v-600h-80z" />
    <glyph glyph-name="nu" unicode="&#x3bd;" horiz-adv-x="425" 
d="M285 100l-145 388v-388h-80v600h80l145 -391v391h80v-600h-80z" />
    <glyph glyph-name="xi" unicode="&#x3be;" horiz-adv-x="365" 
d="M75 282v75h215v-75h-215zM50 100v75h265v-75h-265zM50 625v75h265v-75h-265z" />
    <glyph glyph-name="omicron" unicode="&#x3bf;" 
d="M60 234v332c0 38.667 13.667 71.667 41 99s60.333 41 99 41s71.667 -13.667 99 -41s41 -60.333 41 -99v-332c0 -38.667 -13.667 -71.667 -41 -99s-60.333 -41 -99 -41s-71.667 13.667 -99 41s-41 60.333 -41 99zM140 229c0 -16.667 5.83301 -30.834 17.5 -42.501
s25.834 -17.5 42.501 -17.5s30.834 5.83301 42.501 17.5s17.5 25.834 17.5 42.501v342c0 16.667 -5.83301 30.834 -17.5 42.501s-25.834 17.5 -42.501 17.5s-30.834 -5.83301 -42.501 -17.5s-17.5 -25.834 -17.5 -42.501v-342z" />
    <glyph glyph-name="pi" unicode="&#x3c0;" 
d="M260 100v525h-120v-525h-80v600h280v-600h-80z" />
    <glyph glyph-name="rho" unicode="&#x3c1;" 
d="M60 100v600h140c38.667 0 71.667 -13.667 99 -41s41 -60.333 41 -99v-138c0 -38.667 -13.667 -71.667 -41 -99s-60.333 -41 -99 -41h-60v-182h-80zM140 625v-268.002h60c16.667 0 30.834 5.83301 42.501 17.5s17.5 25.834 17.5 42.501v148
c0 16.667 -5.83301 30.834 -17.5 42.501s-25.834 17.5 -42.501 17.5h-60z" />
    <glyph glyph-name="uni03C2" unicode="&#x3c2;" 
d="M334 625h-179l95 -255v-75l-77 -120h167v-75h-280v75l117 161l-111 289v75h268v-75z" />
    <glyph glyph-name="sigma" unicode="&#x3c3;" 
d="M334 625h-179l95 -255v-75l-77 -120h167v-75h-280v75l117 161l-111 289v75h268v-75z" />
    <glyph glyph-name="tau" unicode="&#x3c4;" horiz-adv-x="310" 
d="M30 625v75h250v-75h-85v-525h-80v525h-85z" />
    <glyph glyph-name="upsilon" unicode="&#x3c5;" horiz-adv-x="387" 
d="M153 100v182l-111 418h75l76 -291l76 291h75l-111 -418v-182h-80z" />
    <glyph glyph-name="phi" unicode="&#x3c6;" horiz-adv-x="540" 
d="M230 100v87h-40c-38.667 0 -71.667 13.667 -99 41s-41 60.333 -41 99v145c0 38.667 13.667 71.667 41 99s60.333 41 99 41h40v88h80v-88h40c38.667 0 71.667 -13.667 99 -41s41 -60.333 41 -99v-145c0 -38.667 -13.667 -71.667 -41 -99s-60.333 -41 -99 -41h-40v-87h-80z
M310 537v-275.002h40c16.667 0 30.834 5.83301 42.501 17.5s17.5 25.834 17.5 42.501v155c0 16.667 -5.83301 30.834 -17.5 42.501s-25.834 17.5 -42.501 17.5h-40zM230 261.998v275.002h-40c-16.667 0 -30.834 -5.83301 -42.501 -17.5s-17.5 -25.834 -17.5 -42.501v-155
c0 -16.667 5.83301 -30.834 17.5 -42.501s25.834 -17.5 42.501 -17.5h40z" />
    <glyph glyph-name="chi" unicode="&#x3c7;" 
d="M346 700l-101 -300l101 -300h-85l-59 174l-58 -174h-84l100 299l-100 301h84l59 -175l59 175h84z" />
    <glyph glyph-name="psi" unicode="&#x3c8;" horiz-adv-x="525" 
d="M222 100l0.000976562 135c-46.667 9.33301 -85.334 32.333 -116.001 69s-46 79.667 -46 129v267h80v-272c0 -26 7.66699 -49.667 23 -71s35 -36 59 -44v387h80v-387c24 8 43.833 22.667 59.5 44s23.5 45 23.5 71v272h80v-267c0 -49.333 -15.5 -92.333 -46.5 -129
s-69.833 -59.667 -116.5 -69v-135h-80z" />
    <glyph glyph-name="omega" unicode="&#x3c9;" 
d="M200 631c-16.667 0 -30.832 -5.83203 -42.499 -17.499s-17.5 -25.834 -17.5 -42.501v-192c0 -6 0.333008 -10.333 1 -13l39 -191v-75h-120v75h39l-37 190c-1.33301 4 -2 10.333 -2 19v182c0 38.667 13.667 71.667 41 99s60.333 41 99 41s71.667 -13.667 99 -41
s41 -60.333 41 -99v-182c0 -4.66699 -0.666992 -11 -2 -19l-37 -190h39v-75h-120v75l38 191c1.33301 5.33301 2 9.66602 2 12.999v192c0 16.667 -5.83301 30.834 -17.5 42.501s-25.834 17.5 -42.501 17.5z" />
    <glyph glyph-name="iotadieresis" unicode="&#x3ca;" horiz-adv-x="215" 
d="M67 100v600h80v-600h-80zM-9 825c0 11.333 4 21 12 29s17.667 12 29 12c10.667 0 20.167 -4 28.5 -12s12.5 -17.667 12.5 -29s-4 -21 -12 -29s-17.667 -12 -29 -12s-21 4 -29 12s-12 17.667 -12 29zM141 825c0 11.333 4 21 12 29s17.667 12 29 12
c10.667 0 20.167 -4 28.5 -12s12.5 -17.667 12.5 -29s-4 -21 -12 -29s-17.667 -12 -29 -12s-21 4 -29 12s-12 17.667 -12 29z" />
    <glyph glyph-name="upsilondieresis" unicode="&#x3cb;" horiz-adv-x="387" 
d="M153 100v182l-111 418h75l76 -291l76 291h75l-111 -418v-182h-80zM228 825c0 11.333 4 21 12 29s17.667 12 29 12s21 -4 29 -12s12 -17.667 12 -29s-4 -21 -12 -29s-17.667 -12 -29 -12s-21 4 -29 12s-12 17.667 -12 29zM78 825c0 11.333 4 21 12 29s17.667 12 29 12
s21 -4 29 -12s12 -17.667 12 -29s-4 -21 -12 -29s-17.667 -12 -29 -12s-21 4 -29 12s-12 17.667 -12 29z" />
    <glyph glyph-name="omicrontonos" unicode="&#x3cc;" 
d="M60 234v332c0 38.667 13.667 71.667 41 99s60.333 41 99 41s71.667 -13.667 99 -41s41 -60.333 41 -99v-332c0 -38.667 -13.667 -71.667 -41 -99s-60.333 -41 -99 -41s-71.667 13.667 -99 41s-41 60.333 -41 99zM140 229c0 -16.667 5.83301 -30.834 17.5 -42.501
s25.834 -17.5 42.501 -17.5s30.834 5.83301 42.501 17.5s17.5 25.834 17.5 42.501v342c0 16.667 -5.83301 30.834 -17.5 42.501s-25.834 17.5 -42.501 17.5s-30.834 -5.83301 -42.501 -17.5s-17.5 -25.834 -17.5 -42.501v-342zM230 762h-60c-5.33301 42 -8 71.333 -8 88v75
h75v-75z" />
    <glyph glyph-name="upsilontonos" unicode="&#x3cd;" horiz-adv-x="387" 
d="M153 100v182l-111 418h75l76 -291l76 291h75l-111 -418v-182h-80zM223 762h-60c-5.33301 42 -8 71.333 -8 88v75h75v-75z" />
    <glyph glyph-name="omegatonos" unicode="&#x3ce;" 
d="M200 631c-16.667 0 -30.832 -5.83203 -42.499 -17.499s-17.5 -25.834 -17.5 -42.501v-192c0 -6 0.333008 -10.333 1 -13l39 -191v-75h-120v75h39l-37 190c-1.33301 4 -2 10.333 -2 19v182c0 38.667 13.667 71.667 41 99s60.333 41 99 41s71.667 -13.667 99 -41
s41 -60.333 41 -99v-182c0 -4.66699 -0.666992 -11 -2 -19l-37 -190h39v-75h-120v75l38 191c1.33301 5.33301 2 9.66602 2 12.999v192c0 16.667 -5.83301 30.834 -17.5 42.501s-25.834 17.5 -42.501 17.5zM230.002 762.001h-60c-5.33301 42 -8 71.333 -8 88v75h75v-75z" />
    <glyph glyph-name="afii10023" unicode="&#x401;" horiz-adv-x="420" 
d="M60 0v800h310v-75h-230v-413h180v-75h-180v-162h230v-75h-310zM89 925c0 11.333 4 21 12 29s17.667 12 29 12c10.667 0 20.167 -4 28.5 -12s12.5 -17.667 12.5 -29s-4 -21 -12 -29s-17.667 -12 -29 -12s-21 4 -29 12s-12 17.667 -12 29zM259 925c0 11.333 4 21 12 29
s17.667 12 29 12c10.667 0 20.167 -4 28.5 -12s12.5 -17.667 12.5 -29s-4 -21 -12 -29s-17.667 -12 -29 -12s-21 4 -29 12s-12 17.667 -12 29z" />
    <glyph glyph-name="afii10051" unicode="&#x402;" horiz-adv-x="604" 
d="M30 725l-0.000976562 75h350v-75h-136v-204c32.667 23.333 69.334 35 110.001 35c52.667 0 97.5 -18.5 134.5 -55.5s55.5 -81.833 55.5 -134.5v-176c0 -52.667 -18.5 -97.5 -55.5 -134.5s-81.833 -55.5 -134.5 -55.5h-25v75h25c30.667 0 56.667 10.667 78 32
s32 47.333 32 78v186c0 30 -10.667 55.833 -32 77.5s-47.333 32.5 -78 32.5s-56.667 -10.833 -78 -32.5s-32 -47.5 -32 -77.5v-371h-80v725h-134z" />
    <glyph glyph-name="afii10052" unicode="&#x403;" horiz-adv-x="415" 
d="M60 0v800h330v-75h-250v-725h-80zM146 868l-19 57l169 62l22 -67z" />
    <glyph glyph-name="afii10053" unicode="&#x404;" horiz-adv-x="500" 
d="M140 621v-199h180v-75h-180v-168c0 -30.667 10.667 -56.667 32 -78s47.333 -32 78 -32c30 0 55.833 10.667 77.5 32s32.5 47.333 32.5 78v41h80v-36c0 -52.667 -18.5 -97.5 -55.5 -134.5s-81.833 -55.5 -134.5 -55.5c-53.333 0 -98.333 18.333 -135 55
s-55 81.667 -55 135v432c0 52.667 18.5 97.5 55.5 134.5s81.833 55.5 134.5 55.5s97.5 -18.5 134.5 -55.5s55.5 -81.833 55.5 -134.5v-36h-80v41c0 30 -10.833 55.833 -32.5 77.5s-47.5 32.5 -77.5 32.5c-30.667 0 -56.667 -10.833 -78 -32.5s-32 -47.5 -32 -77.5z" />
    <glyph glyph-name="afii10054" unicode="&#x405;" horiz-adv-x="490" 
d="M55 220h80v-41c0 -30.667 10.667 -56.667 32 -78s47.333 -32 78 -32s56.667 10.667 78 32s32 47.333 32 78v5c0 28 -9.66699 52.333 -29 73l-203 221c-41.333 36 -62 82 -62 138c0 52.667 17.833 97.5 53.5 134.5s79.167 55.5 130.5 55.5c50.667 0 94 -18.5 130 -55.5
s54 -81.833 54 -134.5v-36h-80v41c0 30 -10.167 55.833 -30.5 77.5s-44.833 32.5 -73.5 32.5c-29.333 0 -54 -10.833 -74 -32.5s-30 -47.5 -30 -77.5v-5c-0.666992 -26.667 9.33301 -51.667 30 -75l203 -220c40.667 -37.333 61 -83 61 -137
c0 -52.667 -18.5 -97.5 -55.5 -134.5s-81.833 -55.5 -134.5 -55.5s-97.5 18.5 -134.5 55.5s-55.5 81.833 -55.5 134.5v36z" />
    <glyph glyph-name="afii10055" unicode="&#x406;" horiz-adv-x="215" 
d="M67 0v800h80v-800h-80z" />
    <glyph glyph-name="afii10056" unicode="&#x407;" horiz-adv-x="215" 
d="M67 0v800h80v-800h-80zM-9 925c0 11.333 4 21 12 29s17.667 12 29 12c10.667 0 20.167 -4 28.5 -12s12.5 -17.667 12.5 -29s-4 -21 -12 -29s-17.667 -12 -29 -12s-21 4 -29 12s-12 17.667 -12 29zM141 925c0 11.333 4 21 12 29s17.667 12 29 12
c10.667 0 20.167 -4 28.5 -12s12.5 -17.667 12.5 -29s-4 -21 -12 -29s-17.667 -12 -29 -12s-21 4 -29 12s-12 17.667 -12 29z" />
    <glyph glyph-name="afii10057" unicode="&#x408;" horiz-adv-x="200" 
d="M-55 -250l-0.000976562 74.999h55c16.667 0 30.834 5.83301 42.501 17.5s17.5 25.834 17.5 42.501v915h80v-910c0 -38.667 -13.667 -71.667 -41 -99s-60.333 -41 -99 -41h-55z" />
    <glyph glyph-name="afii10058" unicode="&#x409;" horiz-adv-x="742" 
d="M22 0l-0.000976562 74.999h30c16.667 0 30.834 5.83301 42.501 17.5s17.5 25.834 17.5 42.501v665h330v-420h60c52.667 0 97.5 -18.5 134.5 -55.5s55.5 -81.833 55.5 -134.5s-18.5 -97.5 -55.5 -134.5s-81.833 -55.5 -134.5 -55.5h-140v725h-170v-585
c0 -38.667 -13.667 -71.667 -41 -99s-60.333 -41 -99 -41h-30zM441.999 304.999v-230h60c30.667 0 56.667 10.667 78 32s32 47.333 32 78v10c0 30 -10.667 55.833 -32 77.5s-47.333 32.5 -78 32.5h-60z" />
    <glyph glyph-name="afii10059" unicode="&#x40a;" horiz-adv-x="690" 
d="M310 0v305h-170v-305h-80v800h80v-420h170v420h80v-420h60c52.667 0 97.5 -18.5 134.5 -55.5s55.5 -81.833 55.5 -134.5s-18.5 -97.5 -55.5 -134.5s-81.833 -55.5 -134.5 -55.5h-140zM390 305v-230h60c30 0 55.833 10.667 77.5 32s32.5 47.333 32.5 78v10
c0 30 -10.833 55.833 -32.5 77.5s-47.5 32.5 -77.5 32.5h-60z" />
    <glyph glyph-name="afii10060" unicode="&#x40b;" horiz-adv-x="604" 
d="M30 725l-0.000976562 75h350v-75h-136v-204c32.667 23.333 69.334 35 110.001 35c52.667 0 97.5 -18.5 134.5 -55.5s55.5 -81.833 55.5 -134.5v-366h-80v371c0 30 -10.667 55.833 -32 77.5s-47.333 32.5 -78 32.5s-56.667 -10.833 -78 -32.5s-32 -47.5 -32 -77.5v-371
h-80v725h-134z" />
    <glyph glyph-name="afii10061" unicode="&#x40c;" horiz-adv-x="500" 
d="M60 0v800h80v-395l211 395h90l-176 -329l181 -471h-86l-145 378l-75 -141v-237h-80zM178 868l-19 57l169 62l22 -67z" />
    <glyph glyph-name="afii10062" unicode="&#x40e;" horiz-adv-x="463" 
d="M235 930c18 0 32.5 4.16699 43.5 12.5s16.5 19.166 16.5 32.499v17h65v-17c0 -32.667 -10.5 -59.167 -31.5 -79.5s-52.167 -30.5 -93.5 -30.5s-72.5 10.167 -93.5 30.5s-31.5 46.833 -31.5 79.5v17h65v-17c0 -13.333 5.5 -24.166 16.5 -32.499s25.5 -12.5 43.5 -12.5z
M42 800h82l108 -426l110 426h82l-183 -699c-8 -28.667 -24.833 -52.667 -50.5 -72s-53.167 -29 -82.5 -29h-64v75h64c12 0 23.333 4.16699 34 12.5s17.667 18.5 21 30.5l27 99z" />
    <glyph glyph-name="afii10145" unicode="&#x40f;" horiz-adv-x="500" 
d="M210 -150v150h-150v800h80v-725h220v725h80v-800h-150v-150h-80z" />
    <glyph glyph-name="afii10017" unicode="&#x410;" horiz-adv-x="502" 
d="M290 800l173 -800h-81l-29 135h-205l-28 -135h-81l171 800h80zM250 624l-87 -414h174z" />
    <glyph glyph-name="afii10018" unicode="&#x411;" horiz-adv-x="500" 
d="M60 0v800h352v-75h-272v-345h110c52.667 0 97.5 -18.5 134.5 -55.5s55.5 -81.833 55.5 -134.5s-18.5 -97.5 -55.5 -134.5s-81.833 -55.5 -134.5 -55.5h-190zM140 305v-230h110c30 0 55.833 10.667 77.5 32s32.5 47.333 32.5 78v10c0 30 -10.833 55.833 -32.5 77.5
s-47.5 32.5 -77.5 32.5h-110z" />
    <glyph glyph-name="afii10019" unicode="&#x412;" horiz-adv-x="500" 
d="M60 0v800h190c52.667 0 97.5 -18.5 134.5 -55.5s55.5 -81.833 55.5 -134.5v-115c0 -64 -25.667 -115 -77 -153c51.333 -37.333 77 -88 77 -152c0 -52.667 -18.5 -97.5 -55.5 -134.5s-81.833 -55.5 -134.5 -55.5h-190zM140 725v-345h114
c29.333 1.33301 54.333 12.5 75 33.5s31 46.5 31 76.5v125c0 30 -10.833 55.833 -32.5 77.5s-47.5 32.5 -77.5 32.5h-110zM140 305v-230h110c30 0 55.833 10.667 77.5 32s32.5 47.333 32.5 78v10c0 30 -10.833 55.833 -32.5 77.5s-47.5 32.5 -77.5 32.5h-110z" />
    <glyph glyph-name="afii10020" unicode="&#x413;" horiz-adv-x="415" 
d="M60 0v800h330v-75h-250v-725h-80z" />
    <glyph glyph-name="afii10021" unicode="&#x414;" horiz-adv-x="620" 
d="M50 75h65l150 725h230v-725h75v-200h-80v125h-360v-125h-80v200zM331 725l-135 -650h219v650h-84z" />
    <glyph glyph-name="afii10022" unicode="&#x415;" horiz-adv-x="420" 
d="M60 0v800h310v-75h-230v-413h180v-75h-180v-162h230v-75h-310z" />
    <glyph glyph-name="afii10024" unicode="&#x416;" horiz-adv-x="800" 
d="M660 0l-145 378l-75 -141v-237h-80v237l-76 142l-145 -379h-85l180 471l-175 329h90l211 -395v395h80v-395l211 395h90l-176 -329l181 -471h-86z" />
    <glyph glyph-name="afii10025" unicode="&#x417;" horiz-adv-x="500" 
d="M360 555v66c0 30.667 -10.667 56.667 -32 78s-47.333 32 -78 32s-56.667 -10.667 -78 -32s-32 -47.333 -32 -78v-41h-80v36c0 52.667 18.5 97.5 55.5 134.5s81.833 55.5 134.5 55.5s97.5 -18.5 134.5 -55.5s55.5 -81.833 55.5 -134.5v-56c0 -64 -25.667 -115 -77 -153
c51.333 -37.333 77 -88 77 -152v-71c0 -52.667 -18.5 -97.5 -55.5 -134.5s-81.833 -55.5 -134.5 -55.5s-97.5 18.5 -134.5 55.5s-55.5 81.833 -55.5 134.5v36h80v-41c0 -30.667 10.667 -56.667 32 -78s47.333 -32 78 -32s56.667 10.667 78 32s32 47.333 32 78v81
c0 30 -10.667 55.833 -32 77.5s-47.333 32.5 -78 32.5h-88v75h92c29.333 1.33301 54.333 12.5 75 33.5s31 46.5 31 76.5z" />
    <glyph glyph-name="afii10026" unicode="&#x418;" horiz-adv-x="525" 
d="M140 800v-590l245 590h80v-800h-80v590l-245 -590h-80v800h80z" />
    <glyph glyph-name="afii10027" unicode="&#x419;" horiz-adv-x="525" 
d="M140 800v-590l245 590h80v-800h-80v590l-245 -590h-80v800h80zM262 865v65.001c18 0 32.5 4.16699 43.5 12.5s16.5 19.166 16.5 32.499v17h65v-17c0 -32.667 -10.5 -59.167 -31.5 -79.5s-52.167 -30.5 -93.5 -30.5zM262 930.001v-65.001
c-41.333 0 -72.5 10.167 -93.5 30.5s-31.5 46.833 -31.5 79.5v17h65v-17c0 -13.333 5.5 -24.166 16.5 -32.499s25.5 -12.5 43.5 -12.5z" />
    <glyph glyph-name="afii10028" unicode="&#x41a;" horiz-adv-x="500" 
d="M60 0v800h80v-395l211 395h90l-176 -329l181 -471h-86l-145 378l-75 -141v-237h-80z" />
    <glyph glyph-name="afii10029" unicode="&#x41b;" horiz-adv-x="552" 
d="M22 0l-0.000976562 74.999h30c16.667 0 30.834 5.83301 42.501 17.5s17.5 25.834 17.5 42.501v665h380v-800h-80v725h-220v-585c0 -38.667 -13.667 -71.667 -41 -99s-60.333 -41 -99 -41h-30z" />
    <glyph glyph-name="afii10030" unicode="&#x41c;" horiz-adv-x="550" 
d="M490 800v-800h-80v643l-95 -161h-80l-95 160v-642h-80v800h80l135 -227l135 227h80z" />
    <glyph glyph-name="afii10031" unicode="&#x41d;" horiz-adv-x="500" 
d="M360 0v237h-220v-237h-80v800h80v-488h220v488h80v-800h-80z" />
    <glyph glyph-name="afii10032" unicode="&#x41e;" horiz-adv-x="500" 
d="M60 184v432c0 52.667 18.5 97.5 55.5 134.5s81.833 55.5 134.5 55.5s97.5 -18.5 134.5 -55.5s55.5 -81.833 55.5 -134.5v-432c0 -52.667 -18.5 -97.5 -55.5 -134.5s-81.833 -55.5 -134.5 -55.5c-53.333 0 -98.333 18.333 -135 55s-55 81.667 -55 135zM140 179
c0 -30.667 10.667 -56.667 32 -78s47.333 -32 78 -32c30 0 55.833 10.667 77.5 32s32.5 47.333 32.5 78v442c0 30 -10.833 55.833 -32.5 77.5s-47.5 32.5 -77.5 32.5c-30.667 0 -56.667 -10.833 -78 -32.5s-32 -47.5 -32 -77.5v-442z" />
    <glyph glyph-name="afii10033" unicode="&#x41f;" horiz-adv-x="500" 
d="M360 0v725h-220v-725h-80v800h380v-800h-80z" />
    <glyph glyph-name="afii10034" unicode="&#x420;" horiz-adv-x="500" 
d="M60 0v800h190c52.667 0 97.5 -18.5 134.5 -55.5s55.5 -81.833 55.5 -134.5v-183c0 -52.667 -18.5 -97.5 -55.5 -134.5s-81.833 -55.5 -134.5 -55.5h-110v-237h-80zM140 725v-413h110c30 0 55.833 10.667 77.5 32s32.5 47.333 32.5 78v193c0 30 -10.833 55.833 -32.5 77.5
s-47.5 32.5 -77.5 32.5h-110z" />
    <glyph glyph-name="afii10035" unicode="&#x421;" horiz-adv-x="500" 
d="M140 179c0 -30.667 10.667 -56.667 32 -78s47.333 -32 78 -32c30 0 55.833 10.667 77.5 32s32.5 47.333 32.5 78v41h80v-36c0 -52.667 -18.5 -97.5 -55.5 -134.5s-81.833 -55.5 -134.5 -55.5c-53.333 0 -98.333 18.333 -135 55s-55 81.667 -55 135v432
c0 52.667 18.5 97.5 55.5 134.5s81.833 55.5 134.5 55.5s97.5 -18.5 134.5 -55.5s55.5 -81.833 55.5 -134.5v-36h-80v41c0 30 -10.833 55.833 -32.5 77.5s-47.5 32.5 -77.5 32.5c-30.667 0 -56.667 -10.833 -78 -32.5s-32 -47.5 -32 -77.5v-442z" />
    <glyph glyph-name="afii10036" unicode="&#x422;" horiz-adv-x="410" 
d="M30 725v75h350v-75h-136v-725h-80v725h-134z" />
    <glyph glyph-name="afii10037" unicode="&#x423;" horiz-adv-x="463" 
d="M42 800h82l108 -426l110 426h82l-183 -699c-8 -28.667 -24.833 -52.667 -50.5 -72s-53.167 -29 -82.5 -29h-64v75h64c12 0 23.333 4.16699 34 12.5s17.667 18.5 21 30.5l27 99z" />
    <glyph glyph-name="afii10038" unicode="&#x424;" horiz-adv-x="680" 
d="M300 700v100h80v-100h60c52.667 0 97.5 -18.5 134.5 -55.5s55.5 -81.833 55.5 -134.5v-220c0 -52.667 -18.5 -97.5 -55.5 -134.5s-81.833 -55.5 -134.5 -55.5h-60v-100h-80v100h-60c-52.667 0 -97.5 18.5 -134.5 55.5s-55.5 81.833 -55.5 134.5v220
c0 52.667 18.5 97.5 55.5 134.5s81.833 55.5 134.5 55.5h60zM300 175v450h-60c-30.667 0 -56.667 -10.667 -78 -32s-32 -47.333 -32 -78v-230c0 -30.667 10.667 -56.667 32 -78s47.333 -32 78 -32h60zM380 625v-450h60c30 0 55.833 10.667 77.5 32s32.5 47.333 32.5 78v230
c0 30.667 -10.833 56.667 -32.5 78s-47.5 32 -77.5 32h-60z" />
    <glyph glyph-name="afii10039" unicode="&#x425;" horiz-adv-x="500" 
d="M440 800l-148 -392l154 -408h-86l-111 294l-110 -294h-85l153 408l-147 392h85l104 -278l105 278h86z" />
    <glyph glyph-name="afii10040" unicode="&#x426;" horiz-adv-x="575" 
d="M60 0v800h80v-725h220v725h80v-725h100v-200h-80v125h-400z" />
    <glyph glyph-name="afii10041" unicode="&#x427;" horiz-adv-x="500" 
d="M360 0v268c-32 -22.667 -68.667 -34 -110 -34c-53.333 0 -98.333 18.333 -135 55s-55 81.667 -55 135v376h80v-381c0 -30.667 10.667 -56.667 32 -78s47.333 -32 78 -32c30 0 55.833 10.667 77.5 32s32.5 47.333 32.5 78v381h80v-800h-80z" />
    <glyph glyph-name="afii10042" unicode="&#x428;" horiz-adv-x="650" 
d="M60 0v800h80v-725h145v725h80v-725h145v725h80v-800h-530z" />
    <glyph glyph-name="afii10043" unicode="&#x429;" horiz-adv-x="725" 
d="M60 0v800h80v-725h145v725h80v-725h145v725h80v-725h100v-200h-80v125h-550z" />
    <glyph glyph-name="afii10044" unicode="&#x42a;" horiz-adv-x="542" 
d="M112 0v725h-90v75h170v-420h110c52.667 0 97.5 -18.5 134.5 -55.5s55.5 -81.833 55.5 -134.5s-18.5 -97.5 -55.5 -134.5s-81.833 -55.5 -134.5 -55.5h-190zM192 305v-230h110c30.667 0 56.667 10.667 78 32s32 47.333 32 78v10c0 30 -10.667 55.833 -32 77.5
s-47.333 32.5 -78 32.5h-110z" />
    <glyph glyph-name="afii10045" unicode="&#x42b;" horiz-adv-x="675" 
d="M60 0v800h80v-420h110c52.667 0 97.5 -18.5 134.5 -55.5s55.5 -81.833 55.5 -134.5s-18.5 -97.5 -55.5 -134.5s-81.833 -55.5 -134.5 -55.5h-190zM534 0v800h80v-800h-80zM140 305v-230h110c30 0 55.833 10.667 77.5 32s32.5 47.333 32.5 78v10
c0 30 -10.833 55.833 -32.5 77.5s-47.5 32.5 -77.5 32.5h-110z" />
    <glyph glyph-name="afii10046" unicode="&#x42c;" horiz-adv-x="500" 
d="M60 0v800h80v-420h110c52.667 0 97.5 -18.5 134.5 -55.5s55.5 -81.833 55.5 -134.5s-18.5 -97.5 -55.5 -134.5s-81.833 -55.5 -134.5 -55.5h-190zM140 305v-230h110c30 0 55.833 10.667 77.5 32s32.5 47.333 32.5 78v10c0 30 -10.833 55.833 -32.5 77.5
s-47.5 32.5 -77.5 32.5h-110z" />
    <glyph glyph-name="afii10047" unicode="&#x42d;" horiz-adv-x="500" 
d="M360 179v168h-180v75h180v199c0 30 -10.667 55.833 -32 77.5s-47.333 32.5 -78 32.5c-30 0 -55.833 -10.833 -77.5 -32.5s-32.5 -47.5 -32.5 -77.5v-41h-80v36c0 52.667 18.5 97.5 55.5 134.5s81.833 55.5 134.5 55.5s97.5 -18.5 134.5 -55.5s55.5 -81.833 55.5 -134.5
v-432c0 -53.333 -18.333 -98.333 -55 -135s-81.667 -55 -135 -55c-52.667 0 -97.5 18.5 -134.5 55.5s-55.5 81.833 -55.5 134.5v36h80v-41c0 -30.667 10.833 -56.667 32.5 -78s47.5 -32 77.5 -32c30.667 0 56.667 10.667 78 32s32 47.333 32 78z" />
    <glyph glyph-name="afii10048" unicode="&#x42e;" horiz-adv-x="675" 
d="M235 184v53h-95v-237h-80v800h80v-488h95v304c0 52.667 18.5 97.5 55.5 134.5s81.833 55.5 134.5 55.5s97.5 -18.5 134.5 -55.5s55.5 -81.833 55.5 -134.5v-432c0 -52.667 -18.5 -97.5 -55.5 -134.5s-81.833 -55.5 -134.5 -55.5s-97.5 18.333 -134.5 55
s-55.5 81.667 -55.5 135zM315 179c0 -30.667 10.667 -56.667 32 -78s47.333 -32 78 -32c30 0 55.833 10.667 77.5 32s32.5 47.333 32.5 78v442c0 30 -10.833 55.833 -32.5 77.5s-47.5 32.5 -77.5 32.5c-30.667 0 -56.667 -10.833 -78 -32.5s-32 -47.5 -32 -77.5v-442z" />
    <glyph glyph-name="afii10049" unicode="&#x42f;" horiz-adv-x="500" 
d="M440 0l-80 -0.000976562v237h-110c-30.667 0 -56.667 -10.667 -78 -32s-32 -47.333 -32 -78v-127h-80v122c0 30.667 6.83301 59.334 20.5 86.001s32.167 48.667 55.5 66c-50.667 38.667 -76 89.667 -76 153v183c0 52.667 18.5 97.5 55.5 134.5s81.833 55.5 134.5 55.5
h190v-800zM360 311.999v413h-110c-30.667 0 -56.667 -10.833 -78 -32.5s-32 -47.5 -32 -77.5v-193c0 -30.667 10.667 -56.667 32 -78s47.333 -32 78 -32h110z" />
    <glyph glyph-name="afii10065" unicode="&#x430;" horiz-adv-x="391" 
d="M235 700l117 -600h-75l-22 115h-119l-22 -115h-75l116 600h80zM195 527l-45 -237h90z" />
    <glyph glyph-name="afii10066" unicode="&#x431;" 
d="M60 100v600h252v-75h-172v-245h60c38.667 0 71.667 -13.667 99 -41s41 -60.333 41 -99s-13.667 -71.667 -41 -99s-60.333 -41 -99 -41h-140zM140 305v-130.002h60c16.667 0 30.834 5.83301 42.501 17.5s17.5 25.834 17.5 42.501v10
c0 16.667 -5.83301 30.834 -17.5 42.501s-25.834 17.5 -42.501 17.5h-60z" />
    <glyph glyph-name="afii10067" unicode="&#x432;" 
d="M60 100v600h140c38.667 0 71.667 -13.667 99 -41s41 -60.333 41 -99v-115c0 -40 -15 -74.333 -45 -103c30 -28 45 -62 45 -102c0 -38.667 -13.667 -71.667 -41 -99s-60.333 -41 -99 -41h-140zM140 625l0.000976562 -245h65c15.333 1.33301 28.333 7.66602 39 18.999
s16 25 16 41v125c0 16.667 -5.83301 30.834 -17.5 42.501s-25.834 17.5 -42.501 17.5h-60zM140.001 305v-130.002h60c16.667 0 30.834 5.83301 42.501 17.5s17.5 25.834 17.5 42.501v10c0 16.667 -5.83301 30.834 -17.5 42.501s-25.834 17.5 -42.501 17.5h-60z" />
    <glyph glyph-name="afii10068" unicode="&#x433;" horiz-adv-x="325" 
d="M60 100v600h240v-75h-160v-525h-80z" />
    <glyph glyph-name="afii10069" unicode="&#x434;" horiz-adv-x="520" 
d="M50 175h65l75 525h205v-525h75v-175h-80v100h-260v-100h-80v175zM315 175v450h-55l-64 -450h119z" />
    <glyph glyph-name="afii10070" unicode="&#x435;" horiz-adv-x="350" 
d="M60 100v600h240v-75h-160v-268h135v-75h-135v-107h160v-75h-240z" />
    <glyph glyph-name="afii10072" unicode="&#x436;" horiz-adv-x="600" 
d="M462 100l-86 251l-36 -75v-176h-80v176l-37 75l-85 -251h-84l120 353l-120 247h88l118 -243v243h80v-243l118 243h88l-120 -247l120 -353h-84z" />
    <glyph glyph-name="afii10073" unicode="&#x437;" 
d="M260 497l0.000976562 74c0 16.667 -5.83301 30.834 -17.5 42.501s-25.834 17.5 -42.501 17.5s-30.834 -5.83301 -42.501 -17.5s-17.5 -25.834 -17.5 -42.501v-46h-80v41c0 38.667 13.667 71.667 41 99s60.333 41 99 41s71.667 -13.667 99 -41s41 -60.333 41 -99v-64
c0 -40 -15 -74.333 -45 -103c30 -28 45 -62 45 -102v-63c0 -38.667 -13.667 -71.667 -41 -99s-60.333 -41 -99 -41s-71.667 13.667 -99 41s-41 60.333 -41 99v41h80v-46c0 -16.667 5.83301 -30.834 17.5 -42.501s25.834 -17.5 42.501 -17.5s30.834 5.83301 42.501 17.5
s17.5 25.834 17.5 42.501v73c0 16.667 -5.83301 30.834 -17.5 42.501s-25.834 17.5 -42.501 17.5h-50v75h55c15.333 1.33301 28.333 7.66602 39 18.999s16 25 16 41z" />
    <glyph glyph-name="afii10074" unicode="&#x438;" horiz-adv-x="425" 
d="M365 700v-600h-80v388l-145 -388h-80v600h80v-391l145 391h80z" />
    <glyph glyph-name="afii10075" unicode="&#x439;" horiz-adv-x="425" 
d="M365 700v-600h-80v388l-145 -388h-80v600h80v-391l145 391h80zM212 765v65.001c18 0 32.5 4.16699 43.5 12.5s16.5 19.166 16.5 32.499v17h65v-17c0 -32.667 -10.5 -59.167 -31.5 -79.5s-52.167 -30.5 -93.5 -30.5zM212 830.001v-65.001
c-41.333 0 -72.5 10.167 -93.5 30.5s-31.5 46.833 -31.5 79.5v17h65v-17c0 -13.333 5.5 -24.166 16.5 -32.499s25.5 -12.5 43.5 -12.5z" />
    <glyph glyph-name="afii10076" unicode="&#x43a;" 
d="M60 100v600h80v-243l118 243h88l-120 -247l120 -353h-84l-86 251l-36 -75v-176h-80z" />
    <glyph glyph-name="afii10077" unicode="&#x43b;" horiz-adv-x="425" 
d="M7 100l-0.000976562 74.999h18c16.667 0 30.834 5.83301 42.501 17.5s17.5 25.834 17.5 42.501v465h280v-600h-80v525h-120v-385c0 -38.667 -13.667 -71.667 -41 -99s-60.333 -41 -99 -41h-18z" />
    <glyph glyph-name="afii10078" unicode="&#x43c;" horiz-adv-x="450" 
d="M310 100v429l-50 -94h-70l-50 93v-428h-80v600h80l85 -168l85 168h80v-600h-80z" />
    <glyph glyph-name="afii10079" unicode="&#x43d;" 
d="M260 100v182h-120v-182h-80v600h80v-343h120v343h80v-600h-80z" />
    <glyph glyph-name="afii10080" unicode="&#x43e;" 
d="M60 234v332c0 38.667 13.667 71.667 41 99s60.333 41 99 41s71.667 -13.667 99 -41s41 -60.333 41 -99v-332c0 -38.667 -13.667 -71.667 -41 -99s-60.333 -41 -99 -41s-71.667 13.667 -99 41s-41 60.333 -41 99zM140 229c0 -16.667 5.83301 -30.834 17.5 -42.501
s25.834 -17.5 42.501 -17.5s30.834 5.83301 42.501 17.5s17.5 25.834 17.5 42.501v342c0 16.667 -5.83301 30.834 -17.5 42.501s-25.834 17.5 -42.501 17.5s-30.834 -5.83301 -42.501 -17.5s-17.5 -25.834 -17.5 -42.501v-342z" />
    <glyph glyph-name="afii10081" unicode="&#x43f;" 
d="M260 100v525h-120v-525h-80v600h280v-600h-80z" />
    <glyph glyph-name="afii10082" unicode="&#x440;" 
d="M60 100v600h140c38.667 0 71.667 -13.667 99 -41s41 -60.333 41 -99v-138c0 -38.667 -13.667 -71.667 -41 -99s-60.333 -41 -99 -41h-60v-182h-80zM140 625v-268.002h60c16.667 0 30.834 5.83301 42.501 17.5s17.5 25.834 17.5 42.501v148
c0 16.667 -5.83301 30.834 -17.5 42.501s-25.834 17.5 -42.501 17.5h-60z" />
    <glyph glyph-name="afii10083" unicode="&#x441;" 
d="M140 229c0 -16.667 5.83301 -30.834 17.5 -42.501s25.834 -17.5 42.501 -17.5s30.834 5.83301 42.501 17.5s17.5 25.834 17.5 42.501v58h80v-53c0 -38.667 -13.667 -71.667 -41 -99s-60.333 -41 -99 -41s-71.667 13.667 -99 41s-41 60.333 -41 99v332
c0 38.667 13.667 71.667 41 99s60.333 41 99 41s71.667 -13.667 99 -41s41 -60.333 41 -99v-54h-80v59c0 16.667 -5.83301 30.834 -17.5 42.501s-25.834 17.5 -42.501 17.5s-30.834 -5.83301 -42.501 -17.5s-17.5 -25.834 -17.5 -42.501v-342z" />
    <glyph glyph-name="afii10084" unicode="&#x442;" horiz-adv-x="310" 
d="M30 625v75h250v-75h-85v-525h-80v525h-85z" />
    <glyph glyph-name="afii10085" unicode="&#x443;" horiz-adv-x="375" 
d="M41 100v79.999h62c13.333 0 21.333 6 24 18l24 89l-109 413h75l76 -291l76 291h75l-140 -522c-5.33301 -21.333 -18 -39.666 -38 -54.999s-41 -23 -63 -23h-62z" />
    <glyph glyph-name="afii10086" unicode="&#x444;" horiz-adv-x="540" 
d="M230 100v87h-40c-38.667 0 -71.667 13.667 -99 41s-41 60.333 -41 99v145c0 38.667 13.667 71.667 41 99s60.333 41 99 41h40v88h80v-88h40c38.667 0 71.667 -13.667 99 -41s41 -60.333 41 -99v-145c0 -38.667 -13.667 -71.667 -41 -99s-60.333 -41 -99 -41h-40v-87h-80z
M310 537v-275.002h40c16.667 0 30.834 5.83301 42.501 17.5s17.5 25.834 17.5 42.501v155c0 16.667 -5.83301 30.834 -17.5 42.501s-25.834 17.5 -42.501 17.5h-40zM230 261.998v275.002h-40c-16.667 0 -30.834 -5.83301 -42.501 -17.5s-17.5 -25.834 -17.5 -42.501v-155
c0 -16.667 5.83301 -30.834 17.5 -42.501s25.834 -17.5 42.501 -17.5h40z" />
    <glyph glyph-name="afii10087" unicode="&#x445;" 
d="M346 700l-101 -300l101 -300h-85l-59 174l-58 -174h-84l100 299l-100 301h84l59 -175l59 175h84z" />
    <glyph glyph-name="afii10088" unicode="&#x446;" horiz-adv-x="515" 
d="M60 100v600h80v-525h145v525h80v-525h100v-200h-80v125h-325z" />
    <glyph glyph-name="afii10089" unicode="&#x447;" 
d="M260 100l-0.00195312 189c-19.333 -8.66699 -39.333 -13 -60 -13c-38.667 0 -71.667 13.667 -99 41s-41 60.333 -41 99v284h80v-289c0 -16.667 5.83301 -30.834 17.5 -42.501s25.834 -17.5 42.501 -17.5s30.834 5.83301 42.501 17.5s17.5 25.834 17.5 42.501v289h80v-600
h-80z" />
    <glyph glyph-name="afii10090" unicode="&#x448;" horiz-adv-x="600" 
d="M60 100v600h80v-525h120v525h80v-525h120v525h80v-600h-480z" />
    <glyph glyph-name="afii10091" unicode="&#x449;" horiz-adv-x="665" 
d="M60 100v600h80v-525h120v525h80v-525h120v525h80v-525h75v-200h-80v125h-475z" />
    <glyph glyph-name="afii10092" unicode="&#x44a;" horiz-adv-x="415" 
d="M7 625v75h158v-320h60c38.667 0 71.667 -13.667 99 -41s41 -60.333 41 -99s-13.667 -71.667 -41 -99s-60.333 -41 -99 -41h-140v525h-78zM165 305v-130.002h60c16.667 0 30.834 5.83301 42.501 17.5s17.5 25.834 17.5 42.501v10c0 16.667 -5.83301 30.834 -17.5 42.501
s-25.834 17.5 -42.501 17.5h-60z" />
    <glyph glyph-name="afii10093" unicode="&#x44b;" horiz-adv-x="557" 
d="M60 100v600h80v-320h60c38.667 0 71.667 -13.667 99 -41s41 -60.333 41 -99s-13.667 -71.667 -41 -99s-60.333 -41 -99 -41h-140zM409 100v600h80v-600h-80zM140 305v-130.002h60c16.667 0 30.834 5.83301 42.501 17.5s17.5 25.834 17.5 42.501v10
c0 16.667 -5.83301 30.834 -17.5 42.501s-25.834 17.5 -42.501 17.5h-60z" />
    <glyph glyph-name="afii10094" unicode="&#x44c;" horiz-adv-x="390" 
d="M60 100v600h80v-320h60c38.667 0 71.667 -13.667 99 -41s41 -60.333 41 -99s-13.667 -71.667 -41 -99s-60.333 -41 -99 -41h-140zM140 305v-130.002h60c16.667 0 30.834 5.83301 42.501 17.5s17.5 25.834 17.5 42.501v10c0 16.667 -5.83301 30.834 -17.5 42.501
s-25.834 17.5 -42.501 17.5h-60z" />
    <glyph glyph-name="afii10095" unicode="&#x44d;" 
d="M125 360v75h135v136c0 16.667 -5.83301 30.834 -17.5 42.501s-25.834 17.5 -42.501 17.5s-30.834 -5.83301 -42.501 -17.5s-17.5 -25.834 -17.5 -42.501v-59h-80v54c0 38.667 13.667 71.667 41 99s60.333 41 99 41s71.667 -13.667 99 -41s41 -60.333 41 -99v-332
c0 -38.667 -13.667 -71.667 -41 -99s-60.333 -41 -99 -41s-71.667 13.667 -99 41s-41 60.333 -41 99v53h80v-58c0 -16.667 5.83301 -30.834 17.5 -42.501s25.834 -17.5 42.501 -17.5s30.834 5.83301 42.501 17.5s17.5 25.834 17.5 42.501v131h-135z" />
    <glyph glyph-name="afii10096" unicode="&#x44e;" horiz-adv-x="565" 
d="M225 234v48h-85v-182h-80v600h80v-343h85v209c0 38.667 13.667 71.667 41 99s60.333 41 99 41s71.667 -13.667 99 -41s41 -60.333 41 -99v-332c0 -38.667 -13.667 -71.667 -41 -99s-60.333 -41 -99 -41s-71.667 13.667 -99 41s-41 60.333 -41 99zM305 229
c0 -16.667 5.83301 -30.834 17.5 -42.501s25.834 -17.5 42.501 -17.5s30.834 5.83301 42.501 17.5s17.5 25.834 17.5 42.501v342c0 16.667 -5.83301 30.834 -17.5 42.501s-25.834 17.5 -42.501 17.5s-30.834 -5.83301 -42.501 -17.5s-17.5 -25.834 -17.5 -42.501v-342z" />
    <glyph glyph-name="afii10097" unicode="&#x44f;" 
d="M340 700v-600h-80v182h-65c-15.333 -1.33301 -28.333 -7.83301 -39 -19.5s-16 -25.167 -16 -40.5v-122h-80v117c0 41.333 15 75.333 45 102c-30 28 -45 62.333 -45 103v138c0 38.667 13.667 71.667 41 99s60.333 41 99 41h140zM260 357v268.002h-60
c-16.667 0 -30.834 -5.83301 -42.501 -17.5s-17.5 -25.834 -17.5 -42.501v-148c0 -16.667 5.83301 -30.834 17.5 -42.501s25.834 -17.5 42.501 -17.5h60z" />
    <glyph glyph-name="afii10071" unicode="&#x451;" horiz-adv-x="350" 
d="M60 100v600h240v-75h-160v-268h135v-75h-135v-107h160v-75h-240zM64 825c0 11.333 4 21 12 29s17.667 12 29 12s21 -4 29 -12s12 -17.667 12 -29s-4 -21 -12 -29s-17.667 -12 -29 -12s-21 4 -29 12s-12 17.667 -12 29zM214 825c0 11.333 4 21 12 29s17.667 12 29 12
s21 -4 29 -12s12 -17.667 12 -29s-4 -21 -12 -29s-17.667 -12 -29 -12s-21 4 -29 12s-12 17.667 -12 29z" />
    <glyph glyph-name="afii10099" unicode="&#x452;" horiz-adv-x="455" 
d="M30 625l0.000976562 74.999h250v-75h-85v-133c18.667 9.33301 38.667 14 60 14c38.667 0 71.667 -13.667 99 -41s41 -60.333 41 -99v-126c0 -38.667 -13.667 -71.667 -41 -99s-60.333 -41 -99 -41h-10v75h10c16.667 0 30.834 5.83301 42.501 17.5
s17.5 25.834 17.5 42.501v136c0 16.667 -5.83301 30.834 -17.5 42.501s-25.834 17.5 -42.501 17.5s-30.834 -5.83301 -42.501 -17.5s-17.5 -25.834 -17.5 -42.501v-271h-80v525h-85z" />
    <glyph glyph-name="afii10100" unicode="&#x453;" horiz-adv-x="325" 
d="M60 100v600h240v-75h-160v-525h-80zM103 768l-19 57l169 62l22 -67z" />
    <glyph glyph-name="afii10101" unicode="&#x454;" 
d="M140 229c0 -16.667 5.83301 -30.834 17.5 -42.501s25.834 -17.5 42.501 -17.5s30.834 5.83301 42.501 17.5s17.5 25.834 17.5 42.501v58h80v-53c0 -38.667 -13.667 -71.667 -41 -99s-60.333 -41 -99 -41s-71.667 13.667 -99 41s-41 60.333 -41 99v332
c0 38.667 13.667 71.667 41 99s60.333 41 99 41s71.667 -13.667 99 -41s41 -60.333 41 -99v-54h-80v59c0 16.667 -5.83301 30.834 -17.5 42.501s-25.834 17.5 -42.501 17.5s-30.834 -5.83301 -42.501 -17.5s-17.5 -25.834 -17.5 -42.501v-136h135v-75h-135v-131z" />
    <glyph glyph-name="afii10102" unicode="&#x455;" horiz-adv-x="390" 
d="M55 280l80 0.000976562v-51c0 -16.667 5.83301 -30.834 17.5 -42.501s25.834 -17.5 42.501 -17.5s30.834 5.83301 42.501 17.5s17.5 25.834 17.5 42.501v5c0 12 -3 22 -9 30l-156 211c-23.333 25.333 -35 55.666 -35 90.999c0 38.667 13.667 71.667 41 99
s60.333 41 99 41s71.667 -13.667 99 -41s41 -60.333 41 -99v-46h-80v51c0 16.667 -5.83301 30.834 -17.5 42.501s-25.834 17.5 -42.501 17.5s-30.834 -5.83301 -42.501 -17.5s-17.5 -25.834 -17.5 -42.501v-5c0 -12 3.33301 -23 10 -33l156 -211
c22.667 -26 34 -55.333 34 -88c0 -38.667 -13.667 -71.667 -41 -99s-60.333 -41 -99 -41s-71.667 13.667 -99 41s-41 60.333 -41 99v46z" />
    <glyph glyph-name="afii10103" unicode="&#x456;" horiz-adv-x="215" 
d="M67 100v600h80v-600h-80z" />
    <glyph glyph-name="afii10104" unicode="&#x457;" horiz-adv-x="215" 
d="M67 100v600h80v-600h-80zM-9 825c0 11.333 4 21 12 29s17.667 12 29 12c10.667 0 20.167 -4 28.5 -12s12.5 -17.667 12.5 -29s-4 -21 -12 -29s-17.667 -12 -29 -12s-21 4 -29 12s-12 17.667 -12 29zM141 825c0 11.333 4 21 12 29s17.667 12 29 12
c10.667 0 20.167 -4 28.5 -12s12.5 -17.667 12.5 -29s-4 -21 -12 -29s-17.667 -12 -29 -12s-21 4 -29 12s-12 17.667 -12 29z" />
    <glyph glyph-name="afii10105" unicode="&#x458;" horiz-adv-x="200" 
d="M-30 -56l-0.000976562 74.999h30c16.667 0 30.834 5.83301 42.501 17.5s17.5 25.834 17.5 42.501v621h80v-616c0 -38.667 -13.667 -71.667 -41 -99s-60.333 -41 -99 -41h-30z" />
    <glyph glyph-name="afii10106" unicode="&#x459;" horiz-adv-x="625" 
d="M17 100l-0.000976562 74.999h18c16.667 0 30.834 5.83301 42.501 17.5s17.5 25.834 17.5 42.501v465h280v-320h60c38.667 0 71.667 -13.667 99 -41s41 -60.333 41 -99s-13.667 -71.667 -41 -99s-60.333 -41 -99 -41h-140v525h-120v-385
c0 -38.667 -13.667 -71.667 -41 -99s-60.333 -41 -99 -41h-18zM374.999 304.999v-130.002h60c16.667 0 30.834 5.83301 42.501 17.5s17.5 25.834 17.5 42.501v10c0 16.667 -5.83301 30.834 -17.5 42.501s-25.834 17.5 -42.501 17.5h-60z" />
    <glyph glyph-name="afii10107" unicode="&#x45a;" horiz-adv-x="590" 
d="M260 100v205h-120v-205h-80v600h80v-320h120v320h80v-320h60c38.667 0 71.667 -13.667 99 -41s41 -60.333 41 -99s-13.667 -71.667 -41 -99s-60.333 -41 -99 -41h-140zM340 305v-130.002h60c16.667 0 30.834 5.83301 42.501 17.5s17.5 25.834 17.5 42.501v10
c0 16.667 -5.83301 30.834 -17.5 42.501s-25.834 17.5 -42.501 17.5h-60z" />
    <glyph glyph-name="afii10108" unicode="&#x45b;" horiz-adv-x="455" 
d="M30 625v74.999h250v-75h-85v-133c18.667 9.33301 38.667 14 60 14c38.667 0 71.667 -13.667 99 -41s41 -60.333 41 -99v-266h-80v271c0 16.667 -5.83301 30.834 -17.5 42.501s-25.834 17.5 -42.501 17.5c-16 0 -29.667 -5.33301 -41 -16s-17.666 -23.667 -18.999 -39
v-276h-80v525h-85z" />
    <glyph glyph-name="afii10109" unicode="&#x45c;" 
d="M60 100v600h80v-243l118 243h88l-120 -247l120 -353h-84l-86 251l-36 -75v-176h-80zM123 768l-19 57l169 62l22 -67z" />
    <glyph glyph-name="afii10110" unicode="&#x45e;" horiz-adv-x="375" 
d="M193 830c18 0 32.5 4.16699 43.5 12.5s16.5 19.166 16.5 32.499v17h65v-17c0 -32.667 -10.5 -59.167 -31.5 -79.5s-52.167 -30.5 -93.5 -30.5s-72.5 10.167 -93.5 30.5s-31.5 46.833 -31.5 79.5v17h65v-17c0 -13.333 5.5 -24.166 16.5 -32.499s25.5 -12.5 43.5 -12.5z
M41 100v79.999h62c13.333 0 21.333 6 24 18l24 89l-109 413h75l76 -291l76 291h75l-140 -522c-5.33301 -21.333 -18 -39.666 -38 -54.999s-41 -23 -63 -23h-62z" />
    <glyph glyph-name="afii10193" unicode="&#x45f;" 
d="M160 0v100h-100v600h80v-525h120v525h80v-600h-100v-100h-80z" />
    <glyph glyph-name="afii10146" unicode="&#x462;" horiz-adv-x="604" 
d="M30 725v75h350v-75h-136v-345h110c52.667 0 97.5 -18.5 134.5 -55.5s55.5 -81.833 55.5 -134.5s-18.5 -97.5 -55.5 -134.5s-81.833 -55.5 -134.5 -55.5h-190v725h-134zM244 305v-230h110c30.667 0 56.667 10.667 78 32s32 47.333 32 78v10c0 30 -10.667 55.833 -32 77.5
s-47.333 32.5 -78 32.5h-110z" />
    <glyph glyph-name="afii10194" unicode="&#x463;" horiz-adv-x="445" 
d="M30 625v75h250v-75h-85v-245h60c38.667 0 71.667 -13.667 99 -41s41 -60.333 41 -99s-13.667 -71.667 -41 -99s-60.333 -41 -99 -41h-140v525h-85zM195 305v-130.002h60c16.667 0 30.834 5.83301 42.501 17.5s17.5 25.834 17.5 42.501v10
c0 16.667 -5.83301 30.834 -17.5 42.501s-25.834 17.5 -42.501 17.5h-60z" />
    <glyph glyph-name="afii10147" unicode="&#x472;" horiz-adv-x="500" 
d="M60 184v432c0 52.667 18.5 97.5 55.5 134.5s81.833 55.5 134.5 55.5s97.5 -18.5 134.5 -55.5s55.5 -81.833 55.5 -134.5v-432c0 -52.667 -18.5 -97.5 -55.5 -134.5s-81.833 -55.5 -134.5 -55.5c-53.333 0 -98.333 18.333 -135 55s-55 81.667 -55 135zM334 292
c0.666992 0 1.83203 -0.166992 3.49902 -0.5s3.16699 -0.5 4.5 -0.5c5.33301 0 10 1 14 3l4 2v325c0 30 -10.833 55.833 -32.5 77.5s-47.5 32.5 -77.5 32.5c-30.667 0 -56.667 -10.833 -78 -32.5s-32 -47.5 -32 -77.5v-290c4.66699 0.666992 11.334 1 20.001 1
c10.667 0 18 -0.666992 22 -2zM139.998 179c0 -30.667 10.667 -56.667 32 -78s47.333 -32 78 -32c30 0 55.833 10.667 77.5 32s32.5 47.333 32.5 78v40c-5.33301 -1.33301 -13 -2 -23 -2c-9.33301 0 -16 0.666992 -20 2l-151 38c-1.33301 0.666992 -4 1 -8 1
c-5.33301 0 -10 -1 -14 -3l-4 -2v-74z" />
    <glyph glyph-name="afii10195" unicode="&#x473;" 
d="M60 234v332c0 38.667 13.667 71.667 41 99s60.333 41 99 41s71.667 -13.667 99 -41s41 -60.333 41 -99v-332c0 -38.667 -13.667 -71.667 -41 -99s-60.333 -41 -99 -41s-71.667 13.667 -99 41s-41 60.333 -41 99zM244 344c0.666992 -0.666992 2.33594 -1 5.00293 -1
c3.33301 0 5.66602 0.333008 6.99902 1l4 2v225c0 16.667 -5.83301 30.834 -17.5 42.501s-25.834 17.5 -42.501 17.5s-30.834 -5.83301 -42.501 -17.5s-17.5 -25.834 -17.5 -42.501v-191h9c14 0 27 -2.66699 39 -8zM140.002 229c0 -16.667 5.83301 -30.834 17.5 -42.501
s25.834 -17.5 42.501 -17.5s30.834 5.83301 42.501 17.5s17.5 25.834 17.5 42.501v40c-2.66699 -0.666992 -6.33398 -1 -11.001 -1c-15.333 0 -28 3 -38 9l-56 28l-1 1h-3c-2.66699 0 -5.33398 -0.666992 -8.00098 -2l-3 -2v-73z" />
    <glyph glyph-name="afii10148" unicode="&#x474;" horiz-adv-x="482" 
d="M201 0l-162 800h81l121 -590l121 590h81l-162 -800h-80z" />
    <glyph glyph-name="afii10196" unicode="&#x475;" horiz-adv-x="391" 
d="M155 100l-116 600h75l81 -427l82 427h75l-117 -600h-80z" />
    <glyph glyph-name="afii10050" unicode="&#x490;" horiz-adv-x="415" 
d="M310 800v125h80v-200h-250v-725h-80v800h250z" />
    <glyph glyph-name="afii10098" unicode="&#x491;" horiz-adv-x="325" 
d="M220 700v100h80v-175h-160v-525h-80v600h160z" />
    <glyph glyph-name="afii10846" unicode="&#x4d9;" 
d="M260 571c0 16.667 -5.83105 30.834 -17.498 42.501s-25.834 17.5 -42.501 17.5s-30.834 -5.83301 -42.501 -17.5s-17.5 -25.834 -17.5 -42.501v-59h-80v54c0 38.667 13.667 71.667 41 99s60.333 41 99 41s71.667 -13.667 99 -41s41 -60.333 41 -99v-332
c0 -38.667 -13.667 -71.667 -41 -99s-60.333 -41 -99 -41s-71.667 13.667 -99 41s-41 60.333 -41 99v161h200v176zM200.002 169c16.667 0 30.832 5.83301 42.499 17.5s17.5 25.834 17.5 42.501v91h-120v-91c0 -16.667 5.83301 -30.834 17.5 -42.501
s25.834 -17.5 42.501 -17.5z" />
    <glyph glyph-name="Wgrave" unicode="&#x1e80;" horiz-adv-x="550" 
d="M60 0v800h80v-643l95 160h80l95 -161v644h80v-800h-80l-135 227l-135 -227h-80zM345 925l-19 -57l-172 52l22 67z" />
    <glyph glyph-name="wgrave" unicode="&#x1e81;" horiz-adv-x="450" 
d="M140 700v-429l50 94h70l50 -95v430h80v-600h-80l-85 167l-85 -167h-80v600h80zM295 825l-19 -57l-172 52l36 67z" />
    <glyph glyph-name="Wacute" unicode="&#x1e82;" horiz-adv-x="550" 
d="M60 0v800h80v-643l95 160h80l95 -161v644h80v-800h-80l-135 227l-135 -227h-80zM223 868l-19 57l169 62l22 -67z" />
    <glyph glyph-name="wacute" unicode="&#x1e83;" horiz-adv-x="450" 
d="M140 700v-429l50 94h70l50 -95v430h80v-600h-80l-85 167l-85 -167h-80v600h80zM173 768l-19 57l169 62l22 -67z" />
    <glyph glyph-name="Wdieresis" unicode="&#x1e84;" horiz-adv-x="550" 
d="M60 0v800h80v-643l95 160h80l95 -161v644h80v-800h-80l-135 227l-135 -227h-80zM319 925c0 11.333 4 21 12 29s17.667 12 29 12c10.667 0 20.167 -4 28.5 -12s12.5 -17.667 12.5 -29s-4 -21 -12 -29s-17.667 -12 -29 -12s-21 4 -29 12s-12 17.667 -12 29zM149 925
c0 11.333 4 21 12 29s17.667 12 29 12c10.667 0 20.167 -4 28.5 -12s12.5 -17.667 12.5 -29s-4 -21 -12 -29s-17.667 -12 -29 -12s-21 4 -29 12s-12 17.667 -12 29z" />
    <glyph glyph-name="wdieresis" unicode="&#x1e85;" horiz-adv-x="450" 
d="M140 700v-429l50 94h70l50 -95v430h80v-600h-80l-85 167l-85 -167h-80v600h80zM109 825c0 11.333 4 21 12 29s17.667 12 29 12c10.667 0 20.167 -4 28.5 -12s12.5 -17.667 12.5 -29s-4 -21 -12 -29s-17.667 -12 -29 -12s-21 4 -29 12s-12 17.667 -12 29zM259 825
c0 11.333 4 21 12 29s17.667 12 29 12c10.667 0 20.167 -4 28.5 -12s12.5 -17.667 12.5 -29s-4 -21 -12 -29s-17.667 -12 -29 -12s-21 4 -29 12s-12 17.667 -12 29z" />
    <glyph glyph-name="Ygrave" unicode="&#x1ef2;" horiz-adv-x="470" 
d="M195 0v237l-156 563h83l113 -421l113 421h83l-156 -563v-237h-80zM291 925l-19 -57l-172 52l22 67z" />
    <glyph glyph-name="ygrave" unicode="&#x1ef3;" horiz-adv-x="387" 
d="M153 100v182l-111 418h75l76 -291l76 291h75l-111 -418v-182h-80zM249 825l-19 -57l-172 52l22 67z" />
    <glyph glyph-name="figuredash" unicode="&#x2012;" horiz-adv-x="350" 
d="M30 305v110h215v35h75v-110h-215v-35h-75z" />
    <glyph glyph-name="endash" unicode="&#x2013;" horiz-adv-x="350" 
d="M30 340v75h290v-75h-290z" />
    <glyph glyph-name="emdash" unicode="&#x2014;" horiz-adv-x="550" 
d="M30 340v75h490v-75h-490z" />
    <glyph glyph-name="quoteleft" unicode="&#x2018;" horiz-adv-x="200" 
d="M140 532h-80v60c0 14.667 2 31 6 49s8 32.333 12 43l7 16h55v-168z" />
    <glyph glyph-name="quoteright" unicode="&#x2019;" horiz-adv-x="200" 
d="M60 700h80v-60c0 -14.667 -2 -31 -6 -49s-8 -32.333 -12 -43l-7 -16h-55v168z" />
    <glyph glyph-name="quotesinglbase" unicode="&#x201a;" horiz-adv-x="200" 
d="M60 267h80v-60c0 -14.667 -2 -31 -6 -49s-8 -32 -12 -42l-7 -16h-55v167z" />
    <glyph glyph-name="quotedblleft" unicode="&#x201c;" horiz-adv-x="375" 
d="M315 532h-80v60c0 14.667 2.16699 31 6.5 49s8.5 32.333 12.5 43l6 16h55v-168zM140 532h-80v60c0 14.667 2 31 6 49s8 32.333 12 43l7 16h55v-168z" />
    <glyph glyph-name="quotedblright" unicode="&#x201d;" horiz-adv-x="375" 
d="M60 700h80v-60c0 -14.667 -2 -31 -6 -49s-8 -32.333 -12 -43l-7 -16h-55v168zM235 700h80v-60c0 -14.667 -2.16699 -31 -6.5 -49s-8.5 -32.333 -12.5 -43l-6 -16h-55v168z" />
    <glyph glyph-name="quotedblbase" unicode="&#x201e;" horiz-adv-x="375" 
d="M60 267h80v-60c0 -14.667 -2 -31 -6 -49s-8 -32 -12 -42l-7 -16h-55v167zM235 267h80v-60c0 -14.667 -2.16699 -31 -6.5 -49s-8.5 -32 -12.5 -42l-6 -16h-55v167z" />
    <glyph glyph-name="dagger" unicode="&#x2020;" horiz-adv-x="330" 
d="M30 575v75h92v125h80v-125h98v-75h-98v-575h-80v575h-92z" />
    <glyph glyph-name="daggerdbl" unicode="&#x2021;" horiz-adv-x="330" 
d="M30 575v75h92v125h80v-125h98v-75h-98v-350h98v-75h-98v-150h-80v150h-92v75h92v350h-92z" />
    <glyph glyph-name="bullet" unicode="&#x2022;" horiz-adv-x="212" 
d="M60 379c0 13.333 4.5 24.5 13.5 33.5s19.833 13.5 32.5 13.5s23.5 -4.5 32.5 -13.5s13.5 -20.167 13.5 -33.5c0 -12.667 -4.33301 -23.5 -13 -32.5s-19.667 -13.5 -33 -13.5s-24.333 4.5 -33 13.5s-13 19.833 -13 32.5z" />
    <glyph glyph-name="ellipsis" unicode="&#x2026;" horiz-adv-x="610" 
d="M54 141c0 12.667 4.5 23.5 13.5 32.5s19.833 13.5 32.5 13.5s23.5 -4.5 32.5 -13.5s13.5 -19.833 13.5 -32.5s-4.5 -23.5 -13.5 -32.5s-19.833 -13.5 -32.5 -13.5c-13.333 0 -24.333 4.5 -33 13.5s-13 19.833 -13 32.5zM249 141c0 12.667 4.5 23.5 13.5 32.5
s19.833 13.5 32.5 13.5s23.5 -4.5 32.5 -13.5s13.5 -19.833 13.5 -32.5s-4.5 -23.5 -13.5 -32.5s-19.833 -13.5 -32.5 -13.5s-23.5 4.5 -32.5 13.5s-13.5 19.833 -13.5 32.5zM444 141c0 12.667 4.5 23.5 13.5 32.5s19.833 13.5 32.5 13.5s23.5 -4.5 32.5 -13.5
s13.5 -19.833 13.5 -32.5s-4.5 -23.5 -13.5 -32.5s-19.833 -13.5 -32.5 -13.5c-13.333 0 -24.333 4.5 -33 13.5s-13 19.833 -13 32.5z" />
    <glyph glyph-name="perthousand" unicode="&#x2030;" horiz-adv-x="1067" 
d="M60 484v82c0 38.667 13.667 71.667 41 99s60.333 41 99 41s71.667 -13.667 99 -41s41 -60.333 41 -99v-82c0 -38.667 -13.667 -71.667 -41 -99s-60.333 -41 -99 -41s-71.667 13.667 -99 41s-41 60.333 -41 99zM140 479c0 -16.667 5.83301 -30.834 17.5 -42.501
s25.834 -17.5 42.501 -17.5s30.834 5.83301 42.501 17.5s17.5 25.834 17.5 42.501v92c0 16.667 -5.83301 30.834 -17.5 42.501s-25.834 17.5 -42.501 17.5s-30.834 -5.83301 -42.501 -17.5s-17.5 -25.834 -17.5 -42.501v-92zM420 184v82c0 38.667 13.667 71.667 41 99
s60.333 41 99 41s71.667 -13.667 99 -41s41 -60.333 41 -99v-82c0 -38.667 -13.667 -71.667 -41 -99s-60.333 -41 -99 -41s-71.667 13.667 -99 41s-41 60.333 -41 99zM500 179c0 -16.667 5.83301 -30.834 17.5 -42.501s25.834 -17.5 42.501 -17.5
s30.834 5.83301 42.501 17.5s17.5 25.834 17.5 42.501v92c0 16.667 -5.83301 30.834 -17.5 42.501s-25.834 17.5 -42.501 17.5s-30.834 -5.83301 -42.501 -17.5s-17.5 -25.834 -17.5 -42.501v-92zM257 44l-71 36l313 626l71 -36zM727 184v82c0 38.667 13.667 71.667 41 99
s60.333 41 99 41s71.667 -13.667 99 -41s41 -60.333 41 -99v-82c0 -38.667 -13.667 -71.667 -41 -99s-60.333 -41 -99 -41s-71.667 13.667 -99 41s-41 60.333 -41 99zM807 179c0 -16.667 5.83301 -30.834 17.5 -42.501s25.834 -17.5 42.501 -17.5
s30.834 5.83301 42.501 17.5s17.5 25.834 17.5 42.501v92c0 16.667 -5.83301 30.834 -17.5 42.501s-25.834 17.5 -42.501 17.5s-30.834 -5.83301 -42.501 -17.5s-17.5 -25.834 -17.5 -42.501v-92z" />
    <glyph glyph-name="guilsinglleft" unicode="&#x2039;" horiz-adv-x="356" 
d="M244 706l67 -44l-175 -262l175 -263l-67 -44l-204 307z" />
    <glyph glyph-name="guilsinglright" unicode="&#x203a;" horiz-adv-x="356" 
d="M40 662l67 44l204 -306l-204 -307l-67 44l175 263z" />
    <glyph glyph-name="exclamdbl" unicode="&#x203c;" horiz-adv-x="375" 
d="M54 141c0 12.667 4.5 23.5 13.5 32.5s19.833 13.5 32.5 13.5s23.5 -4.5 32.5 -13.5s13.5 -19.833 13.5 -32.5s-4.5 -23.5 -13.5 -32.5s-19.833 -13.5 -32.5 -13.5c-13.333 0 -24.333 4.5 -33 13.5s-13 19.833 -13 32.5zM60 475v225h80v-225l-13 -225h-55
c-8 116.667 -12 191.667 -12 225zM229 141c0 12.667 4.5 23.5 13.5 32.5s19.833 13.5 32.5 13.5s23.5 -4.5 32.5 -13.5s13.5 -19.833 13.5 -32.5s-4.5 -23.5 -13.5 -32.5s-19.833 -13.5 -32.5 -13.5s-23.5 4.5 -32.5 13.5s-13.5 19.833 -13.5 32.5zM235 475v225h80v-225
l-13 -225h-55c-8 116.667 -12 191.667 -12 225z" />
    <glyph glyph-name="fraction" unicode="&#x2044;" horiz-adv-x="581" 
d="M126 -18l-71 36l400 800l71 -36z" />
    <glyph glyph-name="colonmonetary" unicode="&#x20a1;" horiz-adv-x="725" 
d="M98 -18l-71.001 35.999l97 193c-43.333 54.667 -65 117.667 -65 189c0 84.667 29.833 156.834 89.5 216.501s131.834 89.5 216.501 89.5h6l56 112l71 -36l-45 -89c30 -9.33301 59.667 -24.333 89 -45l85 170l71 -36l-306 -612c52 6 96.667 27.667 134 65l53 -53
c-58.667 -58.667 -130 -88 -214 -88h-11l-56 -112l-71 36l45 90c-30.667 9.33301 -60 24.333 -88 45zM507.999 579.999c-26.667 21.333 -56.333 35.999 -89 43.999l-200 -401c23.333 -21.333 52.333 -36.666 87 -45.999zM139 399.998c0 -37.333 8.33301 -73.334 25 -108.001
l168 336c-56 -8 -102.167 -33.667 -138.5 -77s-54.5 -93.666 -54.5 -150.999z" />
    <glyph glyph-name="franc" unicode="&#x20a3;" horiz-adv-x="325" 
d="M3 155v75h57v470h240v-75h-160v-243h135v-75h-135v-77h53v-75h-53v-55h-80v55h-57z" />
    <glyph glyph-name="lira" unicode="&#x20a4;" horiz-adv-x="391" 
d="M26 445l0.000976562 75.001h54v40c0 38.667 13.667 71.667 41 99s60.333 41 99 41h140v-75h-140c-16.667 0 -30.834 -5.83301 -42.501 -17.5s-17.5 -25.834 -17.5 -42.501v-45h135v-75h-135v-85h135v-75h-135v-110h206v-75h-346v75h60v110h-54v75h54v85h-54z" />
    <glyph glyph-name="Euro" unicode="&#x20ac;" horiz-adv-x="629" 
d="M20 447l0.00195312 75h64c24 54.667 61.333 99 112 133s107 51 169 51c83.333 0 154.666 -29.667 213.999 -89l-53 -53c-44.667 44.667 -98.334 67 -161.001 67c-40.667 0 -78 -9.83301 -112 -29.5s-61 -46.167 -81 -79.5h263v-75h-291c-3.33301 -18 -5 -33.667 -5 -47
c0 -16 1.33301 -30.333 4 -43h227v-75h-200c19.333 -34.667 46.166 -62.167 80.499 -82.5s72.5 -30.5 114.5 -30.5c63.333 0 117 22 161 66l53 -53c-58.667 -58.667 -130 -88 -214 -88c-62.667 0 -119.667 17.333 -171 52s-88.666 80 -111.999 136h-62v75h42
c-2 14 -3 28.333 -3 43c0 15.333 1 31 3 47h-42z" />
    <glyph glyph-name="afii61352" unicode="&#x2116;" horiz-adv-x="925" 
d="M385 0l-245 590v-590h-80v800h80l245 -590v590h80v-800h-80zM585 566c0 38.667 13.667 71.667 41 99s60.333 41 99 41s71.667 -13.667 99 -41s41 -60.333 41 -99s-13.667 -71.667 -41 -99s-60.333 -41 -99 -41s-71.667 13.667 -99 41s-41 60.333 -41 99zM665 561
c0 -16.667 5.83301 -30.834 17.5 -42.501s25.834 -17.5 42.501 -17.5s30.834 5.83301 42.501 17.5s17.5 25.834 17.5 42.501v10c0 16.667 -5.83301 30.834 -17.5 42.501s-25.834 17.5 -42.501 17.5s-30.834 -5.83301 -42.501 -17.5s-17.5 -25.834 -17.5 -42.501v-10z" />
    <glyph glyph-name="trademark" unicode="&#x2122;" horiz-adv-x="659" 
d="M519 320v307l-25 -47h-69l-26 48v-308h-80v480h80l60 -123l60 123h80v-480h-80zM30 725v75h211v-75h-65v-405h-80v405h-66z" />
    <glyph glyph-name="estimated" unicode="&#x212e;" horiz-adv-x="500" 
d="M140 279c0 -30.667 10.667 -56.667 32 -78s47.333 -32 78 -32c30 0 55.833 10.667 77.5 32s32.5 47.333 32.5 78v21h80v-16c0 -52.667 -18.5 -97.5 -55.5 -134.5s-81.833 -55.5 -134.5 -55.5c-53.333 0 -98.333 18.333 -135 55s-55 81.667 -55 135v232
c0 52.667 18.5 97.5 55.5 134.5s81.833 55.5 134.5 55.5s97.5 -18.5 134.5 -55.5s55.5 -81.833 55.5 -134.5v-156h-300v-81zM140 521v-81h220v81c0 30 -10.833 55.833 -32.5 77.5s-47.5 32.5 -77.5 32.5c-30.667 0 -56.667 -10.833 -78 -32.5s-32 -47.5 -32 -77.5z" />
    <glyph glyph-name="product" unicode="&#x220f;" horiz-adv-x="500" 
d="M360 0v725h-220v-725h-80v800h380v-800h-80z" />
    <glyph glyph-name="summation" unicode="&#x2211;" horiz-adv-x="480" 
d="M60 0v75l154 205l-148 445v75h358v-75h-274l137 -413v-75l-127 -162h270v-75h-370z" />
    <glyph glyph-name="minus" unicode="&#x2212;" horiz-adv-x="460" 
d="M30 340v75h400v-75h-400z" />
    <glyph glyph-name="uni2215" unicode="&#x2215;" horiz-adv-x="581" 
d="M126 -18l-71 36l400 800l71 -36z" />
    <glyph glyph-name="infinity" unicode="&#x221e;" horiz-adv-x="770" 
d="M385 447l72 64c28 30 62.333 45 103 45c42.667 0 79.334 -15.333 110.001 -46s46 -67.334 46 -110.001s-15.333 -79.334 -46 -110.001s-67.334 -46 -110.001 -46c-42 0 -76.333 15 -103 45l-72 63l-72 -63c-26.667 -30 -61 -45 -103 -45
c-42.667 0 -79.334 15.333 -110.001 46s-46 67.334 -46 110.001s15.333 79.334 46 110.001s67.334 46 110.001 46c40.667 0 75 -15 103 -45zM636 400c0 21.333 -7.33301 39.333 -22 54s-32.667 22 -54 22c-27.333 0 -48 -11 -62 -33l-33 -43l33 -43
c14 -22 34.667 -33 62 -33c21.333 0 39.333 7.33301 54 22s22 32.667 22 54zM134 400c0 -21.333 7.33203 -39.333 21.999 -54s32.667 -22 54 -22c24.667 0 45.334 11 62.001 33l33 43l-33 43c-17.333 22 -38 33 -62 33c-21.333 0 -39.333 -7.33301 -54 -22
s-22 -32.667 -22 -54z" />
    <glyph glyph-name="integral" unicode="&#x222b;" horiz-adv-x="590" 
d="M535 700h-80v55c0 16.667 -5.83301 30.834 -17.5 42.501s-25.834 17.5 -42.501 17.5s-30.834 -5.83301 -42.501 -17.5s-17.5 -25.834 -17.5 -42.501v-705c0 -38.667 -13.667 -71.667 -41 -99s-60.333 -41 -99 -41s-71.667 13.667 -99 41s-41 60.333 -41 99v50h80v-55
c0 -16.667 5.83301 -30.834 17.5 -42.501s25.834 -17.5 42.501 -17.5s30.834 5.83301 42.501 17.5s17.5 25.834 17.5 42.501v705c0 38.667 13.667 71.667 41 99s60.333 41 99 41s71.667 -13.667 99 -41s41 -60.333 41 -99v-50z" />
    <glyph glyph-name="nonmarkingreturn" horiz-adv-x="333" 
 />
    <glyph glyph-name="zero.onum" 
d="M60 234v332c0 38.667 13.667 71.667 41 99s60.333 41 99 41s71.667 -13.667 99 -41s41 -60.333 41 -99v-332c0 -38.667 -13.667 -71.667 -41 -99s-60.333 -41 -99 -41s-71.667 13.667 -99 41s-41 60.333 -41 99zM140 229c0 -16.667 5.83301 -30.834 17.5 -42.501
s25.834 -17.5 42.501 -17.5s30.834 5.83301 42.501 17.5s17.5 25.834 17.5 42.501v342c0 16.667 -5.83301 30.834 -17.5 42.501s-25.834 17.5 -42.501 17.5s-30.834 -5.83301 -42.501 -17.5s-17.5 -25.834 -17.5 -42.501v-342z" />
    <glyph glyph-name="one.onum" horiz-adv-x="300" 
d="M150 100v525h-110v75h190v-600h-80z" />
    <glyph glyph-name="two.onum" 
d="M60 100l0.00195312 75l193 360c4.66699 8 7 16.667 7 26v10c0 16.667 -5.83301 30.834 -17.5 42.501s-25.834 17.5 -42.501 17.5s-30.834 -5.83301 -42.501 -17.5s-17.5 -25.834 -17.5 -42.501v-51h-80v46c0 38.667 13.667 71.667 41 99s60.333 41 99 41
s71.667 -13.667 99 -41s41 -60.333 41 -99c0 -26 -7.66699 -51 -23 -75l-171 -316h194v-75h-280z" />
    <glyph glyph-name="three.onum" 
d="M61 625l-0.000976562 74.999h273v-75l-98 -118c30 -8 54.833 -24.5 74.5 -49.5s29.5 -53.5 29.5 -85.5v-138c0 -38.667 -13.667 -71.667 -41 -99s-60.333 -41 -99 -41s-71.667 13.667 -99 41s-41 60.333 -41 99v53h80v-58c0 -16.667 5.83301 -30.834 17.5 -42.501
s25.834 -17.5 42.501 -17.5s30.834 5.83301 42.501 17.5s17.5 25.834 17.5 42.501v148c0 16.667 -5.83301 30.834 -17.5 42.501s-25.834 17.5 -42.501 17.5h-63v75l93 113h-169z" />
    <glyph glyph-name="four.onum" horiz-adv-x="375" 
d="M35 282v75l200 343h80v-600h-80v182h-200zM127 357h108v184z" />
    <glyph glyph-name="five.onum" 
d="M260 229l-0.000976562 147.999c0 16.667 -5.83301 30.834 -17.5 42.501s-25.834 17.5 -42.501 17.5h-134v263h268v-75h-188v-113h54c38.667 0 71.667 -13.667 99 -41s41 -60.333 41 -99v-138c0 -38.667 -13.667 -71.667 -41 -99s-60.333 -41 -99 -41
s-71.667 13.667 -99 41s-41 60.333 -41 99v53h80v-58c0 -16.667 5.83301 -30.834 17.5 -42.501s25.834 -17.5 42.501 -17.5s30.834 5.83301 42.501 17.5s17.5 25.834 17.5 42.501z" />
    <glyph glyph-name="six.onum" 
d="M140 571l0.00195312 -73c18.667 9.33301 38.667 14 60 14c38.667 0 71.667 -13.667 99 -41s41 -60.333 41 -99v-138c0 -38.667 -13.667 -71.667 -41 -99s-60.333 -41 -99 -41s-71.667 13.667 -99 41s-41 60.333 -41 99v332c0 38.667 13.667 71.667 41 99s60.333 41 99 41
s71.667 -13.667 99 -41s41 -60.333 41 -99v-36h-80v41c0 16.667 -5.83301 30.834 -17.5 42.501s-25.834 17.5 -42.501 17.5s-30.834 -5.83301 -42.501 -17.5s-17.5 -25.834 -17.5 -42.501zM140.002 229c0 -16.667 5.83105 -30.835 17.498 -42.502s25.834 -17.5 42.501 -17.5
s30.834 5.83301 42.501 17.5s17.5 25.834 17.5 42.501v148c0 16.667 -5.83301 30.834 -17.5 42.501s-25.834 17.5 -42.501 17.5c-16 0 -29.667 -5.33301 -41 -16s-17.666 -23.667 -18.999 -39v-153z" />
    <glyph glyph-name="seven.onum" horiz-adv-x="342" 
d="M17 625v75h270v-75l-122 -525h-83l123 525h-188z" />
    <glyph glyph-name="eight.onum" horiz-adv-x="390" 
d="M195 94c-38.667 0 -71.667 13.6689 -99 41.002s-41 60.333 -41 99c0 33.333 11 62.666 33 87.999l57 78l-55 75c-23.333 25.333 -35 55.666 -35 90.999c0 38.667 13.667 71.667 41 99s60.333 41 99 41s71.667 -13.667 99 -41s41 -60.333 41 -99
c0 -34.667 -12 -65 -36 -91l-56 -75l58 -78c22.667 -26 34 -55.333 34 -88c0 -38.667 -13.667 -71.667 -41 -99s-60.333 -41 -99 -41zM135 566.002c0 -12 3.33496 -23 10.002 -33l49 -67l50 67c7.33301 9.33301 11 20.333 11 33v5c0 16.667 -5.83301 30.834 -17.5 42.501
s-25.834 17.5 -42.501 17.5s-30.834 -5.83301 -42.501 -17.5s-17.5 -25.834 -17.5 -42.501v-5zM195.002 169.002c16.667 0 30.832 5.83301 42.499 17.5s17.5 25.834 17.5 42.501v5c0 12 -3 22 -9 30l-52 69l-51 -69c-5.33301 -8.66699 -8 -18.667 -8 -30v-5
c0 -16.667 5.83301 -30.834 17.5 -42.501s25.834 -17.5 42.501 -17.5z" />
    <glyph glyph-name="nine.onum" 
d="M200 169c16.667 0 30.832 5.83301 42.499 17.5s17.5 25.834 17.5 42.501v72c-19.333 -8.66699 -39.333 -13 -60 -13c-38.667 0 -71.667 13.667 -99 41s-41 60.333 -41 99v138c0 38.667 13.667 71.667 41 99s60.333 41 99 41s71.667 -13.667 99 -41s41 -60.333 41 -99
v-332c0 -38.667 -13.667 -71.667 -41 -99s-60.333 -41 -99 -41s-71.667 13.667 -99 41s-41 60.333 -41 99v36h80v-41c0 -16.667 5.83301 -30.834 17.5 -42.501s25.834 -17.5 42.501 -17.5zM139.998 571v-148c0 -16.667 5.83301 -30.834 17.5 -42.501
s25.834 -17.5 42.501 -17.5s30.834 5.83301 42.501 17.5s17.5 25.834 17.5 42.501v148c0 16.667 -5.83301 30.834 -17.5 42.501s-25.834 17.5 -42.501 17.5s-30.834 -5.83301 -42.501 -17.5s-17.5 -25.834 -17.5 -42.501z" />
    <glyph glyph-name="zero.lnum" horiz-adv-x="500" 
d="M60 184v432c0 52.667 18.5 97.5 55.5 134.5s81.833 55.5 134.5 55.5s97.5 -18.5 134.5 -55.5s55.5 -81.833 55.5 -134.5v-432c0 -52.667 -18.5 -97.5 -55.5 -134.5s-81.833 -55.5 -134.5 -55.5c-53.333 0 -98.333 18.333 -135 55s-55 81.667 -55 135zM140 179
c0 -30.667 10.667 -56.667 32 -78s47.333 -32 78 -32c30 0 55.833 10.667 77.5 32s32.5 47.333 32.5 78v442c0 30 -10.833 55.833 -32.5 77.5s-47.5 32.5 -77.5 32.5c-30.667 0 -56.667 -10.833 -78 -32.5s-32 -47.5 -32 -77.5v-442z" />
    <glyph glyph-name="one.lnum" horiz-adv-x="315" 
d="M165 0v725h-125v75h205v-800h-80z" />
    <glyph glyph-name="two.lnum" horiz-adv-x="500" 
d="M60 0v75.001l285 481c10 18 15 36.333 15 55v10c0 30 -10.667 55.833 -32 77.5s-47.333 32.5 -78 32.5s-56.667 -10.833 -78 -32.5s-32 -47.5 -32 -77.5v-41h-80v36c0 52.667 18.5 97.5 55.5 134.5s81.833 55.5 134.5 55.5s97.5 -18.5 134.5 -55.5
s55.5 -81.833 55.5 -134.5c0 -38.667 -10.667 -73.334 -32 -104.001l-259 -437h291v-75h-380z" />
    <glyph glyph-name="three.lnum" horiz-adv-x="500" 
d="M360 555v66c0 30.667 -10.667 56.667 -32 78s-47.333 32 -78 32s-56.667 -10.667 -78 -32s-32 -47.333 -32 -78v-41h-80v36c0 52.667 18.5 97.5 55.5 134.5s81.833 55.5 134.5 55.5s97.5 -18.5 134.5 -55.5s55.5 -81.833 55.5 -134.5v-56c0 -64 -25.667 -115 -77 -153
c51.333 -37.333 77 -88 77 -152v-71c0 -52.667 -18.5 -97.5 -55.5 -134.5s-81.833 -55.5 -134.5 -55.5s-97.5 18.5 -134.5 55.5s-55.5 81.833 -55.5 134.5v36h80v-41c0 -30.667 10.667 -56.667 32 -78s47.333 -32 78 -32s56.667 10.667 78 32s32 47.333 32 78v81
c0 30 -10.667 55.833 -32 77.5s-47.333 32.5 -78 32.5h-88v75h92c29.333 1.33301 54.333 12.5 75 33.5s31 46.5 31 76.5z" />
    <glyph glyph-name="four.lnum" horiz-adv-x="485" 
d="M60 310l120 490h82l-120 -490h203v490h80v-800h-80v235h-285v75z" />
    <glyph glyph-name="five.lnum" horiz-adv-x="500" 
d="M360 179v121c0 30 -10.667 55.833 -32 77.5s-47.333 32.5 -78 32.5h-184v390h358v-75h-278v-240h104c52.667 0 97.5 -18.5 134.5 -55.5s55.5 -81.833 55.5 -134.5v-111c0 -52.667 -18.5 -97.5 -55.5 -134.5s-81.833 -55.5 -134.5 -55.5s-97.5 18.5 -134.5 55.5
s-55.5 81.833 -55.5 134.5v36h80v-41c0 -30.667 10.667 -56.667 32 -78s47.333 -32 78 -32s56.667 10.667 78 32s32 47.333 32 78z" />
    <glyph glyph-name="six.lnum" horiz-adv-x="500" 
d="M250 490c52.667 0 97.499 -18.5 134.499 -55.5s55.5 -81.833 55.5 -134.5v-116c0 -52.667 -18.5 -97.5 -55.5 -134.5s-81.833 -55.5 -134.5 -55.5c-53.333 0 -98.333 18.333 -135 55s-55 81.667 -55 135v432c0 52.667 18.5 97.5 55.5 134.5s81.833 55.5 134.5 55.5
s97.5 -18.5 134.5 -55.5s55.5 -81.833 55.5 -134.5v-36h-80v41c0 30 -10.833 55.833 -32.5 77.5s-47.5 32.5 -77.5 32.5c-30.667 0 -56.667 -10.833 -78 -32.5s-32 -47.5 -32 -77.5v-166c32.667 23.333 69.334 35 110.001 35zM139.999 179c0 -30.667 10.667 -56.667 32 -78
s47.333 -32 78 -32c30 0 55.833 10.667 77.5 32s32.5 47.333 32.5 78v126c0 30 -10.833 55.833 -32.5 77.5s-47.5 32.5 -77.5 32.5c-30.667 0 -56.667 -10.833 -78 -32.5s-32 -47.5 -32 -77.5v-126z" />
    <glyph glyph-name="seven.lnum" horiz-adv-x="450" 
d="M20 725v75h360v-75l-178 -725h-82l177 725h-277z" />
    <glyph glyph-name="eight.lnum" horiz-adv-x="500" 
d="M60 184v72.999c0 64.667 25.333 115.334 76 152.001c-50.667 38 -76 89 -76 153v54c0 52.667 18.5 97.5 55.5 134.5s81.833 55.5 134.5 55.5s97.5 -18.5 134.5 -55.5s55.5 -81.833 55.5 -134.5v-54c0 -64 -25.667 -115 -77 -153c51.333 -37.333 77 -88 77 -152v-73
c0 -52.667 -18.5 -97.5 -55.5 -134.5s-81.833 -55.5 -134.5 -55.5c-53.333 0 -98.333 18.333 -135 55s-55 81.667 -55 135zM140 178.999c0 -30.667 10.667 -56.665 32 -77.998s47.333 -32 78 -32c30 0 55.833 10.667 77.5 32s32.5 47.333 32.5 78v83
c0 29.333 -10.333 54.666 -31 75.999s-45.667 32.666 -75 33.999h-4c-30.667 0 -56.667 -10.667 -78 -32s-32 -47.333 -32 -78v-83zM140 557.001c0 -30.667 10.667 -56.667 32 -78s47.333 -32 78 -32h4c29.333 1.33301 54.333 12.5 75 33.5s31 46.5 31 76.5v64
c0 30 -10.833 55.833 -32.5 77.5s-47.5 32.5 -77.5 32.5c-30.667 0 -56.667 -10.833 -78 -32.5s-32 -47.5 -32 -77.5v-64z" />
    <glyph glyph-name="nine.lnum" horiz-adv-x="500" 
d="M360 179l0.000976562 166c-32.667 -23.333 -69.334 -35 -110.001 -35c-52.667 0 -97.5 18.5 -134.5 55.5s-55.5 81.833 -55.5 134.5v116c0 52.667 18.5 97.5 55.5 134.5s81.833 55.5 134.5 55.5s97.5 -18.5 134.5 -55.5s55.5 -81.833 55.5 -134.5v-432
c0 -52.667 -18.5 -97.5 -55.5 -134.5s-81.833 -55.5 -134.5 -55.5s-97.5 18.5 -134.5 55.5s-55.5 81.833 -55.5 134.5v36h80v-41c0 -30.667 10.667 -56.667 32 -78s47.333 -32 78 -32s56.667 10.667 78 32s32 47.333 32 78zM250.001 385
c29.333 0 54.668 10.168 76.001 30.501s32.666 45.166 33.999 74.499v131c0 30.667 -10.667 56.667 -32 78s-47.333 32 -78 32s-56.667 -10.667 -78 -32s-32 -47.333 -32 -78v-126c0 -30.667 10.667 -56.667 32 -78s47.333 -32 78 -32z" />
    <glyph glyph-name="zero.tnum" 
d="M60 234v332c0 38.667 13.667 71.667 41 99s60.333 41 99 41s71.667 -13.667 99 -41s41 -60.333 41 -99v-332c0 -38.667 -13.667 -71.667 -41 -99s-60.333 -41 -99 -41s-71.667 13.667 -99 41s-41 60.333 -41 99zM140 229c0 -16.667 5.83301 -30.834 17.5 -42.501
s25.834 -17.5 42.501 -17.5s30.834 5.83301 42.501 17.5s17.5 25.834 17.5 42.501v342c0 16.667 -5.83301 30.834 -17.5 42.501s-25.834 17.5 -42.501 17.5s-30.834 -5.83301 -42.501 -17.5s-17.5 -25.834 -17.5 -42.501v-342z" />
    <glyph glyph-name="one.tnum" horiz-adv-x="300" 
d="M150 100v525h-110v75h190v-600h-80z" />
    <glyph glyph-name="two.tnum" 
d="M60 100l0.00195312 75l193 360c4.66699 8 7 16.667 7 26v10c0 16.667 -5.83301 30.834 -17.5 42.501s-25.834 17.5 -42.501 17.5s-30.834 -5.83301 -42.501 -17.5s-17.5 -25.834 -17.5 -42.501v-51h-80v46c0 38.667 13.667 71.667 41 99s60.333 41 99 41
s71.667 -13.667 99 -41s41 -60.333 41 -99c0 -26 -7.66699 -51 -23 -75l-171 -316h194v-75h-280z" />
    <glyph glyph-name="three.tnum" 
d="M260 497l0.000976562 74c0 16.667 -5.83301 30.834 -17.5 42.501s-25.834 17.5 -42.501 17.5s-30.834 -5.83301 -42.501 -17.5s-17.5 -25.834 -17.5 -42.501v-46h-80v41c0 38.667 13.667 71.667 41 99s60.333 41 99 41s71.667 -13.667 99 -41s41 -60.333 41 -99v-64
c0 -40 -15 -74.333 -45 -103c30 -28 45 -62 45 -102v-63c0 -38.667 -13.667 -71.667 -41 -99s-60.333 -41 -99 -41s-71.667 13.667 -99 41s-41 60.333 -41 99v41h80v-46c0 -16.667 5.83301 -30.834 17.5 -42.501s25.834 -17.5 42.501 -17.5s30.834 5.83301 42.501 17.5
s17.5 25.834 17.5 42.501v73c0 16.667 -5.83301 30.834 -17.5 42.501s-25.834 17.5 -42.501 17.5h-50v75h55c15.333 1.33301 28.333 7.66602 39 18.999s16 25 16 41z" />
    <glyph glyph-name="four.tnum" horiz-adv-x="375" 
d="M35 282v75l61 343h81l-62 -343h120v343h80v-600h-80v182h-200z" />
    <glyph glyph-name="five.tnum" 
d="M260 229l-0.000976562 105.999c0 16.667 -5.83301 30.834 -17.5 42.501s-25.834 17.5 -42.501 17.5h-134v305h268v-75h-188v-155h54c38.667 0 71.667 -13.667 99 -41s41 -60.333 41 -99v-96c0 -38.667 -13.667 -71.667 -41 -99s-60.333 -41 -99 -41
s-71.667 13.667 -99 41s-41 60.333 -41 99v41h80v-46c0 -16.667 5.83301 -30.834 17.5 -42.501s25.834 -17.5 42.501 -17.5s30.834 5.83301 42.501 17.5s17.5 25.834 17.5 42.501z" />
    <glyph glyph-name="six.tnum" 
d="M140 571l0.00195312 -82c18.667 9.33301 38.667 14 60 14c38.667 0 71.667 -13.667 99 -41s41 -60.333 41 -99v-129c0 -38.667 -13.667 -71.667 -41 -99s-60.333 -41 -99 -41s-71.667 13.667 -99 41s-41 60.333 -41 99v332c0 38.667 13.667 71.667 41 99s60.333 41 99 41
s71.667 -13.667 99 -41s41 -60.333 41 -99v-36h-80v41c0 16.667 -5.83301 30.834 -17.5 42.501s-25.834 17.5 -42.501 17.5s-30.834 -5.83301 -42.501 -17.5s-17.5 -25.834 -17.5 -42.501zM140.002 229c0 -16.667 5.83105 -30.835 17.498 -42.502s25.834 -17.5 42.501 -17.5
s30.834 5.83301 42.501 17.5s17.5 25.834 17.5 42.501v139c0 16.667 -5.83301 30.834 -17.5 42.501s-25.834 17.5 -42.501 17.5c-16 0 -29.667 -5.33301 -41 -16s-17.666 -23.667 -18.999 -39v-144z" />
    <glyph glyph-name="seven.tnum" horiz-adv-x="342" 
d="M17 625v75h270v-75l-122 -525h-83l123 525h-188z" />
    <glyph glyph-name="eight.tnum" 
d="M60 512v54c0 38.667 13.667 71.667 41 99s60.333 41 99 41s71.667 -13.667 99 -41s41 -60.333 41 -99v-54c0 -40 -15 -74.333 -45 -103c30 -28 45 -62 45 -102v-73c0 -38.667 -13.667 -71.667 -41 -99s-60.333 -41 -99 -41s-71.667 13.667 -99 41s-41 60.333 -41 99v73
c0 41.333 15 75.333 45 102c-30 28 -45 62.333 -45 103zM140 229c0 -16.667 5.83203 -30.833 17.499 -42.5s25.834 -17.5 42.501 -17.5s30.834 5.83301 42.501 17.5s17.5 25.834 17.5 42.501v83c0 15.333 -5.33301 28.833 -16 40.5s-23.667 18.167 -39 19.5h-5
c-16.667 0 -30.834 -5.83301 -42.501 -17.5s-17.5 -25.834 -17.5 -42.501v-83zM139.999 507.001c0 -16 5.33398 -29.6689 16.001 -41.002s23.667 -17.666 39 -18.999h5c16.667 0 30.834 5.83301 42.501 17.5s17.5 25.834 17.5 42.501v64
c0 16.667 -5.83301 30.834 -17.5 42.501s-25.834 17.5 -42.501 17.5s-30.834 -5.83301 -42.501 -17.5s-17.5 -25.834 -17.5 -42.501v-64z" />
    <glyph glyph-name="nine.tnum" 
d="M200 169c16.667 0 30.832 5.83301 42.499 17.5s17.5 25.834 17.5 42.501v81c-19.333 -8.66699 -39.333 -13 -60 -13c-38.667 0 -71.667 13.667 -99 41s-41 60.333 -41 99v129c0 38.667 13.667 71.667 41 99s60.333 41 99 41s71.667 -13.667 99 -41s41 -60.333 41 -99
v-332c0 -38.667 -13.667 -71.667 -41 -99s-60.333 -41 -99 -41s-71.667 13.667 -99 41s-41 60.333 -41 99v36h80v-41c0 -16.667 5.83301 -30.834 17.5 -42.501s25.834 -17.5 42.501 -17.5zM139.998 571v-139c0 -16.667 5.83301 -30.834 17.5 -42.501
s25.834 -17.5 42.501 -17.5s30.834 5.83301 42.501 17.5s17.5 25.834 17.5 42.501v139c0 16.667 -5.83301 30.834 -17.5 42.501s-25.834 17.5 -42.501 17.5s-30.834 -5.83301 -42.501 -17.5s-17.5 -25.834 -17.5 -42.501z" />
    <glyph glyph-name="Dieresis" 
d="M74 825c0 11.333 4 21 12 29s17.667 12 29 12s21 -4 29 -12s12 -17.667 12 -29s-4 -21 -12 -29s-17.667 -12 -29 -12s-21 4 -29 12s-12 17.667 -12 29zM244 825c0 11.333 4 21 12 29s17.667 12 29 12s21 -4 29 -12s12 -17.667 12 -29s-4 -21 -12 -29s-17.667 -12 -29 -12
s-21 4 -29 12s-12 17.667 -12 29z" />
    <glyph glyph-name="Ring" horiz-adv-x="330" 
d="M55 825c0 30 10.667 55.833 32 77.5s47.333 32.5 78 32.5c30 0 55.833 -10.833 77.5 -32.5s32.5 -47.5 32.5 -77.5c0 -30.667 -10.833 -56.667 -32.5 -78s-47.5 -32 -77.5 -32c-30.667 0 -56.667 10.667 -78 32s-32 47.333 -32 78zM120 825
c0 -12.667 4.33398 -23.334 13.001 -32.001s19.334 -13 32.001 -13c12 0 22.5 4.33301 31.5 13s13.5 19.334 13.5 32.001c0 12 -4.33301 22.5 -13 31.5s-19.334 13.5 -32.001 13.5s-23.334 -4.5 -32.001 -13.5s-13 -19.5 -13 -31.5z" />
    <glyph glyph-name="Macron" horiz-adv-x="200" 
d="M-33 790v65h265v-65h-265z" />
    <glyph glyph-name="Breve" horiz-adv-x="330" 
d="M165 765v65.001c18 0 32.5 4.16699 43.5 12.5s16.5 19.166 16.5 32.499v17h65v-17c0 -32.667 -10.5 -59.167 -31.5 -79.5s-52.167 -30.5 -93.5 -30.5zM165 830.001v-65.001c-41.333 0 -72.5 10.167 -93.5 30.5s-31.5 46.833 -31.5 79.5v17h65v-17
c0 -13.333 5.5 -24.166 16.5 -32.499s25.5 -12.5 43.5 -12.5z" />
    <glyph glyph-name="Dotaccent" horiz-adv-x="215" 
d="M54 825c0 12.667 4.5 23.5 13.5 32.5s19.833 13.5 32.5 13.5s23.5 -4.5 32.5 -13.5s13.5 -19.833 13.5 -32.5s-4.5 -23.5 -13.5 -32.5s-19.833 -13.5 -32.5 -13.5c-13.333 0 -24.333 4.5 -33 13.5s-13 19.833 -13 32.5z" />
    </font>
</defs>
</svg>
